999
FreeCAD v0.18 16158 (Git)
  0
SECTION
  2
HEADER
  9
$ACADVER
  1
AC1014
  9
$ACADMAINTVER
 70
     9
  9
$DWGCODEPAGE
  3
ANSI_1252
  9
$TEXTSTYLE
  7
STANDARD
  9
$DIMSTYLE
  2
STANDARD
  9
$DIMTXSTY
  7
STANDARD
  9
$CMLSTYLE
  2
STANDARD
  9
$HANDSEED
  5
FFF
  0
ENDSEC
  0
SECTION
  2
CLASSES
  0
CLASS
  1
ACDBDICTIONARYWDFLT
  2
AcDbDictionaryWithDefault
  3
ObjectDBX Classes
 90
        0
280
     0
281
     0
  0
CLASS
  1
XRECORD
  2
AcDbXrecord
  3
ObjectDBX Classes
 90
        0
280
     0
281
     0
  0
CLASS
  1
LWPOLYLINE
  2
AcDbPolyline
  3
ObjectDBX Classes
 90
        0
280
     0
281
     1
  0
ENDSEC
  0
SECTION
  2
TABLES
  0
TABLE
  2
VPORT
  5
20
330
0
100
AcDbSymbolTable
 70
     1
  0
VPORT
  5
21
330
20
100
AcDbSymbolTableRecord
100
AcDbViewportTableRecord
  2
*ACTIVE
 70
     0
  0
ENDTAB
  0
TABLE
  2
LTYPE
  5
22
330
0
100
AcDbSymbolTable
 70
     1
  0
LTYPE
  5
23
330
21
100
AcDbSymbolTableRecord
100
AcDbLinetypeTableRecord
  2
BYBLOCK
 70
     0
  3

 72
    65
 73
     0
 40
0.0
  0
LTYPE
  5
24
330
21
100
AcDbSymbolTableRecord
100
AcDbLinetypeTableRecord
  2
BYLAYER
 70
     0
  3

 72
    65
 73
     0
 40
0.0
  0
LTYPE
  5
25
330
21
100
AcDbSymbolTableRecord
100
AcDbLinetypeTableRecord
  2
CONTINUOUS
 70
     0
  3
Solid line
 72
    65
 73
     0
 40
0.0
  0
ENDTAB
  0
TABLE
  2
LAYER
  5
31
330
0
100
AcDbSymbolTable
 70
7
  0
LAYER
  5
32
330
31
100
AcDbSymbolTableRecord
100
AcDbLayerTableRecord
  2
0
 70
   0
 62
   7
  6
CONTINUOUS
  0
LAYER
  5
33
330
31
100
AcDbSymbolTableRecord
100
AcDbLayerTableRecord
  2
ProjItem
 70
    0
 62
    7
  6
CONTINUOUS
  0
LAYER
  5
34
330
31
100
AcDbSymbolTableRecord
100
AcDbLayerTableRecord
  2
ProjItem001
 70
    0
 62
    7
  6
CONTINUOUS
  0
LAYER
  5
35
330
31
100
AcDbSymbolTableRecord
100
AcDbLayerTableRecord
  2
ProjItem002
 70
    0
 62
    7
  6
CONTINUOUS
  0
LAYER
  5
36
330
31
100
AcDbSymbolTableRecord
100
AcDbLayerTableRecord
  2
Section
 70
    0
 62
    7
  6
CONTINUOUS
  0
LAYER
  5
37
330
31
100
AcDbSymbolTableRecord
100
AcDbLayerTableRecord
  2
Section001
 70
    0
 62
    7
  6
CONTINUOUS
  0
LAYER
  5
38
330
31
100
AcDbSymbolTableRecord
100
AcDbLayerTableRecord
  2
Section005
 70
    0
 62
    7
  6
CONTINUOUS
  0
ENDTAB
  0
TABLE
  2
STYLE
  5
60
330
0
100
AcDbSymbolTable
 70
     2
  0
STYLE
  5
61
330
60
100
AcDbSymbolTableRecord
100
AcDbTextStyleTableRecord
  2
STANDARD
 70
     0
 40
0.0
 41
1.0
 50
0.0
 71
     0
 42
2.5
  3
arial.ttf
  4

  0
STYLE
  5
62
330
60
100
AcDbSymbolTableRecord
100
AcDbTextStyleTableRecord
  2
ANNOTATIVE
 70
     0
 40
0.0
 41
1.0
 50
0.0
 71
     0
 42
2.5
  3
arial.ttf
  4

  0
ENDTAB
  0
TABLE
  2
VIEW
  5
63
330
0
100
AcDbSymbolTable
 70
     0
  0
ENDTAB
  0
TABLE
  2
UCS
  5
64
330
0
100
AcDbSymbolTable
 70
     0
  0
ENDTAB
  0
TABLE
  2
APPID
  5
65
330
0
100
AcDbSymbolTable
 70
     2
  0
APPID
  5
66
330
65
100
AcDbSymbolTableRecord
100
AcDbRegAppTableRecord
  2
ACAD
 70
     0
  0
APPID
  5
67
330
65
100
AcDbSymbolTableRecord
100
AcDbRegAppTableRecord
  2
ACADANNOTATIVE
 70
     0
  0
ENDTAB
  0
TABLE
  2
DIMSTYLE
  5
68
330
0
100
AcDbSymbolTable
 70
     2
  0
DIMSTYLE
105
69
330
68
100
AcDbSymbolTableRecord
100
AcDbDimStyleTableRecord
  2
STANDARD
 70
     0
  3

  4

  5

  6

  7

 40
0.0
 41
2.5
 42
0.625
 43
3.75
 44
1.25
 45
0.0
 46
0.0
 47
0.0
 48
0.0
140
2.5
141
2.5
142
0.0
143
0.03937007874016
144
1.0
145
0.0
146
1.0
147
0.625
 71
     0
 72
     0
 73
     0
 74
     0
 75
     0
 76
     0
 77
     1
 78
     8
170
     0
171
     3
172
     1
173
     0
174
     0
175
     0
176
     0
177
     0
178
     0
270
     2
271
     2
272
     2
273
     2
274
     3
340
61
275
     0
280
     0
281
     0
282
     0
283
     0
284
     8
285
     0
286
     0
287
     3
288
     0
  0
ENDTAB
  0
TABLE
  2
BLOCK_RECORD
  5
111
330
0
100
AcDbSymbolTable
  70
5
  0
BLOCK_RECORD
  5
112
330
111
100
AcDbSymbolTableRecord
100
AcDbBlockTableRecord
  2
*MODEL_SPACE
  0
BLOCK_RECORD
  5
113
330
111
100
AcDbSymbolTableRecord
100
AcDbBlockTableRecord
  2
*PAPER_SPACE
  0
ENDTAB
  0
ENDSEC
  0
SECTION
  2
BLOCKS
  0
BLOCK
  5
211
330
112
100
AcDbEntity
  8
0
100
AcDbBlockBegin
  2
*MODEL_SPACE
 70
   0
 10
0
 20
0
 30
0
  3
*MODEL_SPACE
  1
 
  0
ENDBLK
  5
212
330
112
100
AcDbEntity
  8
0
100
AcDbBlockEnd
  0
BLOCK
  5
213
330
113
100
AcDbEntity
 67
1
  8
0
100
AcDbBlockBegin
  2
*PAPER_SPACE
 70
   0
 10
0
 20
0
 30
0
  3
*PAPER_SPACE
  1
 
  0
ENDBLK
  5
214
330
113
100
AcDbEntity
 67
    1
  8
0
100
AcDbBlockEnd
  0
ENDSEC
  0
SECTION
  2
ENTITIES
  0
LINE
  5
301
330
112
100
AcDbEntity
  8
ProjItem
100
AcDbLine
 10
-280.622
 20
78.6674
 30
0
 11
-281.565
 21
77.333
 31
0
  0
LINE
  5
302
330
112
100
AcDbEntity
  8
ProjItem
100
AcDbLine
 10
-280.622
 20
78.6674
 30
0
 11
-280.622
 21
84.0817
 31
0
  0
ELLIPSE
  5
303
330
112
100
AcDbEntity
  8
ProjItem
100
AcDbEllipse
 10
-331.603
 20
219.879
 30
0
 11
-151.05
 21
-3.37827e-12
 31
0
 40
0.999985
 41
6.04239
 42
6.09724
  0
LINE
  5
304
330
112
100
AcDbEntity
  8
ProjItem
100
AcDbLine
 10
-478.295
 20
255.901
 30
0
 11
-477.243
 21
257.723
 31
0
  0
LINE
  5
305
330
112
100
AcDbEntity
  8
ProjItem
100
AcDbLine
 10
-437.22
 20
327.044
 30
0
 11
-436.145
 21
328.905
 31
0
  0
ELLIPSE
  5
306
330
112
100
AcDbEntity
  8
ProjItem
100
AcDbEllipse
 10
-331.603
 20
219.879
 30
0
 11
-151.05
 21
-3.37827e-12
 31
0
 40
0.999985
 41
5.42883
 42
5.47679
  0
LINE
  5
307
330
112
100
AcDbEntity
  8
ProjItem
100
AcDbLine
 10
-429.176
 20
333.946
 30
0
 11
-430.798
 21
333.792
 31
0
  0
LINE
  5
308
330
112
100
AcDbEntity
  8
ProjItem
100
AcDbLine
 10
-429.176
 20
333.946
 30
0
 11
-424.453
 21
331.22
 31
0
  0
LINE
  5
309
330
112
100
AcDbEntity
  8
ProjItem
100
AcDbLine
 10
-239.559
 20
331.887
 30
0
 11
-234.822
 21
334.622
 31
0
  0
LINE
  5
30A
330
112
100
AcDbEntity
  8
ProjItem
100
AcDbLine
 10
-233.195
 20
334.473
 30
0
 11
-234.822
 21
334.622
 31
0
  0
ELLIPSE
  5
30B
330
112
100
AcDbEntity
  8
ProjItem
100
AcDbEllipse
 10
-331.603
 20
219.879
 30
0
 11
-151.05
 21
-3.37827e-12
 31
0
 40
0.999985
 41
3.94799
 42
4.00284
  0
LINE
  5
30C
330
112
100
AcDbEntity
  8
ProjItem
100
AcDbLine
 10
-227.061
 20
328.905
 30
0
 11
-225.986
 21
327.044
 31
0
  0
LINE
  5
30D
330
112
100
AcDbEntity
  8
ProjItem
100
AcDbLine
 10
-185.963
 20
257.723
 30
0
 11
-184.911
 21
255.901
 31
0
  0
ELLIPSE
  5
30E
330
112
100
AcDbEntity
  8
ProjItem
100
AcDbEllipse
 10
-331.603
 20
219.879
 30
0
 11
-151.05
 21
-3.37827e-12
 31
0
 40
0.999985
 41
3.33443
 42
3.38239
  0
LINE
  5
30F
330
112
100
AcDbEntity
  8
ProjItem
100
AcDbLine
 10
-183.353
 20
248.827
 30
0
 11
-183.353
 21
248.8
 31
0
  0
LINE
  5
310
330
112
100
AcDbEntity
  8
ProjItem
100
AcDbLine
 10
-183.353
 20
248.8
 30
0
 11
-184.031
 21
247.318
 31
0
  0
LINE
  5
311
330
112
100
AcDbEntity
  8
ProjItem
100
AcDbLine
 10
-184.911
 20
255.901
 30
0
 11
-184.911
 21
255.874
 31
0
  0
ELLIPSE
  5
312
330
112
100
AcDbEntity
  8
ProjItem
100
AcDbEllipse
 10
-331.603
 20
219.852
 30
0
 11
-151.05
 21
-3.37827e-12
 31
0
 40
0.999985
 41
3.33443
 42
3.38239
  0
LINE
  5
313
330
112
100
AcDbEntity
  8
ProjItem
100
AcDbLine
 10
-234.822
 20
334.594
 30
0
 11
-233.195
 21
334.445
 31
0
  0
LINE
  5
314
330
112
100
AcDbEntity
  8
ProjItem
100
AcDbLine
 10
-233.195
 20
334.445
 30
0
 11
-233.195
 21
334.473
 31
0
  0
LINE
  5
315
330
112
100
AcDbEntity
  8
ProjItem
100
AcDbLine
 10
-234.822
 20
334.622
 30
0
 11
-234.822
 21
334.594
 31
0
  0
LINE
  5
316
330
112
100
AcDbEntity
  8
ProjItem
100
AcDbLine
 10
-234.822
 20
334.594
 30
0
 11
-239.539
 21
331.871
 31
0
  0
LINE
  5
317
330
112
100
AcDbEntity
  8
ProjItem
100
AcDbLine
 10
-430.798
 20
333.792
 30
0
 11
-430.798
 21
333.765
 31
0
  0
LINE
  5
318
330
112
100
AcDbEntity
  8
ProjItem
100
AcDbLine
 10
-430.798
 20
333.765
 30
0
 11
-429.176
 21
333.919
 31
0
  0
LINE
  5
319
330
112
100
AcDbEntity
  8
ProjItem
100
AcDbLine
 10
-429.176
 20
333.919
 30
0
 11
-429.176
 21
333.946
 31
0
  0
LINE
  5
31A
330
112
100
AcDbEntity
  8
ProjItem
100
AcDbLine
 10
-424.473
 20
331.204
 30
0
 11
-429.176
 21
333.919
 31
0
  0
LINE
  5
31B
330
112
100
AcDbEntity
  8
ProjItem
100
AcDbLine
 10
-188.732
 20
244.603
 30
0
 11
-184.031
 21
247.318
 31
0
  0
LINE
  5
31C
330
112
100
AcDbEntity
  8
ProjItem
100
AcDbLine
 10
-184.911
 20
255.874
 30
0
 11
-185.975
 21
257.716
 31
0
  0
LINE
  5
31D
330
112
100
AcDbEntity
  8
ProjItem
100
AcDbLine
 10
-225.986
 20
327.016
 30
0
 11
-227.061
 21
328.878
 31
0
  0
ELLIPSE
  5
31E
330
112
100
AcDbEntity
  8
ProjItem
100
AcDbEllipse
 10
-331.603
 20
219.852
 30
0
 11
-151.05
 21
-3.37827e-12
 31
0
 40
0.999985
 41
3.94799
 42
4.00284
  0
ELLIPSE
  5
31F
330
112
100
AcDbEntity
  8
ProjItem
100
AcDbEllipse
 10
-331.603
 20
219.852
 30
0
 11
-151.05
 21
-3.37827e-12
 31
0
 40
0.999985
 41
5.42883
 42
5.47679
  0
LINE
  5
320
330
112
100
AcDbEntity
  8
ProjItem
100
AcDbLine
 10
-436.145
 20
328.878
 30
0
 11
-437.22
 21
327.016
 31
0
  0
LINE
  5
321
330
112
100
AcDbEntity
  8
ProjItem
100
AcDbLine
 10
-477.231
 20
257.716
 30
0
 11
-478.295
 21
255.874
 31
0
  0
ELLIPSE
  5
322
330
112
100
AcDbEntity
  8
ProjItem
100
AcDbEllipse
 10
-331.603
 20
219.852
 30
0
 11
-151.05
 21
-3.37827e-12
 31
0
 40
0.999985
 41
6.04239
 42
6.09724
  0
LINE
  5
323
330
112
100
AcDbEntity
  8
ProjItem
100
AcDbLine
 10
-479.365
 20
246.294
 30
0
 11
-480.049
 21
247.778
 31
0
  0
LINE
  5
324
330
112
100
AcDbEntity
  8
ProjItem
100
AcDbLine
 10
-479.365
 20
246.294
 30
0
 11
-474.649
 21
243.572
 31
0
  0
LINE
  5
325
330
112
100
AcDbEntity
  8
ProjItem
100
AcDbLine
 10
-381.603
 20
83.7174
 30
0
 11
-381.603
 21
78.3196
 31
0
  0
LINE
  5
326
330
112
100
AcDbEntity
  8
ProjItem
100
AcDbLine
 10
-380.658
 20
76.9917
 30
0
 11
-381.603
 21
78.3196
 31
0
  0
ELLIPSE
  5
327
330
112
100
AcDbEntity
  8
ProjItem
100
AcDbEllipse
 10
-331.603
 20
219.852
 30
0
 11
-151.05
 21
-3.37827e-12
 31
0
 40
0.999985
 41
1.24004
 42
1.288
  0
LINE
  5
328
330
112
100
AcDbEntity
  8
ProjItem
100
AcDbLine
 10
-373.753
 20
74.8042
 30
0
 11
-351.603
 21
74.8042
 31
0
  0
LINE
  5
329
330
112
100
AcDbEntity
  8
ProjItem
100
AcDbLine
 10
-351.603
 20
74.8042
 30
0
 11
-351.603
 21
76.21
 31
0
  0
LINE
  5
32A
330
112
100
AcDbEntity
  8
ProjItem
100
AcDbLine
 10
-311.603
 20
76.21
 30
0
 11
-311.603
 21
74.8042
 31
0
  0
LINE
  5
32B
330
112
100
AcDbEntity
  8
ProjItem
100
AcDbLine
 10
-311.603
 20
74.8042
 30
0
 11
-289.453
 21
74.8042
 31
0
  0
ELLIPSE
  5
32C
330
112
100
AcDbEntity
  8
ProjItem
100
AcDbEllipse
 10
-331.603
 20
219.852
 30
0
 11
-151.05
 21
-3.37827e-12
 31
0
 40
0.999985
 41
1.8536
 42
1.90845
  0
LINE
  5
32D
330
112
100
AcDbEntity
  8
ProjItem
100
AcDbLine
 10
-436.145
 20
328.905
 30
0
 11
-436.145
 21
328.878
 31
0
  0
LINE
  5
32E
330
112
100
AcDbEntity
  8
ProjItem
100
AcDbLine
 10
-480.049
 20
247.778
 30
0
 11
-480.049
 21
247.805
 31
0
  0
LINE
  5
32F
330
112
100
AcDbEntity
  8
ProjItem
100
AcDbLine
 10
-478.295
 20
255.874
 30
0
 11
-478.295
 21
255.901
 31
0
  0
LINE
  5
330
330
112
100
AcDbEntity
  8
ProjItem
100
AcDbLine
 10
-227.061
 20
328.878
 30
0
 11
-227.061
 21
328.905
 31
0
  0
LINE
  5
331
330
112
100
AcDbEntity
  8
ProjItem
100
AcDbLine
 10
-313.353
 20
74.1042
 30
0
 11
-313.353
 21
75.9771
 31
0
  0
LINE
  5
332
330
112
100
AcDbEntity
  8
ProjItem
100
AcDbLine
 10
-324.103
 20
71.5643
 30
0
 11
-324.103
 21
72.0615
 31
0
  0
LINE
  5
333
330
112
100
AcDbEntity
  8
ProjItem
100
AcDbLine
 10
-324.103
 20
76.0642
 30
0
 11
-324.103
 21
76.068
 31
0
  0
LINE
  5
334
330
112
100
AcDbEntity
  8
ProjItem
100
AcDbLine
 10
-324.103
 20
75.5615
 30
0
 11
-324.103
 21
76.0642
 31
0
  0
LINE
  5
335
330
112
100
AcDbEntity
  8
ProjItem
100
AcDbLine
 10
-324.103
 20
72.0615
 30
0
 11
-324.103
 21
75.5615
 31
0
  0
LINE
  5
336
330
112
100
AcDbEntity
  8
ProjItem
100
AcDbLine
 10
-339.103
 20
71.5643
 30
0
 11
-324.103
 21
71.5643
 31
0
  0
LINE
  5
337
330
112
100
AcDbEntity
  8
ProjItem
100
AcDbLine
 10
-339.103
 20
71.578
 30
0
 11
-371.603
 21
71.578
 31
0
  0
LINE
  5
338
330
112
100
AcDbEntity
  8
ProjItem
100
AcDbLine
 10
-324.103
 20
71.578
 30
0
 11
-291.603
 21
71.578
 31
0
  0
LINE
  5
339
330
112
100
AcDbEntity
  8
ProjItem
100
AcDbLine
 10
-324.103
 20
76.0642
 30
0
 11
-339.103
 21
76.0642
 31
0
  0
SPLINE
  5
33A
330
112
100
AcDbEntity
  8
ProjItem
100
AcDbSpline
210
0
220
0
230
1
 70
8
 71
1
 72
4
 73
2
 74
0
 40
1.66043
 40
1.66043
 40
2.41657
 40
2.41657
 10
-324.103
 20
76.068
 30
0
 10
-331.603
 20
76.067
 30
0
  0
SPLINE
  5
33B
330
112
100
AcDbEntity
  8
ProjItem
100
AcDbSpline
210
0
220
0
230
1
 70
8
 71
1
 72
4
 73
2
 74
0
 40
2.41657
 40
2.41657
 40
3.17272
 40
3.17272
 10
-331.603
 20
76.067
 30
0
 10
-339.103
 20
76.068
 30
0
  0
LINE
  5
33C
330
112
100
AcDbEntity
  8
ProjItem
100
AcDbLine
 10
-339.103
 20
76.0642
 30
0
 11
-339.103
 21
76.068
 31
0
  0
ELLIPSE
  5
33D
330
112
100
AcDbEntity
  8
ProjItem
100
AcDbEllipse
 10
-297.603
 20
74.1179
 30
0
 11
-1.5
 21
9.18485e-17
 31
0
 40
0.00547325
 41
-0.115534
 42
-0
  0
ELLIPSE
  5
33E
330
112
100
AcDbEntity
  8
ProjItem
100
AcDbEllipse
 10
-297.603
 20
74.1179
 30
0
 11
-1.5
 21
9.18485e-17
 31
0
 40
0.00547325
 41
-3.14159
 42
-3.02606
  0
ELLIPSE
  5
33F
330
112
100
AcDbEntity
  8
ProjItem
100
AcDbEllipse
 10
-297.603
 20
74.1179
 30
0
 11
-1.5
 21
9.18485e-17
 31
0
 40
0.00547325
 41
-0
 42
-3.14159
  0
ELLIPSE
  5
340
330
112
100
AcDbEntity
  8
ProjItem
100
AcDbEllipse
 10
-306.603
 20
74.1179
 30
0
 11
-1.6
 21
9.79717e-17
 31
0
 40
0.00547325
 41
-3.14159
 42
-0
  0
ELLIPSE
  5
341
330
112
100
AcDbEntity
  8
ProjItem
100
AcDbEllipse
 10
-306.603
 20
74.1179
 30
0
 11
-1.6
 21
9.79717e-17
 31
0
 40
0.00547325
 41
-0
 42
-3.14159
  0
LINE
  5
342
330
112
100
AcDbEntity
  8
ProjItem
100
AcDbLine
 10
-291.603
 20
71.578
 30
0
 11
-291.603
 21
74.0779
 31
0
  0
LINE
  5
343
330
112
100
AcDbEntity
  8
ProjItem
100
AcDbLine
 10
-324.103
 20
74.0779
 30
0
 11
-291.603
 21
74.0779
 31
0
  0
LINE
  5
344
330
112
100
AcDbEntity
  8
ProjItem
100
AcDbLine
 10
-291.603
 20
74.0779
 30
0
 11
-291.603
 21
74.137
 31
0
  0
LINE
  5
345
330
112
100
AcDbEntity
  8
ProjItem
100
AcDbLine
 10
-291.603
 20
74.137
 30
0
 11
-296.113
 21
74.137
 31
0
  0
LINE
  5
346
330
112
100
AcDbEntity
  8
ProjItem
100
AcDbLine
 10
-299.093
 20
74.137
 30
0
 11
-313.353
 21
74.137
 31
0
  0
LINE
  5
347
330
112
100
AcDbEntity
  8
ProjItem
100
AcDbLine
 10
-349.853
 20
74.137
 30
0
 11
-364.113
 21
74.137
 31
0
  0
LINE
  5
348
330
112
100
AcDbEntity
  8
ProjItem
100
AcDbLine
 10
-367.093
 20
74.137
 30
0
 11
-371.603
 21
74.137
 31
0
  0
LINE
  5
349
330
112
100
AcDbEntity
  8
ProjItem
100
AcDbLine
 10
-371.603
 20
74.0779
 30
0
 11
-371.603
 21
74.137
 31
0
  0
LINE
  5
34A
330
112
100
AcDbEntity
  8
ProjItem
100
AcDbLine
 10
-339.103
 20
74.0779
 30
0
 11
-371.603
 21
74.0779
 31
0
  0
ELLIPSE
  5
34B
330
112
100
AcDbEntity
  8
ProjItem
100
AcDbEllipse
 10
-365.603
 20
74.1179
 30
0
 11
-1.5
 21
9.18485e-17
 31
0
 40
0.00547325
 41
-0
 42
-3.14159
  0
ELLIPSE
  5
34C
330
112
100
AcDbEntity
  8
ProjItem
100
AcDbEllipse
 10
-365.603
 20
74.1179
 30
0
 11
-1.5
 21
9.18485e-17
 31
0
 40
0.00547325
 41
-0.115534
 42
-0
  0
ELLIPSE
  5
34D
330
112
100
AcDbEntity
  8
ProjItem
100
AcDbEllipse
 10
-365.603
 20
74.1179
 30
0
 11
-1.5
 21
9.18485e-17
 31
0
 40
0.00547325
 41
-3.14159
 42
-3.02606
  0
ELLIPSE
  5
34E
330
112
100
AcDbEntity
  8
ProjItem
100
AcDbEllipse
 10
-356.603
 20
74.1179
 30
0
 11
-1.6
 21
9.79717e-17
 31
0
 40
0.00547325
 41
-0
 42
-3.14159
  0
ELLIPSE
  5
34F
330
112
100
AcDbEntity
  8
ProjItem
100
AcDbEllipse
 10
-356.603
 20
74.1179
 30
0
 11
-1.6
 21
9.79717e-17
 31
0
 40
0.00547325
 41
-3.14159
 42
-0
  0
LINE
  5
350
330
112
100
AcDbEntity
  8
ProjItem
100
AcDbLine
 10
-313.353
 20
74.1042
 30
0
 11
-324.103
 21
74.1042
 31
0
  0
LINE
  5
351
330
112
100
AcDbEntity
  8
ProjItem
100
AcDbLine
 10
-339.103
 20
74.1042
 30
0
 11
-349.853
 21
74.1042
 31
0
  0
LINE
  5
352
330
112
100
AcDbEntity
  8
ProjItem
100
AcDbLine
 10
-339.103
 20
72.0615
 30
0
 11
-339.103
 21
71.5643
 31
0
  0
LINE
  5
353
330
112
100
AcDbEntity
  8
ProjItem
100
AcDbLine
 10
-324.103
 20
72.0615
 30
0
 11
-339.103
 21
72.0615
 31
0
  0
LINE
  5
354
330
112
100
AcDbEntity
  8
ProjItem
100
AcDbLine
 10
-339.103
 20
72.0615
 30
0
 11
-339.103
 21
75.5615
 31
0
  0
LINE
  5
355
330
112
100
AcDbEntity
  8
ProjItem
100
AcDbLine
 10
-339.103
 20
76.0642
 30
0
 11
-339.103
 21
75.5615
 31
0
  0
LINE
  5
356
330
112
100
AcDbEntity
  8
ProjItem
100
AcDbLine
 10
-339.103
 20
75.5615
 30
0
 11
-324.103
 21
75.5615
 31
0
  0
LINE
  5
357
330
112
100
AcDbEntity
  8
ProjItem
100
AcDbLine
 10
-349.853
 20
74.1042
 30
0
 11
-349.853
 21
75.9771
 31
0
  0
LINE
  5
358
330
112
100
AcDbEntity
  8
ProjItem
100
AcDbLine
 10
-371.603
 20
71.578
 30
0
 11
-371.603
 21
74.0779
 31
0
  0
ELLIPSE
  5
359
330
112
100
AcDbEntity
  8
ProjItem
100
AcDbEllipse
 10
-331.603
 20
219.849
 30
0
 11
145
 21
-7.23533e-12
 31
0
 40
0.999985
 41
-5.70798
 42
-5.45407
  0
ELLIPSE
  5
35A
330
112
100
AcDbEntity
  8
ProjItem
100
AcDbEllipse
 10
-331.603
 20
219.849
 30
0
 11
145
 21
-7.23533e-12
 31
0
 40
0.999985
 41
-0
 42
-5.81157
  0
ELLIPSE
  5
35B
330
112
100
AcDbEntity
  8
ProjItem
100
AcDbEllipse
 10
-331.603
 20
219.849
 30
0
 11
145
 21
-7.23533e-12
 31
0
 40
0.999985
 41
-3.61321
 42
-3.14159
  0
ELLIPSE
  5
35C
330
112
100
AcDbEntity
  8
ProjItem
100
AcDbEllipse
 10
-331.603
 20
219.849
 30
0
 11
145
 21
-7.23533e-12
 31
0
 40
0.999985
 41
-5.45407
 42
-3.7168
  0
ELLIPSE
  5
35D
330
112
100
AcDbEntity
  8
ProjItem
100
AcDbEllipse
 10
-331.603
 20
219.822
 30
0
 11
-145
 21
7.25308e-12
 31
0
 40
0.999985
 41
3.97071
 42
5.70791
  0
ELLIPSE
  5
35E
330
112
100
AcDbEntity
  8
ProjItem
100
AcDbEllipse
 10
-331.603
 20
219.822
 30
0
 11
-145
 21
7.25308e-12
 31
0
 40
0.999985
 41
5.81141
 42
0
  0
ELLIPSE
  5
35F
330
112
100
AcDbEntity
  8
ProjItem
100
AcDbEllipse
 10
-331.603
 20
219.822
 30
0
 11
-145
 21
7.25308e-12
 31
0
 40
0.999985
 41
0
 42
1.51905
  0
ELLIPSE
  5
360
330
112
100
AcDbEntity
  8
ProjItem
100
AcDbEllipse
 10
-331.603
 20
219.822
 30
0
 11
-145
 21
7.25308e-12
 31
0
 40
0.999985
 41
1.62254
 42
3.14159
  0
ELLIPSE
  5
361
330
112
100
AcDbEntity
  8
ProjItem
100
AcDbEllipse
 10
-331.603
 20
219.822
 30
0
 11
-145
 21
7.25308e-12
 31
0
 40
0.999985
 41
3.14159
 42
3.61337
  0
ELLIPSE
  5
362
330
112
100
AcDbEntity
  8
ProjItem
100
AcDbEllipse
 10
-331.603
 20
219.822
 30
0
 11
-145
 21
7.25308e-12
 31
0
 40
0.999985
 41
3.71686
 42
3.97071
  0
ELLIPSE
  5
363
330
112
100
AcDbEntity
  8
ProjItem
100
AcDbEllipse
 10
-331.603
 20
219.819
 30
0
 11
144.5
 21
-7.21038e-12
 31
0
 40
0.999985
 41
-5.70772
 42
-5.45407
  0
ELLIPSE
  5
364
330
112
100
AcDbEntity
  8
ProjItem
100
AcDbEllipse
 10
-331.603
 20
219.819
 30
0
 11
144.5
 21
-7.21038e-12
 31
0
 40
0.999985
 41
-1.51887
 42
-5.81157
  0
ELLIPSE
  5
365
330
112
100
AcDbEntity
  8
ProjItem
100
AcDbEllipse
 10
-331.603
 20
219.819
 30
0
 11
144.5
 21
-7.21038e-12
 31
0
 40
0.999985
 41
-3.61321
 42
-1.62272
  0
ELLIPSE
  5
366
330
112
100
AcDbEntity
  8
ProjItem
100
AcDbEllipse
 10
-331.603
 20
219.819
 30
0
 11
144.5
 21
-7.21038e-12
 31
0
 40
0.999985
 41
-5.45407
 42
-3.71706
  0
LINE
  5
367
330
112
100
AcDbEntity
  8
ProjItem
100
AcDbLine
 10
-463.135
 20
287.091
 30
0
 11
-462.702
 21
286.838
 31
0
  0
LINE
  5
368
330
112
100
AcDbEntity
  8
ProjItem
100
AcDbLine
 10
-463.135
 20
287.105
 30
0
 11
-463.135
 21
287.091
 31
0
  0
LINE
  5
369
330
112
100
AcDbEntity
  8
ProjItem
100
AcDbLine
 10
-459.671
 20
285.088
 30
0
 11
-459.238
 21
284.841
 31
0
  0
LINE
  5
36A
330
112
100
AcDbEntity
  8
ProjItem
100
AcDbLine
 10
-462.702
 20
286.838
 30
0
 11
-459.671
 21
285.088
 31
0
  0
LINE
  5
36B
330
112
100
AcDbEntity
  8
ProjItem
100
AcDbLine
 10
-455.635
 20
300.081
 30
0
 11
-463.135
 21
287.091
 31
0
  0
LINE
  5
36C
330
112
100
AcDbEntity
  8
ProjItem
100
AcDbLine
 10
-455.635
 20
300.095
 30
0
 11
-455.635
 21
300.081
 31
0
  0
LINE
  5
36D
330
112
100
AcDbEntity
  8
ProjItem
100
AcDbLine
 10
-455.635
 20
300.095
 30
0
 11
-439.385
 21
328.24
 31
0
  0
LINE
  5
36E
330
112
100
AcDbEntity
  8
ProjItem
100
AcDbLine
 10
-439.385
 20
328.299
 30
0
 11
-439.385
 21
328.24
 31
0
  0
LINE
  5
36F
330
112
100
AcDbEntity
  8
ProjItem
100
AcDbLine
 10
-439.385
 20
328.299
 30
0
 11
-479.385
 21
259.018
 31
0
  0
LINE
  5
370
330
112
100
AcDbEntity
  8
ProjItem
100
AcDbLine
 10
-479.385
 20
259.018
 30
0
 11
-479.385
 21
258.959
 31
0
  0
LINE
  5
371
330
112
100
AcDbEntity
  8
ProjItem
100
AcDbLine
 10
-463.135
 20
287.105
 30
0
 11
-479.385
 21
258.959
 31
0
  0
ELLIPSE
  5
372
330
112
100
AcDbEntity
  8
ProjItem
100
AcDbEllipse
 10
-446.885
 20
315.29
 30
0
 11
-1.49998
 21
-2.59809
 31
0
 40
0.00273662
 41
-6.28045
 42
-3.14633
  0
ELLIPSE
  5
373
330
112
100
AcDbEntity
  8
ProjItem
100
AcDbEllipse
 10
-446.885
 20
315.29
 30
0
 11
-1.49998
 21
-2.59809
 31
0
 40
0.00273662
 41
-0.00474001
 42
-6.28045
  0
ELLIPSE
  5
374
330
112
100
AcDbEntity
  8
ProjItem
100
AcDbEllipse
 10
-446.885
 20
315.29
 30
0
 11
-1.49998
 21
-2.59809
 31
0
 40
0.00273662
 41
-3.14433
 42
-0.00474001
  0
ELLIPSE
  5
375
330
112
100
AcDbEntity
  8
ProjItem
100
AcDbEllipse
 10
-446.885
 20
315.29
 30
0
 11
-1.49998
 21
-2.59809
 31
0
 40
0.00273662
 41
-3.14633
 42
-3.14433
  0
ELLIPSE
  5
376
330
112
100
AcDbEntity
  8
ProjItem
100
AcDbEllipse
 10
-471.885
 20
271.989
 30
0
 11
-1.49998
 21
-2.59809
 31
0
 40
0.00273662
 41
-3.14433
 42
-0.00474001
  0
ELLIPSE
  5
377
330
112
100
AcDbEntity
  8
ProjItem
100
AcDbEllipse
 10
-471.885
 20
271.989
 30
0
 11
-1.49998
 21
-2.59809
 31
0
 40
0.00273662
 41
-3.14633
 42
-3.14433
  0
ELLIPSE
  5
378
330
112
100
AcDbEntity
  8
ProjItem
100
AcDbEllipse
 10
-471.885
 20
271.989
 30
0
 11
-1.49998
 21
-2.59809
 31
0
 40
0.00273662
 41
-6.28045
 42
-3.14633
  0
ELLIPSE
  5
379
330
112
100
AcDbEntity
  8
ProjItem
100
AcDbEllipse
 10
-471.885
 20
271.989
 30
0
 11
-1.49998
 21
-2.59809
 31
0
 40
0.00273662
 41
-0.00474001
 42
-6.28045
  0
LINE
  5
37A
330
112
100
AcDbEntity
  8
ProjItem
100
AcDbLine
 10
-459.238
 20
284.841
 30
0
 11
-451.738
 21
297.831
 31
0
  0
LINE
  5
37B
330
112
100
AcDbEntity
  8
ProjItem
100
AcDbLine
 10
-451.738
 20
297.831
 30
0
 11
-451.738
 21
297.835
 31
0
  0
LINE
  5
37C
330
112
100
AcDbEntity
  8
ProjItem
100
AcDbLine
 10
-479.385
 20
258.959
 30
0
 11
-477.22
 21
257.709
 31
0
  0
LINE
  5
37D
330
112
100
AcDbEntity
  8
ProjItem
100
AcDbLine
 10
-460.977
 20
285.842
 30
0
 11
-477.22
 21
257.709
 31
0
  0
LINE
  5
37E
330
112
100
AcDbEntity
  8
ProjItem
100
AcDbLine
 10
-455.202
 20
299.828
 30
0
 11
-455.635
 21
300.081
 31
0
  0
LINE
  5
37F
330
112
100
AcDbEntity
  8
ProjItem
100
AcDbLine
 10
-462.702
 20
286.838
 30
0
 11
-455.202
 21
299.828
 31
0
  0
LINE
  5
380
330
112
100
AcDbEntity
  8
ProjItem
100
AcDbLine
 10
-455.202
 20
299.828
 30
0
 11
-452.171
 21
298.078
 31
0
  0
LINE
  5
381
330
112
100
AcDbEntity
  8
ProjItem
100
AcDbLine
 10
-451.738
 20
297.831
 30
0
 11
-452.171
 21
298.078
 31
0
  0
SPLINE
  5
382
330
112
100
AcDbEntity
  8
ProjItem
100
AcDbSpline
210
0
220
0
230
1
 70
8
 71
1
 72
4
 73
2
 74
0
 40
0.275603
 40
0.275603
 40
0.283033
 40
0.283033
 10
-453.257
 20
298.721
 30
0
 10
-453.303
 20
298.748
 30
0
  0
LINE
  5
383
330
112
100
AcDbEntity
  8
ProjItem
100
AcDbLine
 10
-453.303
 20
298.748
 30
0
 11
-453.47
 21
298.845
 31
0
  0
LINE
  5
384
330
112
100
AcDbEntity
  8
ProjItem
100
AcDbLine
 10
-453.47
 20
298.845
 30
0
 11
-455.635
 21
300.095
 31
0
  0
LINE
  5
385
330
112
100
AcDbEntity
  8
ProjItem
100
AcDbLine
 10
-452.171
 20
298.078
 30
0
 11
-459.671
 21
285.088
 31
0
  0
LINE
  5
386
330
112
100
AcDbEntity
  8
ProjItem
100
AcDbLine
 10
-453.47
 20
298.845
 30
0
 11
-437.22
 21
326.99
 31
0
  0
LINE
  5
387
330
112
100
AcDbEntity
  8
ProjItem
100
AcDbLine
 10
-439.385
 20
328.24
 30
0
 11
-437.22
 21
326.99
 31
0
  0
LINE
  5
388
330
112
100
AcDbEntity
  8
ProjItem
100
AcDbLine
 10
-437.22
 20
327.049
 30
0
 11
-439.385
 21
328.299
 31
0
  0
LINE
  5
389
330
112
100
AcDbEntity
  8
ProjItem
100
AcDbLine
 10
-437.22
 20
326.99
 30
0
 11
-437.22
 21
327.049
 31
0
  0
LINE
  5
38A
330
112
100
AcDbEntity
  8
ProjItem
100
AcDbLine
 10
-207.571
 20
300.081
 30
0
 11
-208.004
 21
299.828
 31
0
  0
LINE
  5
38B
330
112
100
AcDbEntity
  8
ProjItem
100
AcDbLine
 10
-207.571
 20
300.095
 30
0
 11
-207.571
 21
300.081
 31
0
  0
LINE
  5
38C
330
112
100
AcDbEntity
  8
ProjItem
100
AcDbLine
 10
-207.571
 20
300.095
 30
0
 11
-209.736
 21
298.845
 31
0
  0
LINE
  5
38D
330
112
100
AcDbEntity
  8
ProjItem
100
AcDbLine
 10
-209.903
 20
298.748
 30
0
 11
-209.736
 21
298.845
 31
0
  0
SPLINE
  5
38E
330
112
100
AcDbEntity
  8
ProjItem
100
AcDbSpline
210
0
220
0
230
1
 70
8
 71
1
 72
4
 73
2
 74
0
 40
0
 40
0
 40
0.00743026
 40
0.00743026
 10
-209.903
 20
298.748
 30
0
 10
-209.949
 20
298.721
 30
0
  0
LINE
  5
38F
330
112
100
AcDbEntity
  8
ProjItem
100
AcDbLine
 10
-211.468
 20
297.831
 30
0
 11
-211.468
 21
297.835
 31
0
  0
LINE
  5
390
330
112
100
AcDbEntity
  8
ProjItem
100
AcDbLine
 10
-211.035
 20
298.078
 30
0
 11
-211.468
 21
297.831
 31
0
  0
LINE
  5
391
330
112
100
AcDbEntity
  8
ProjItem
100
AcDbLine
 10
-208.004
 20
299.828
 30
0
 11
-211.035
 21
298.078
 31
0
  0
LINE
  5
392
330
112
100
AcDbEntity
  8
ProjItem
100
AcDbLine
 10
-200.071
 20
287.091
 30
0
 11
-207.571
 21
300.081
 31
0
  0
LINE
  5
393
330
112
100
AcDbEntity
  8
ProjItem
100
AcDbLine
 10
-200.071
 20
287.105
 30
0
 11
-200.071
 21
287.091
 31
0
  0
LINE
  5
394
330
112
100
AcDbEntity
  8
ProjItem
100
AcDbLine
 10
-200.071
 20
287.105
 30
0
 11
-183.821
 21
258.959
 31
0
  0
LINE
  5
395
330
112
100
AcDbEntity
  8
ProjItem
100
AcDbLine
 10
-183.821
 20
259.018
 30
0
 11
-183.821
 21
258.959
 31
0
  0
LINE
  5
396
330
112
100
AcDbEntity
  8
ProjItem
100
AcDbLine
 10
-183.821
 20
259.018
 30
0
 11
-223.821
 21
328.299
 31
0
  0
LINE
  5
397
330
112
100
AcDbEntity
  8
ProjItem
100
AcDbLine
 10
-223.821
 20
328.299
 30
0
 11
-223.821
 21
328.24
 31
0
  0
LINE
  5
398
330
112
100
AcDbEntity
  8
ProjItem
100
AcDbLine
 10
-207.571
 20
300.095
 30
0
 11
-223.821
 21
328.24
 31
0
  0
ELLIPSE
  5
399
330
112
100
AcDbEntity
  8
ProjItem
100
AcDbEllipse
 10
-191.321
 20
271.989
 30
0
 11
-1.49998
 21
2.59809
 31
0
 40
0.00273662
 41
-3.14433
 42
-3.13685
  0
ELLIPSE
  5
39A
330
112
100
AcDbEntity
  8
ProjItem
100
AcDbEllipse
 10
-191.321
 20
271.989
 30
0
 11
-1.49998
 21
2.59809
 31
0
 40
0.00273662
 41
-6.27845
 42
-3.14433
  0
ELLIPSE
  5
39B
330
112
100
AcDbEntity
  8
ProjItem
100
AcDbEllipse
 10
-191.321
 20
271.989
 30
0
 11
-1.49998
 21
2.59809
 31
0
 40
0.00273662
 41
-6.28045
 42
-6.27845
  0
ELLIPSE
  5
39C
330
112
100
AcDbEntity
  8
ProjItem
100
AcDbEllipse
 10
-191.321
 20
271.989
 30
0
 11
-1.49998
 21
2.59809
 31
0
 40
0.00273662
 41
-3.13685
 42
-6.28045
  0
ELLIPSE
  5
39D
330
112
100
AcDbEntity
  8
ProjItem
100
AcDbEllipse
 10
-216.321
 20
315.29
 30
0
 11
-1.49998
 21
2.59809
 31
0
 40
0.00273662
 41
-6.28045
 42
-6.27845
  0
ELLIPSE
  5
39E
330
112
100
AcDbEntity
  8
ProjItem
100
AcDbEllipse
 10
-216.321
 20
315.29
 30
0
 11
-1.49998
 21
2.59809
 31
0
 40
0.00273662
 41
-3.13685
 42
-6.28045
  0
ELLIPSE
  5
39F
330
112
100
AcDbEntity
  8
ProjItem
100
AcDbEllipse
 10
-216.321
 20
315.29
 30
0
 11
-1.49998
 21
2.59809
 31
0
 40
0.00273662
 41
-3.14433
 42
-3.13685
  0
ELLIPSE
  5
3A0
330
112
100
AcDbEntity
  8
ProjItem
100
AcDbEllipse
 10
-216.321
 20
315.29
 30
0
 11
-1.49998
 21
2.59809
 31
0
 40
0.00273662
 41
-6.27845
 42
-3.14433
  0
LINE
  5
3A1
330
112
100
AcDbEntity
  8
ProjItem
100
AcDbLine
 10
-211.468
 20
297.831
 30
0
 11
-203.968
 21
284.841
 31
0
  0
LINE
  5
3A2
330
112
100
AcDbEntity
  8
ProjItem
100
AcDbLine
 10
-223.821
 20
328.24
 30
0
 11
-225.986
 21
326.99
 31
0
  0
LINE
  5
3A3
330
112
100
AcDbEntity
  8
ProjItem
100
AcDbLine
 10
-209.736
 20
298.845
 30
0
 11
-225.986
 21
326.99
 31
0
  0
LINE
  5
3A4
330
112
100
AcDbEntity
  8
ProjItem
100
AcDbLine
 10
-225.986
 20
327.049
 30
0
 11
-223.821
 21
328.299
 31
0
  0
LINE
  5
3A5
330
112
100
AcDbEntity
  8
ProjItem
100
AcDbLine
 10
-225.986
 20
326.99
 30
0
 11
-225.986
 21
327.049
 31
0
  0
LINE
  5
3A6
330
112
100
AcDbEntity
  8
ProjItem
100
AcDbLine
 10
-200.504
 20
286.838
 30
0
 11
-200.071
 21
287.091
 31
0
  0
LINE
  5
3A7
330
112
100
AcDbEntity
  8
ProjItem
100
AcDbLine
 10
-208.004
 20
299.828
 30
0
 11
-200.504
 21
286.838
 31
0
  0
LINE
  5
3A8
330
112
100
AcDbEntity
  8
ProjItem
100
AcDbLine
 10
-200.504
 20
286.838
 30
0
 11
-203.535
 21
285.088
 31
0
  0
LINE
  5
3A9
330
112
100
AcDbEntity
  8
ProjItem
100
AcDbLine
 10
-203.968
 20
284.841
 30
0
 11
-203.535
 21
285.088
 31
0
  0
LINE
  5
3AA
330
112
100
AcDbEntity
  8
ProjItem
100
AcDbLine
 10
-203.535
 20
285.088
 30
0
 11
-211.035
 21
298.078
 31
0
  0
LINE
  5
3AB
330
112
100
AcDbEntity
  8
ProjItem
100
AcDbLine
 10
-202.229
 20
285.842
 30
0
 11
-185.986
 21
257.709
 31
0
  0
LINE
  5
3AC
330
112
100
AcDbEntity
  8
ProjItem
100
AcDbLine
 10
-183.821
 20
258.959
 30
0
 11
-185.986
 21
257.709
 31
0
  0
LINE
  5
3AD
330
112
100
AcDbEntity
  8
ProjItem
100
AcDbLine
 10
-296.113
 20
74.8042
 30
0
 11
-296.113
 21
74.1169
 31
0
  0
LINE
  5
3AE
330
112
100
AcDbEntity
  8
ProjItem
100
AcDbLine
 10
-299.093
 20
74.8042
 30
0
 11
-299.093
 21
74.1169
 31
0
  0
LINE
  5
3AF
330
112
100
AcDbEntity
  8
ProjItem
100
AcDbLine
 10
-367.093
 20
74.1169
 30
0
 11
-367.093
 21
74.8042
 31
0
  0
LINE
  5
3B0
330
112
100
AcDbEntity
  8
ProjItem
100
AcDbLine
 10
-364.113
 20
74.1169
 30
0
 11
-364.113
 21
74.8042
 31
0
  0
LINE
  5
3B1
330
112
100
AcDbEntity
  8
ProjItem
100
AcDbLine
 10
-476.603
 20
219.822
 30
0
 11
-476.603
 21
219.849
 31
0
  0
LINE
  5
3B2
330
112
100
AcDbEntity
  8
ProjItem
100
AcDbLine
 10
-186.603
 20
219.822
 30
0
 11
-186.603
 21
219.849
 31
0
  0
SPLINE
  5
3B3
330
112
100
AcDbEntity
  8
ProjItem001
100
AcDbSpline
210
0
220
0
230
1
 70
8
 71
2
 72
6
 73
3
 74
0
 40
1.24004
 40
1.24004
 40
1.24004
 40
1.288
 40
1.288
 40
1.288
 10
-26.4999
 20
77.0191
 30
0
 10
-26.5063
 20
75.8429
 30
0
 10
-26.5119
 20
74.8316
 30
0
  0
LINE
  5
3B4
330
112
100
AcDbEntity
  8
ProjItem001
100
AcDbLine
 10
-26.4926
 20
78.3469
 30
0
 11
-26.4999
 21
77.0191
 31
0
  0
LINE
  5
3B5
330
112
100
AcDbEntity
  8
ProjItem001
100
AcDbLine
 10
-26.4926
 20
78.3469
 30
0
 11
-25.9138
 21
184.106
 31
0
  0
SPLINE
  5
3B6
330
112
100
AcDbEntity
  8
ProjItem001
100
AcDbSpline
210
0
220
0
230
1
 70
8
 71
2
 72
30
 73
27
 74
0
 40
5.75959
 40
5.75959
 40
5.75959
 40
5.83439
 40
5.83439
 40
5.90919
 40
5.90919
 40
5.98399
 40
5.98399
 40
6.05879
 40
6.05879
 40
6.13359
 40
6.13359
 40
6.20839
 40
6.20839
 40
6.28319
 40
6.28319
 40
6.35799
 40
6.35799
 40
6.43278
 40
6.43278
 40
6.50758
 40
6.50758
 40
6.58238
 40
6.58238
 40
6.65718
 40
6.65718
 40
6.80678
 40
6.80678
 40
6.80678
 10
-25.8664
 20
192.767
 30
0
 10
-25.8675
 20
192.568
 30
0
 10
-25.8686
 20
192.369
 30
0
 10
-25.8698
 20
192.147
 30
0
 10
-25.871
 20
191.925
 30
0
 10
-25.8723
 20
191.681
 30
0
 10
-25.8737
 20
191.437
 30
0
 10
-25.8751
 20
191.172
 30
0
 10
-25.8766
 20
190.908
 30
0
 10
-25.8781
 20
190.625
 30
0
 10
-25.8797
 20
190.341
 30
0
 10
-25.8813
 20
190.04
 30
0
 10
-25.883
 20
189.74
 30
0
 10
-25.8847
 20
189.423
 30
0
 10
-25.8864
 20
189.106
 30
0
 10
-25.8882
 20
188.776
 30
0
 10
-25.89
 20
188.445
 30
0
 10
-25.8919
 20
188.102
 30
0
 10
-25.8938
 20
187.76
 30
0
 10
-25.8957
 20
187.407
 30
0
 10
-25.8977
 20
187.054
 30
0
 10
-25.8996
 20
186.693
 30
0
 10
-25.9016
 20
186.332
 30
0
 10
-25.9036
 20
185.964
 30
0
 10
-25.9056
 20
185.597
 30
0
 10
-25.9097
 20
184.855
 30
0
 10
-25.9138
 20
184.106
 30
0
  0
LINE
  5
3B7
330
112
100
AcDbEntity
  8
ProjItem001
100
AcDbLine
 10
-25.8664
 20
192.767
 30
0
 11
-25.5733
 21
246.322
 31
0
  0
LINE
  5
3B8
330
112
100
AcDbEntity
  8
ProjItem001
100
AcDbLine
 10
-25.5651
 20
247.805
 30
0
 11
-25.5733
 21
246.322
 31
0
  0
SPLINE
  5
3B9
330
112
100
AcDbEntity
  8
ProjItem001
100
AcDbSpline
210
0
220
0
230
1
 70
8
 71
2
 72
6
 73
3
 74
0
 40
6.04239
 40
6.04239
 40
6.04239
 40
6.09724
 40
6.09724
 40
6.09724
 10
-25.5208
 20
255.901
 30
0
 10
-25.5429
 20
251.877
 30
0
 10
-25.5651
 20
247.805
 30
0
  0
LINE
  5
3BA
330
112
100
AcDbEntity
  8
ProjItem001
100
AcDbLine
 10
-25.5208
 20
255.901
 30
0
 11
-25.5106
 21
257.763
 31
0
  0
LINE
  5
3BB
330
112
100
AcDbEntity
  8
ProjItem001
100
AcDbLine
 10
-25.1246
 20
328.294
 30
0
 11
-25.1213
 21
328.905
 31
0
  0
SPLINE
  5
3BC
330
112
100
AcDbEntity
  8
ProjItem001
100
AcDbSpline
210
0
220
0
230
1
 70
8
 71
2
 72
6
 73
3
 74
0
 40
5.42883
 40
5.42883
 40
5.42883
 40
5.47679
 40
5.47679
 40
5.47679
 10
-25.0945
 20
333.792
 30
0
 10
-25.1075
 20
331.413
 30
0
 10
-25.1213
 20
328.905
 30
0
  0
LINE
  5
3BD
330
112
100
AcDbEntity
  8
ProjItem001
100
AcDbLine
 10
-25.0937
 20
333.946
 30
0
 11
-25.0945
 21
333.792
 31
0
  0
LINE
  5
3BE
330
112
100
AcDbEntity
  8
ProjItem001
100
AcDbLine
 10
-25.0937
 20
333.946
 30
0
 11
-25.09
 21
334.622
 31
0
  0
LINE
  5
3BF
330
112
100
AcDbEntity
  8
ProjItem001
100
AcDbLine
 10
-25.09
 20
334.622
 30
0
 11
-20.09
 21
334.594
 31
0
  0
LINE
  5
3C0
330
112
100
AcDbEntity
  8
ProjItem001
100
AcDbLine
 10
-25.0945
 20
333.792
 30
0
 11
-20.0946
 21
333.765
 31
0
  0
LINE
  5
3C1
330
112
100
AcDbEntity
  8
ProjItem001
100
AcDbLine
 10
-20.0946
 20
333.765
 30
0
 11
-20.0937
 21
333.919
 31
0
  0
LINE
  5
3C2
330
112
100
AcDbEntity
  8
ProjItem001
100
AcDbLine
 10
-20.0937
 20
333.919
 30
0
 11
-25.0937
 21
333.946
 31
0
  0
SPLINE
  5
3C3
330
112
100
AcDbEntity
  8
ProjItem001
100
AcDbSpline
210
0
220
0
230
1
 70
8
 71
2
 72
6
 73
3
 74
0
 40
5.42883
 40
5.42883
 40
5.42883
 40
5.47679
 40
5.47679
 40
5.47679
 10
-20.0946
 20
333.765
 30
0
 10
-20.1076
 20
331.385
 30
0
 10
-20.1213
 20
328.878
 30
0
  0
LINE
  5
3C4
330
112
100
AcDbEntity
  8
ProjItem001
100
AcDbLine
 10
-20.1213
 20
328.878
 30
0
 11
-20.1247
 21
328.266
 31
0
  0
LINE
  5
3C5
330
112
100
AcDbEntity
  8
ProjItem001
100
AcDbLine
 10
-20.5107
 20
257.735
 30
0
 11
-20.5209
 21
255.874
 31
0
  0
SPLINE
  5
3C6
330
112
100
AcDbEntity
  8
ProjItem001
100
AcDbSpline
210
0
220
0
230
1
 70
8
 71
2
 72
6
 73
3
 74
0
 40
6.04239
 40
6.04239
 40
6.04239
 40
6.09724
 40
6.09724
 40
6.09724
 10
-20.5209
 20
255.874
 30
0
 10
-20.5429
 20
251.85
 30
0
 10
-20.5652
 20
247.778
 30
0
  0
LINE
  5
3C7
330
112
100
AcDbEntity
  8
ProjItem001
100
AcDbLine
 10
-20.5733
 20
246.294
 30
0
 11
-20.5652
 21
247.778
 31
0
  0
LINE
  5
3C8
330
112
100
AcDbEntity
  8
ProjItem001
100
AcDbLine
 10
-21.5
 20
76.9917
 30
0
 11
-21.4927
 21
78.3196
 31
0
  0
SPLINE
  5
3C9
330
112
100
AcDbEntity
  8
ProjItem001
100
AcDbSpline
210
0
220
0
230
1
 70
8
 71
2
 72
6
 73
3
 74
0
 40
1.24004
 40
1.24004
 40
1.24004
 40
1.288
 40
1.288
 40
1.288
 10
-21.5
 20
76.9917
 30
0
 10
-21.5064
 20
75.8155
 30
0
 10
-21.512
 20
74.8042
 30
0
  0
LINE
  5
3CA
330
112
100
AcDbEntity
  8
ProjItem001
100
AcDbLine
 10
-25.1213
 20
328.905
 30
0
 11
-20.1213
 21
328.878
 31
0
  0
LINE
  5
3CB
330
112
100
AcDbEntity
  8
ProjItem001
100
AcDbLine
 10
-20.5652
 20
247.778
 30
0
 11
-25.5651
 21
247.805
 31
0
  0
LINE
  5
3CC
330
112
100
AcDbEntity
  8
ProjItem001
100
AcDbLine
 10
-25.5733
 20
246.322
 30
0
 11
-20.5733
 21
246.294
 31
0
  0
LINE
  5
3CD
330
112
100
AcDbEntity
  8
ProjItem001
100
AcDbLine
 10
-20.5209
 20
255.874
 30
0
 11
-25.5208
 21
255.901
 31
0
  0
LINE
  5
3CE
330
112
100
AcDbEntity
  8
ProjItem001
100
AcDbLine
 10
-26.4999
 20
77.0191
 30
0
 11
-21.5
 21
76.9917
 31
0
  0
LINE
  5
3CF
330
112
100
AcDbEntity
  8
ProjItem001
100
AcDbLine
 10
-21.4927
 20
78.3196
 30
0
 11
-26.4926
 21
78.3469
 31
0
  0
LINE
  5
3D0
330
112
100
AcDbEntity
  8
ProjItem001
100
AcDbLine
 10
-26.5119
 20
74.8316
 30
0
 11
-21.512
 21
74.8042
 31
0
  0
ELLIPSE
  5
3D1
330
112
100
AcDbEntity
  8
ProjItem001
100
AcDbEllipse
 10
-22.9396
 20
270.739
 30
0
 11
-1.22948
 21
0.00672936
 31
0
 40
0.866025
 41
-0
 42
-5.85742
  0
ELLIPSE
  5
3D2
330
112
100
AcDbEntity
  8
ProjItem001
100
AcDbEllipse
 10
-22.9396
 20
270.739
 30
0
 11
-1.22948
 21
0.00672936
 31
0
 40
0.866025
 41
-1.5708
 42
-0
  0
ELLIPSE
  5
3D3
330
112
100
AcDbEntity
  8
ProjItem001
100
AcDbEllipse
 10
-22.9396
 20
270.739
 30
0
 11
-1.22948
 21
0.00672936
 31
0
 40
0.866025
 41
-3.14159
 42
-1.5708
  0
ELLIPSE
  5
3D4
330
112
100
AcDbEntity
  8
ProjItem001
100
AcDbEllipse
 10
-22.9396
 20
270.739
 30
0
 11
-1.22948
 21
0.00672936
 31
0
 40
0.866025
 41
-3.56736
 42
-3.14159
  0
ELLIPSE
  5
3D5
330
112
100
AcDbEntity
  8
ProjItem001
100
AcDbEllipse
 10
-22.7026
 20
314.04
 30
0
 11
-1.22948
 21
0.00672936
 31
0
 40
0.866025
 41
-3.14159
 42
-1.5708
  0
ELLIPSE
  5
3D6
330
112
100
AcDbEntity
  8
ProjItem001
100
AcDbEllipse
 10
-22.7026
 20
314.04
 30
0
 11
-1.22948
 21
0.00672936
 31
0
 40
0.866025
 41
-3.56736
 42
-3.14159
  0
ELLIPSE
  5
3D7
330
112
100
AcDbEntity
  8
ProjItem001
100
AcDbEllipse
 10
-22.7026
 20
314.04
 30
0
 11
-1.22948
 21
0.00672936
 31
0
 40
0.866025
 41
-6.28319
 42
-5.85742
  0
ELLIPSE
  5
3D8
330
112
100
AcDbEntity
  8
ProjItem001
100
AcDbEllipse
 10
-22.7026
 20
314.04
 30
0
 11
-1.22948
 21
0.00672936
 31
0
 40
0.866025
 41
-1.5708
 42
8.88178e-16
  0
LINE
  5
3D9
330
112
100
AcDbEntity
  8
ProjItem001
100
AcDbLine
 10
-26.5119
 20
74.8316
 30
0
 11
-26.5157
 21
74.1316
 31
0
  0
LINE
  5
3DA
330
112
100
AcDbEntity
  8
ProjItem001
100
AcDbLine
 10
-16.7295
 20
71.578
 30
0
 11
-14.2296
 21
71.5643
 31
0
  0
LINE
  5
3DB
330
112
100
AcDbEntity
  8
ProjItem001
100
AcDbLine
 10
-27.5294
 20
71.6371
 30
0
 11
-16.7295
 21
71.578
 31
0
  0
LINE
  5
3DC
330
112
100
AcDbEntity
  8
ProjItem001
100
AcDbLine
 10
-14.205
 20
76.0642
 30
0
 11
-14.9005
 21
76.068
 31
0
  0
LINE
  5
3DD
330
112
100
AcDbEntity
  8
ProjItem001
100
AcDbLine
 10
-16.7159
 20
74.0779
 30
0
 11
-27.5157
 21
74.137
 31
0
  0
LINE
  5
3DE
330
112
100
AcDbEntity
  8
ProjItem001
100
AcDbLine
 10
-13.7269
 20
72.0615
 30
0
 11
-14.2296
 21
71.5643
 31
0
  0
LINE
  5
3DF
330
112
100
AcDbEntity
  8
ProjItem001
100
AcDbLine
 10
-13.7269
 20
72.0615
 30
0
 11
-13.7077
 21
75.5615
 31
0
  0
LINE
  5
3E0
330
112
100
AcDbEntity
  8
ProjItem001
100
AcDbLine
 10
-14.205
 20
76.0642
 30
0
 11
-13.7077
 21
75.5615
 31
0
  0
SPLINE
  5
3E1
330
112
100
AcDbEntity
  8
ProjItem001
100
AcDbSpline
210
0
220
0
230
1
 70
8
 71
2
 72
6
 73
3
 74
0
 40
0.0278426
 40
0.0278426
 40
0.0278426
 40
0.283033
 40
0.283033
 40
0.283033
 10
-14.9005
 20
76.068
 30
0
 10
-15.802
 20
75.1751
 30
0
 10
-16.7148
 20
74.271
 30
0
  0
LINE
  5
3E2
330
112
100
AcDbEntity
  8
ProjItem001
100
AcDbLine
 10
-16.7148
 20
74.271
 30
0
 11
-16.7159
 21
74.0779
 31
0
  0
LINE
  5
3E3
330
112
100
AcDbEntity
  8
ProjItem001
100
AcDbLine
 10
-16.7295
 20
71.578
 30
0
 11
-16.7159
 21
74.0779
 31
0
  0
LINE
  5
3E4
330
112
100
AcDbEntity
  8
ProjItem001
100
AcDbLine
 10
-27.5157
 20
74.137
 30
0
 11
-27.5294
 21
71.6371
 31
0
  0
SPLINE
  5
3E5
330
112
100
AcDbEntity
  8
ProjItem001
100
AcDbSpline
210
0
220
0
230
1
 70
8
 71
1
 72
17
 73
15
 74
0
 40
3.88327
 40
3.88327
 40
3.93048
 40
3.97769
 40
4.02491
 40
4.07212
 40
4.11933
 40
4.16654
 40
4.21375
 40
4.26096
 40
4.30818
 40
4.35539
 40
4.4026
 40
4.44981
 40
4.49702
 40
4.54423
 40
4.54423
 10
-19.9272
 20
364.35
 30
0
 10
-19.9281
 20
364.189
 30
0
 10
-19.9307
 20
363.706
 30
0
 10
-19.9351
 20
362.903
 30
0
 10
-19.9412
 20
361.781
 30
0
 10
-19.9491
 20
360.343
 30
0
 10
-19.9587
 20
358.591
 30
0
 10
-19.97
 20
356.531
 30
0
 10
-19.9829
 20
354.165
 30
0
 10
-19.9975
 20
351.501
 30
0
 10
-20.0137
 20
348.543
 30
0
 10
-20.0315
 20
345.298
 30
0
 10
-20.0507
 20
341.774
 30
0
 10
-20.0715
 20
337.978
 30
0
 10
-20.0937
 20
333.919
 30
0
  0
SPLINE
  5
3E6
330
112
100
AcDbEntity
  8
ProjItem001
100
AcDbSpline
210
0
220
0
230
1
 70
8
 71
1
 72
17
 73
15
 74
0
 40
5.27004
 40
5.27004
 40
5.38088
 40
5.49173
 40
5.60258
 40
5.71343
 40
5.82428
 40
5.93513
 40
6.04598
 40
6.15683
 40
6.26768
 40
6.37853
 40
6.48937
 40
6.60022
 40
6.71107
 40
6.82192
 40
6.82192
 10
-20.5733
 20
246.294
 30
0
 10
-20.6602
 20
230.417
 30
0
 10
-20.7478
 20
214.411
 30
0
 10
-20.8351
 20
198.471
 30
0
 10
-20.9209
 20
182.793
 30
0
 10
-21.0042
 20
167.571
 30
0
 10
-21.084
 20
152.99
 30
0
 10
-21.1593
 20
139.23
 30
0
 10
-21.2292
 20
126.459
 30
0
 10
-21.2929
 20
114.835
 30
0
 10
-21.3494
 20
104.5
 30
0
 10
-21.3982
 20
95.5811
 30
0
 10
-21.4387
 20
88.1874
 30
0
 10
-21.4703
 20
82.41
 30
0
 10
-21.4927
 20
78.3196
 30
0
  0
SPLINE
  5
3E7
330
112
100
AcDbEntity
  8
ProjItem001
100
AcDbSpline
210
0
220
0
230
1
 70
8
 71
1
 72
17
 73
15
 74
0
 40
5.54151
 40
5.54151
 40
5.67259
 40
5.80367
 40
5.93475
 40
6.06583
 40
6.19691
 40
6.32799
 40
6.45907
 40
6.59015
 40
6.72124
 40
6.85232
 40
6.9834
 40
7.11448
 40
7.24556
 40
7.37664
 40
7.37664
 10
-21.0117
 20
74.8515
 30
0
 10
-21.0049
 20
76.0954
 30
0
 10
-20.9846
 20
79.8057
 30
0
 10
-20.9511
 20
85.9189
 30
0
 10
-20.9051
 20
94.3301
 30
0
 10
-20.8473
 20
104.895
 30
0
 10
-20.7786
 20
117.432
 30
0
 10
-20.7004
 20
131.726
 30
0
 10
-20.6139
 20
147.532
 30
0
 10
-20.5206
 20
164.58
 30
0
 10
-20.4221
 20
182.575
 30
0
 10
-20.3201
 20
201.21
 30
0
 10
-20.2163
 20
220.165
 30
0
 10
-20.1126
 20
239.114
 30
0
 10
-20.0107
 20
257.733
 30
0
  0
SPLINE
  5
3E8
330
112
100
AcDbEntity
  8
ProjItem001
100
AcDbSpline
210
0
220
0
230
1
 70
8
 71
1
 72
17
 73
15
 74
0
 40
7.95689
 40
7.95689
 40
8.00876
 40
8.06063
 40
8.11251
 40
8.16438
 40
8.21625
 40
8.26812
 40
8.31999
 40
8.37187
 40
8.42374
 40
8.47561
 40
8.52748
 40
8.57936
 40
8.63123
 40
8.6831
 40
8.6831
 10
-19.6247
 20
328.264
 30
0
 10
-19.5982
 20
333.11
 30
0
 10
-19.5733
 20
337.652
 30
0
 10
-19.5502
 20
341.877
 30
0
 10
-19.5288
 20
345.773
 30
0
 10
-19.5094
 20
349.331
 30
0
 10
-19.4918
 20
352.541
 30
0
 10
-19.4762
 20
355.393
 30
0
 10
-19.4626
 20
357.881
 30
0
 10
-19.451
 20
359.998
 30
0
 10
-19.4415
 20
361.737
 30
0
 10
-19.434
 20
363.095
 30
0
 10
-19.4287
 20
364.068
 30
0
 10
-19.4255
 20
364.652
 30
0
 10
-19.4245
 20
364.847
 30
0
  0
SPLINE
  5
3E9
330
112
100
AcDbEntity
  8
ProjItem001
100
AcDbSpline
210
0
220
0
230
1
 70
8
 71
1
 72
17
 73
15
 74
0
 40
3.88327
 40
3.88327
 40
3.95357
 40
4.02386
 40
4.09416
 40
4.16445
 40
4.23475
 40
4.30504
 40
4.37534
 40
4.44563
 40
4.51593
 40
4.58622
 40
4.65652
 40
4.72681
 40
4.79711
 40
4.8674
 40
4.8674
 10
-14.4245
 20
364.82
 30
0
 10
-14.4265
 20
364.462
 30
0
 10
-14.4324
 20
363.389
 30
0
 10
-14.4421
 20
361.607
 30
0
 10
-14.4557
 20
359.125
 30
0
 10
-14.473
 20
355.955
 30
0
 10
-14.4941
 20
352.113
 30
0
 10
-14.5187
 20
347.617
 30
0
 10
-14.5467
 20
342.49
 30
0
 10
-14.5781
 20
336.757
 30
0
 10
-14.6127
 20
330.446
 30
0
 10
-14.6502
 20
323.589
 30
0
 10
-14.6905
 20
316.22
 30
0
 10
-14.7335
 20
308.374
 30
0
 10
-14.7788
 20
300.091
 30
0
  0
SPLINE
  5
3EA
330
112
100
AcDbEntity
  8
ProjItem001
100
AcDbSpline
210
0
220
0
230
1
 70
8
 71
1
 72
17
 73
15
 74
0
 40
4.97156
 40
4.97156
 40
5.11504
 40
5.25852
 40
5.402
 40
5.54548
 40
5.68897
 40
5.83245
 40
5.97593
 40
6.11941
 40
6.26289
 40
6.40637
 40
6.54985
 40
6.69333
 40
6.83681
 40
6.98029
 40
6.98029
 10
-14.8499
 20
287.101
 30
0
 10
-14.9542
 20
268.043
 30
0
 10
-15.0639
 20
247.995
 30
0
 10
-15.1768
 20
227.367
 30
0
 10
-15.2906
 20
206.585
 30
0
 10
-15.4029
 20
186.075
 30
0
 10
-15.5113
 20
166.258
 30
0
 10
-15.6138
 20
147.542
 30
0
 10
-15.7081
 20
130.311
 30
0
 10
-15.7923
 20
114.92
 30
0
 10
-15.8647
 20
101.685
 30
0
 10
-15.9239
 20
90.8775
 30
0
 10
-15.9685
 20
82.7202
 30
0
 10
-15.9978
 20
77.3805
 30
0
 10
-16.011
 20
74.9681
 30
0
  0
SPLINE
  5
3EB
330
112
100
AcDbEntity
  8
ProjItem001
100
AcDbSpline
210
0
220
0
230
1
 70
8
 71
1
 72
17
 73
15
 74
0
 40
5.58626
 40
5.58626
 40
5.72986
 40
5.87346
 40
6.01705
 40
6.16065
 40
6.30425
 40
6.44784
 40
6.59144
 40
6.73504
 40
6.87864
 40
7.02223
 40
7.16583
 40
7.30943
 40
7.45302
 40
7.59662
 40
7.59662
 10
-15.5082
 20
75.466
 30
0
 10
-15.4951
 20
77.8769
 30
0
 10
-15.4659
 20
83.2097
 30
0
 10
-15.4213
 20
91.3545
 30
0
 10
-15.3622
 20
102.144
 30
0
 10
-15.2899
 20
115.355
 30
0
 10
-15.2058
 20
130.717
 30
0
 10
-15.1117
 20
147.913
 30
0
 10
-15.0095
 20
166.589
 30
0
 10
-14.9013
 20
186.361
 30
0
 10
-14.7893
 20
206.822
 30
0
 10
-14.6758
 20
227.55
 30
0
 10
-14.5633
 20
248.119
 30
0
 10
-14.4539
 20
268.105
 30
0
 10
-14.3499
 20
287.098
 30
0
  0
SPLINE
  5
3EC
330
112
100
AcDbEntity
  8
ProjItem001
100
AcDbSpline
210
0
220
0
230
1
 70
8
 71
1
 72
17
 73
15
 74
0
 40
7.70127
 40
7.70127
 40
7.7714
 40
7.84153
 40
7.91166
 40
7.98179
 40
8.05192
 40
8.12205
 40
8.19219
 40
8.26232
 40
8.33245
 40
8.40258
 40
8.47271
 40
8.54284
 40
8.61297
 40
8.6831
 40
8.6831
 10
-14.2788
 20
300.088
 30
0
 10
-14.2338
 20
308.31
 30
0
 10
-14.1912
 20
316.097
 30
0
 10
-14.1512
 20
323.411
 30
0
 10
-14.1139
 20
330.216
 30
0
 10
-14.0796
 20
336.477
 30
0
 10
-14.0485
 20
342.165
 30
0
 10
-14.0207
 20
347.252
 30
0
 10
-13.9963
 20
351.712
 30
0
 10
-13.9754
 20
355.524
 30
0
 10
-13.9582
 20
358.669
 30
0
 10
-13.9447
 20
361.131
 30
0
 10
-13.935
 20
362.898
 30
0
 10
-13.9292
 20
363.962
 30
0
 10
-13.9273
 20
364.317
 30
0
  0
LINE
  5
3ED
330
112
100
AcDbEntity
  8
ProjItem001
100
AcDbLine
 10
-13.0499
 20
287.091
 30
0
 11
-12.5513
 21
286.838
 31
0
  0
LINE
  5
3EE
330
112
100
AcDbEntity
  8
ProjItem001
100
AcDbLine
 10
-15.5499
 20
287.105
 30
0
 11
-13.0499
 21
287.091
 31
0
  0
SPLINE
  5
3EF
330
112
100
AcDbEntity
  8
ProjItem001
100
AcDbSpline
210
0
220
0
230
1
 70
8
 71
1
 72
4
 73
2
 74
0
 40
0.169349
 40
0.169349
 40
0.25519
 40
0.25519
 10
-14.3606
 20
285.151
 30
0
 10
-13.7578
 20
284.845
 30
0
  0
LINE
  5
3F0
330
112
100
AcDbEntity
  8
ProjItem001
100
AcDbLine
 10
-13.0622
 20
284.841
 30
0
 11
-13.7578
 21
284.845
 31
0
  0
LINE
  5
3F1
330
112
100
AcDbEntity
  8
ProjItem001
100
AcDbLine
 10
-12.5609
 20
285.088
 30
0
 11
-13.0622
 21
284.841
 31
0
  0
LINE
  5
3F2
330
112
100
AcDbEntity
  8
ProjItem001
100
AcDbLine
 10
-12.5513
 20
286.838
 30
0
 11
-12.5609
 21
285.088
 31
0
  0
LINE
  5
3F3
330
112
100
AcDbEntity
  8
ProjItem001
100
AcDbLine
 10
-12.9788
 20
300.081
 30
0
 11
-13.0499
 21
287.091
 31
0
  0
LINE
  5
3F4
330
112
100
AcDbEntity
  8
ProjItem001
100
AcDbLine
 10
-15.4788
 20
300.095
 30
0
 11
-12.9788
 21
300.081
 31
0
  0
LINE
  5
3F5
330
112
100
AcDbEntity
  8
ProjItem001
100
AcDbLine
 10
-15.4788
 20
300.095
 30
0
 11
-15.3247
 21
328.24
 31
0
  0
LINE
  5
3F6
330
112
100
AcDbEntity
  8
ProjItem001
100
AcDbLine
 10
-26.1246
 20
328.299
 30
0
 11
-15.3247
 21
328.24
 31
0
  0
LINE
  5
3F7
330
112
100
AcDbEntity
  8
ProjItem001
100
AcDbLine
 10
-26.1246
 20
328.299
 30
0
 11
-26.5038
 21
259.018
 31
0
  0
LINE
  5
3F8
330
112
100
AcDbEntity
  8
ProjItem001
100
AcDbLine
 10
-26.5038
 20
259.018
 30
0
 11
-15.7039
 21
258.959
 31
0
  0
LINE
  5
3F9
330
112
100
AcDbEntity
  8
ProjItem001
100
AcDbLine
 10
-15.5499
 20
287.105
 30
0
 11
-15.7039
 21
258.959
 31
0
  0
ELLIPSE
  5
3FA
330
112
100
AcDbEntity
  8
ProjItem001
100
AcDbEllipse
 10
-22.6957
 20
315.29
 30
0
 11
-2.99996
 21
0.0164197
 31
0
 40
0.866025
 41
-4.71239
 42
-1.5708
  0
ELLIPSE
  5
3FB
330
112
100
AcDbEntity
  8
ProjItem001
100
AcDbEllipse
 10
-22.6957
 20
315.29
 30
0
 11
-2.99996
 21
0.0164197
 31
0
 40
0.866025
 41
-1.5708
 42
-4.71239
  0
ELLIPSE
  5
3FC
330
112
100
AcDbEntity
  8
ProjItem001
100
AcDbEllipse
 10
-22.9327
 20
271.989
 30
0
 11
-2.99996
 21
0.0164197
 31
0
 40
0.866025
 41
-1.5708
 42
-4.71239
  0
ELLIPSE
  5
3FD
330
112
100
AcDbEntity
  8
ProjItem001
100
AcDbEllipse
 10
-22.9327
 20
271.989
 30
0
 11
-2.99996
 21
0.0164197
 31
0
 40
0.866025
 41
-4.71239
 42
-1.5708
  0
ELLIPSE
  5
3FE
330
112
100
AcDbEntity
  8
ProjItem001
100
AcDbEllipse
 10
-22.9366
 20
271.289
 30
0
 11
-1.59998
 21
0.0087572
 31
0
 40
0.866025
 41
-0
 42
-4.71239
  0
ELLIPSE
  5
3FF
330
112
100
AcDbEntity
  8
ProjItem001
100
AcDbEllipse
 10
-22.9366
 20
271.289
 30
0
 11
-1.59998
 21
0.0087572
 31
0
 40
0.866025
 41
-1.5708
 42
-0
  0
ELLIPSE
  5
400
330
112
100
AcDbEntity
  8
ProjItem001
100
AcDbEllipse
 10
-22.9366
 20
271.289
 30
0
 11
-1.59998
 21
0.0087572
 31
0
 40
0.866025
 41
-3.14159
 42
-1.5708
  0
ELLIPSE
  5
401
330
112
100
AcDbEntity
  8
ProjItem001
100
AcDbEllipse
 10
-22.9366
 20
271.289
 30
0
 11
-1.59998
 21
0.0087572
 31
0
 40
0.866025
 41
-4.71239
 42
-3.14159
  0
ELLIPSE
  5
402
330
112
100
AcDbEntity
  8
ProjItem001
100
AcDbEllipse
 10
-22.9396
 20
270.739
 30
0
 11
1.59998
 21
-0.0087572
 31
0
 40
0.866025
 41
1.5708
 42
2.9418
  0
ELLIPSE
  5
403
330
112
100
AcDbEntity
  8
ProjItem001
100
AcDbEllipse
 10
-22.9396
 20
270.739
 30
0
 11
1.59998
 21
-0.0087572
 31
0
 40
0.866025
 41
0.199791
 42
1.5708
  0
LINE
  5
404
330
112
100
AcDbEntity
  8
ProjItem001
100
AcDbLine
 10
-15.7039
 20
258.959
 30
0
 11
-15.7108
 21
257.709
 31
0
  0
LINE
  5
405
330
112
100
AcDbEntity
  8
ProjItem001
100
AcDbLine
 10
-26.5106
 20
257.768
 30
0
 11
-26.5038
 21
259.018
 31
0
  0
LINE
  5
406
330
112
100
AcDbEntity
  8
ProjItem001
100
AcDbLine
 10
-15.7108
 20
257.709
 30
0
 11
-26.5106
 21
257.768
 31
0
  0
LINE
  5
407
330
112
100
AcDbEntity
  8
ProjItem001
100
AcDbLine
 10
-12.4802
 20
299.828
 30
0
 11
-12.9788
 21
300.081
 31
0
  0
LINE
  5
408
330
112
100
AcDbEntity
  8
ProjItem001
100
AcDbLine
 10
-12.5513
 20
286.838
 30
0
 11
-12.4802
 21
299.828
 31
0
  0
ELLIPSE
  5
409
330
112
100
AcDbEntity
  8
ProjItem001
100
AcDbEllipse
 10
-22.6996
 20
314.59
 30
0
 11
1.59998
 21
-0.0087572
 31
0
 40
0.866025
 41
4.71239
 42
0
  0
ELLIPSE
  5
40A
330
112
100
AcDbEntity
  8
ProjItem001
100
AcDbEllipse
 10
-22.6996
 20
314.59
 30
0
 11
1.59998
 21
-0.0087572
 31
0
 40
0.866025
 41
0
 42
1.5708
  0
ELLIPSE
  5
40B
330
112
100
AcDbEntity
  8
ProjItem001
100
AcDbEllipse
 10
-22.6996
 20
314.59
 30
0
 11
1.59998
 21
-0.0087572
 31
0
 40
0.866025
 41
1.5708
 42
3.14159
  0
ELLIPSE
  5
40C
330
112
100
AcDbEntity
  8
ProjItem001
100
AcDbEllipse
 10
-22.6996
 20
314.59
 30
0
 11
1.59998
 21
-0.0087572
 31
0
 40
0.866025
 41
3.14159
 42
4.71239
  0
ELLIPSE
  5
40D
330
112
100
AcDbEntity
  8
ProjItem001
100
AcDbEllipse
 10
-22.7026
 20
314.04
 30
0
 11
1.59998
 21
-0.0087572
 31
0
 40
0.866025
 41
0.199791
 42
2.9418
  0
LINE
  5
40E
330
112
100
AcDbEntity
  8
ProjItem001
100
AcDbLine
 10
-21.7101
 20
270.733
 30
0
 11
-21.7101
 21
270.733
 31
0
  0
LINE
  5
40F
330
112
100
AcDbEntity
  8
ProjItem001
100
AcDbLine
 10
-25.5057
 20
74.126
 30
0
 11
-25.5019
 21
74.826
 31
0
  0
LINE
  5
410
330
112
100
AcDbEntity
  8
ProjItem001
100
AcDbLine
 10
-22.5258
 20
74.1097
 30
0
 11
-22.5219
 21
74.8097
 31
0
  0
LINE
  5
411
330
112
100
AcDbEntity
  8
ProjItem001
100
AcDbLine
 10
-21.5089
 20
75.3542
 30
0
 11
-21.0117
 21
74.8515
 31
0
  0
LINE
  5
412
330
112
100
AcDbEntity
  8
ProjItem001
100
AcDbLine
 10
-19.9272
 20
364.35
 30
0
 11
-19.4245
 21
364.847
 31
0
  0
LINE
  5
413
330
112
100
AcDbEntity
  8
ProjItem001
100
AcDbLine
 10
-16.1556
 20
74.8249
 30
0
 11
-21.0117
 21
74.8515
 31
0
  0
LINE
  5
414
330
112
100
AcDbEntity
  8
ProjItem001
100
AcDbLine
 10
-14.4245
 20
364.82
 30
0
 11
-19.4245
 21
364.847
 31
0
  0
LINE
  5
415
330
112
100
AcDbEntity
  8
ProjItem001
100
AcDbLine
 10
-13.9273
 20
364.317
 30
0
 11
-14.4245
 21
364.82
 31
0
  0
LINE
  5
416
330
112
100
AcDbEntity
  8
ProjItem002
100
AcDbLine
 10
-281.565
 20
-83.5839
 30
0
 11
-280.622
 21
-83.5912
 31
0
  0
LINE
  5
417
330
112
100
AcDbEntity
  8
ProjItem002
100
AcDbLine
 10
-280.622
 20
-84.1774
 30
0
 11
-280.622
 21
-83.5912
 31
0
  0
ELLIPSE
  5
418
330
112
100
AcDbEntity
  8
ProjItem002
100
AcDbEllipse
 10
-331.603
 20
-84.3639
 30
0
 11
-151.05
 21
-2.42907e-14
 31
0
 40
0.00547325
 41
-1.90845
 42
-1.8536
  0
LINE
  5
419
330
112
100
AcDbEntity
  8
ProjItem002
100
AcDbLine
 10
-289.453
 20
-83.57
 30
0
 11
-311.603
 21
-83.57
 31
0
  0
LINE
  5
41A
330
112
100
AcDbEntity
  8
ProjItem002
100
AcDbLine
 10
-311.603
 20
-83.57
 30
0
 11
-311.603
 21
-83.6357
 31
0
  0
ELLIPSE
  5
41B
330
112
100
AcDbEntity
  8
ProjItem002
100
AcDbEllipse
 10
-313.603
 20
-83.6357
 30
0
 11
2
 21
1.22465e-16
 31
0
 40
0.00547325
 41
4.71239
 42
8.88178e-16
  0
LINE
  5
41C
330
112
100
AcDbEntity
  8
ProjItem002
100
AcDbLine
 10
-313.603
 20
-83.6467
 30
0
 11
-349.603
 21
-83.6467
 31
0
  0
ELLIPSE
  5
41D
330
112
100
AcDbEntity
  8
ProjItem002
100
AcDbEllipse
 10
-349.603
 20
-83.6357
 30
0
 11
2
 21
1.22465e-16
 31
0
 40
0.00547325
 41
3.14159
 42
4.71239
  0
LINE
  5
41E
330
112
100
AcDbEntity
  8
ProjItem002
100
AcDbLine
 10
-351.603
 20
-83.6357
 30
0
 11
-351.603
 21
-83.57
 31
0
  0
LINE
  5
41F
330
112
100
AcDbEntity
  8
ProjItem002
100
AcDbLine
 10
-351.603
 20
-83.57
 30
0
 11
-373.753
 21
-83.57
 31
0
  0
ELLIPSE
  5
420
330
112
100
AcDbEntity
  8
ProjItem002
100
AcDbEllipse
 10
-331.603
 20
-84.3639
 30
0
 11
-151.05
 21
-2.42907e-14
 31
0
 40
0.00547325
 41
-1.288
 42
-1.24004
  0
LINE
  5
421
330
112
100
AcDbEntity
  8
ProjItem002
100
AcDbLine
 10
-381.603
 20
-83.5893
 30
0
 11
-380.658
 21
-83.582
 31
0
  0
LINE
  5
422
330
112
100
AcDbEntity
  8
ProjItem002
100
AcDbLine
 10
-381.603
 20
-83.5893
 30
0
 11
-381.603
 21
-84.1681
 31
0
  0
ELLIPSE
  5
423
330
112
100
AcDbEntity
  8
ProjItem002
100
AcDbEllipse
 10
-391.603
 20
-84.1681
 30
0
 11
10
 21
6.12323e-16
 31
0
 40
0.00547325
 41
5.23599
 42
0
  0
LINE
  5
424
330
112
100
AcDbEntity
  8
ProjItem002
100
AcDbLine
 10
-386.603
 20
-84.2155
 30
0
 11
-437.22
 21
-84.3755
 31
0
  0
LINE
  5
425
330
112
100
AcDbEntity
  8
ProjItem002
100
AcDbLine
 10
-480.049
 20
-84.5168
 30
0
 11
-479.385
 21
-84.5089
 31
0
  0
ELLIPSE
  5
426
330
112
100
AcDbEntity
  8
ProjItem002
100
AcDbEllipse
 10
-331.603
 20
-84.3639
 30
0
 11
-151.05
 21
-2.42907e-14
 31
0
 40
0.00547325
 41
-6.09724
 42
-6.07479
  0
LINE
  5
427
330
112
100
AcDbEntity
  8
ProjItem002
100
AcDbLine
 10
-437.22
 20
-84.9505
 30
0
 11
-436.145
 21
-84.9607
 31
0
  0
ELLIPSE
  5
428
330
112
100
AcDbEntity
  8
ProjItem002
100
AcDbEllipse
 10
-331.603
 20
-84.3639
 30
0
 11
-151.05
 21
-2.42907e-14
 31
0
 40
0.00547325
 41
-5.47679
 42
-5.42883
  0
LINE
  5
429
330
112
100
AcDbEntity
  8
ProjItem002
100
AcDbLine
 10
-429.176
 20
-84.9883
 30
0
 11
-430.798
 21
-84.9874
 31
0
  0
LINE
  5
42A
330
112
100
AcDbEntity
  8
ProjItem002
100
AcDbLine
 10
-429.176
 20
-84.9883
 30
0
 11
-337.584
 21
-84.6988
 31
0
  0
ELLIPSE
  5
42B
330
112
100
AcDbEntity
  8
ProjItem002
100
AcDbEllipse
 10
-332.584
 20
-84.7462
 30
0
 11
10
 21
6.12323e-16
 31
0
 40
0.00547325
 41
1.0472
 42
2.0944
  0
LINE
  5
42C
330
112
100
AcDbEntity
  8
ProjItem002
100
AcDbLine
 10
-327.584
 20
-84.6988
 30
0
 11
-234.822
 21
-84.992
 31
0
  0
LINE
  5
42D
330
112
100
AcDbEntity
  8
ProjItem002
100
AcDbLine
 10
-233.195
 20
-84.9911
 30
0
 11
-234.822
 21
-84.992
 31
0
  0
ELLIPSE
  5
42E
330
112
100
AcDbEntity
  8
ProjItem002
100
AcDbEllipse
 10
-331.603
 20
-84.3639
 30
0
 11
-151.05
 21
-2.42907e-14
 31
0
 40
0.00547325
 41
-4.00284
 42
-3.94799
  0
LINE
  5
42F
330
112
100
AcDbEntity
  8
ProjItem002
100
AcDbLine
 10
-227.061
 20
-84.9607
 30
0
 11
-225.986
 21
-84.9505
 31
0
  0
ELLIPSE
  5
430
330
112
100
AcDbEntity
  8
ProjItem002
100
AcDbEllipse
 10
-331.603
 20
-84.3639
 30
0
 11
-151.05
 21
-2.42907e-14
 31
0
 40
0.00547325
 41
-3.34998
 42
-3.33443
  0
LINE
  5
431
330
112
100
AcDbEntity
  8
ProjItem002
100
AcDbLine
 10
-183.821
 20
-84.5168
 30
0
 11
-183.353
 21
-84.5224
 31
0
  0
LINE
  5
432
330
112
100
AcDbEntity
  8
ProjItem002
100
AcDbLine
 10
-225.986
 20
-84.3817
 30
0
 11
-275.622
 21
-84.2248
 31
0
  0
ELLIPSE
  5
433
330
112
100
AcDbEntity
  8
ProjItem002
100
AcDbEllipse
 10
-270.622
 20
-84.1774
 30
0
 11
10
 21
6.12323e-16
 31
0
 40
0.00547325
 41
3.14159
 42
4.18879
  0
ELLIPSE
  5
434
330
112
100
AcDbEntity
  8
ProjItem002
100
AcDbEllipse
 10
-325.603
 20
-84.3639
 30
0
 11
-3
 21
-4.82437e-16
 31
0
 40
0.00547325
 41
-3.14159
 42
-6.17355e-17
  0
ELLIPSE
  5
435
330
112
100
AcDbEntity
  8
ProjItem002
100
AcDbEllipse
 10
-325.603
 20
-84.3639
 30
0
 11
-3
 21
-4.82437e-16
 31
0
 40
0.00547325
 41
-0
 42
-3.14159
  0
ELLIPSE
  5
436
330
112
100
AcDbEntity
  8
ProjItem002
100
AcDbEllipse
 10
-337.603
 20
-84.3639
 30
0
 11
-3
 21
-4.82437e-16
 31
0
 40
0.00547325
 41
-0
 42
-3.14159
  0
ELLIPSE
  5
437
330
112
100
AcDbEntity
  8
ProjItem002
100
AcDbEllipse
 10
-337.603
 20
-84.3639
 30
0
 11
-3
 21
-4.82437e-16
 31
0
 40
0.00547325
 41
-3.14159
 42
-0
  0
ELLIPSE
  5
438
330
112
100
AcDbEntity
  8
ProjItem002
100
AcDbEllipse
 10
-309.103
 20
-84.2408
 30
0
 11
-4
 21
-6.43249e-16
 31
0
 40
0.00547325
 41
-6.27771
 42
-4.71239
  0
ELLIPSE
  5
439
330
112
100
AcDbEntity
  8
ProjItem002
100
AcDbEllipse
 10
-309.103
 20
-84.2408
 30
0
 11
-4
 21
-6.43249e-16
 31
0
 40
0.00547325
 41
-1.5708
 42
-6.27771
  0
ELLIPSE
  5
43A
330
112
100
AcDbEntity
  8
ProjItem002
100
AcDbEllipse
 10
-309.103
 20
-84.2408
 30
0
 11
-4
 21
-6.43249e-16
 31
0
 40
0.00547325
 41
-3.14707
 42
-1.5708
  0
ELLIPSE
  5
43B
330
112
100
AcDbEntity
  8
ProjItem002
100
AcDbEllipse
 10
-309.103
 20
-84.2408
 30
0
 11
-4
 21
-6.43249e-16
 31
0
 40
0.00547325
 41
-4.71239
 42
-3.14707
  0
ELLIPSE
  5
43C
330
112
100
AcDbEntity
  8
ProjItem002
100
AcDbEllipse
 10
-309.103
 20
-84.4871
 30
0
 11
-4
 21
-6.43249e-16
 31
0
 40
0.00547325
 41
-3.14159
 42
-1.842e-16
  0
ELLIPSE
  5
43D
330
112
100
AcDbEntity
  8
ProjItem002
100
AcDbEllipse
 10
-309.103
 20
-84.4871
 30
0
 11
-4
 21
-6.43249e-16
 31
0
 40
0.00547325
 41
-3.14707
 42
-3.14159
  0
ELLIPSE
  5
43E
330
112
100
AcDbEntity
  8
ProjItem002
100
AcDbEllipse
 10
-309.103
 20
-84.4871
 30
0
 11
-4
 21
-6.43249e-16
 31
0
 40
0.00547325
 41
-6.27771
 42
-3.14707
  0
ELLIPSE
  5
43F
330
112
100
AcDbEntity
  8
ProjItem002
100
AcDbEllipse
 10
-309.103
 20
-84.4871
 30
0
 11
-4
 21
-6.43249e-16
 31
0
 40
0.00547325
 41
-0
 42
-6.27771
  0
ELLIPSE
  5
440
330
112
100
AcDbEntity
  8
ProjItem002
100
AcDbEllipse
 10
-354.103
 20
-84.4871
 30
0
 11
-4
 21
-6.43249e-16
 31
0
 40
0.00547325
 41
-3.14707
 42
-1.5708
  0
ELLIPSE
  5
441
330
112
100
AcDbEntity
  8
ProjItem002
100
AcDbEllipse
 10
-354.103
 20
-84.4871
 30
0
 11
-4
 21
-6.43249e-16
 31
0
 40
0.00547325
 41
-4.71239
 42
-3.14707
  0
ELLIPSE
  5
442
330
112
100
AcDbEntity
  8
ProjItem002
100
AcDbEllipse
 10
-354.103
 20
-84.4871
 30
0
 11
-4
 21
-6.43249e-16
 31
0
 40
0.00547325
 41
-6.27771
 42
-4.71239
  0
ELLIPSE
  5
443
330
112
100
AcDbEntity
  8
ProjItem002
100
AcDbEllipse
 10
-354.103
 20
-84.4871
 30
0
 11
-4
 21
-6.43249e-16
 31
0
 40
0.00547325
 41
-1.5708
 42
-6.27771
  0
ELLIPSE
  5
444
330
112
100
AcDbEntity
  8
ProjItem002
100
AcDbEllipse
 10
-354.103
 20
-84.2408
 30
0
 11
-4
 21
-6.43249e-16
 31
0
 40
0.00547325
 41
-3.14707
 42
-3.14159
  0
ELLIPSE
  5
445
330
112
100
AcDbEntity
  8
ProjItem002
100
AcDbEllipse
 10
-354.103
 20
-84.2408
 30
0
 11
-4
 21
-6.43249e-16
 31
0
 40
0.00547325
 41
-6.27771
 42
-3.14707
  0
ELLIPSE
  5
446
330
112
100
AcDbEntity
  8
ProjItem002
100
AcDbEllipse
 10
-354.103
 20
-84.2408
 30
0
 11
-4
 21
-6.43249e-16
 31
0
 40
0.00547325
 41
-0
 42
-6.27771
  0
ELLIPSE
  5
447
330
112
100
AcDbEntity
  8
ProjItem002
100
AcDbEllipse
 10
-354.103
 20
-84.2408
 30
0
 11
-4
 21
-6.43249e-16
 31
0
 40
0.00547325
 41
-3.14159
 42
-0
  0
LINE
  5
448
330
112
100
AcDbEntity
  8
ProjItem002
100
AcDbLine
 10
-183.353
 20
-84.5224
 30
0
 11
-183.353
 21
-89.5223
 31
0
  0
ELLIPSE
  5
449
330
112
100
AcDbEntity
  8
ProjItem002
100
AcDbEllipse
 10
-331.603
 20
-89.3639
 30
0
 11
-151.05
 21
-2.42907e-14
 31
0
 40
0.00547325
 41
-3.34998
 42
-3.33443
  0
LINE
  5
44A
330
112
100
AcDbEntity
  8
ProjItem002
100
AcDbLine
 10
-234.822
 20
-89.9919
 30
0
 11
-233.195
 21
-89.9911
 31
0
  0
LINE
  5
44B
330
112
100
AcDbEntity
  8
ProjItem002
100
AcDbLine
 10
-233.195
 20
-89.9911
 30
0
 11
-233.195
 21
-84.9911
 31
0
  0
LINE
  5
44C
330
112
100
AcDbEntity
  8
ProjItem002
100
AcDbLine
 10
-234.822
 20
-84.992
 30
0
 11
-234.822
 21
-89.9919
 31
0
  0
LINE
  5
44D
330
112
100
AcDbEntity
  8
ProjItem002
100
AcDbLine
 10
-234.822
 20
-89.9919
 30
0
 11
-327.584
 21
-89.6988
 31
0
  0
LINE
  5
44E
330
112
100
AcDbEntity
  8
ProjItem002
100
AcDbLine
 10
-430.798
 20
-84.9874
 30
0
 11
-430.798
 21
-89.9873
 31
0
  0
LINE
  5
44F
330
112
100
AcDbEntity
  8
ProjItem002
100
AcDbLine
 10
-430.798
 20
-89.9873
 30
0
 11
-429.176
 21
-89.9882
 31
0
  0
LINE
  5
450
330
112
100
AcDbEntity
  8
ProjItem002
100
AcDbLine
 10
-429.176
 20
-89.9882
 30
0
 11
-429.176
 21
-84.9883
 31
0
  0
LINE
  5
451
330
112
100
AcDbEntity
  8
ProjItem002
100
AcDbLine
 10
-337.584
 20
-89.6988
 30
0
 11
-429.176
 21
-89.9882
 31
0
  0
ELLIPSE
  5
452
330
112
100
AcDbEntity
  8
ProjItem002
100
AcDbEllipse
 10
-332.584
 20
-89.7462
 30
0
 11
-10
 21
-1.60812e-15
 31
0
 40
0.00547325
 41
-2.0944
 42
-1.0472
  0
LINE
  5
453
330
112
100
AcDbEntity
  8
ProjItem002
100
AcDbLine
 10
-225.986
 20
-89.9504
 30
0
 11
-227.061
 21
-89.9606
 31
0
  0
ELLIPSE
  5
454
330
112
100
AcDbEntity
  8
ProjItem002
100
AcDbEllipse
 10
-331.603
 20
-89.3639
 30
0
 11
-151.05
 21
-2.42907e-14
 31
0
 40
0.00547325
 41
-4.00284
 42
-3.94799
  0
ELLIPSE
  5
455
330
112
100
AcDbEntity
  8
ProjItem002
100
AcDbEllipse
 10
-331.603
 20
-89.3639
 30
0
 11
-151.05
 21
-2.42907e-14
 31
0
 40
0.00547325
 41
-5.47679
 42
-5.42883
  0
LINE
  5
456
330
112
100
AcDbEntity
  8
ProjItem002
100
AcDbLine
 10
-436.145
 20
-89.9606
 30
0
 11
-437.22
 21
-89.9504
 31
0
  0
ELLIPSE
  5
457
330
112
100
AcDbEntity
  8
ProjItem002
100
AcDbEllipse
 10
-331.603
 20
-89.3639
 30
0
 11
-151.05
 21
-2.42907e-14
 31
0
 40
0.00547325
 41
-6.09724
 42
-6.07479
  0
LINE
  5
458
330
112
100
AcDbEntity
  8
ProjItem002
100
AcDbLine
 10
-436.145
 20
-84.9607
 30
0
 11
-436.145
 21
-89.9606
 31
0
  0
LINE
  5
459
330
112
100
AcDbEntity
  8
ProjItem002
100
AcDbLine
 10
-480.049
 20
-89.5167
 30
0
 11
-480.049
 21
-84.5168
 31
0
  0
LINE
  5
45A
330
112
100
AcDbEntity
  8
ProjItem002
100
AcDbLine
 10
-227.061
 20
-89.9606
 30
0
 11
-227.061
 21
-84.9607
 31
0
  0
ELLIPSE
  5
45B
330
112
100
AcDbEntity
  8
ProjItem002
100
AcDbEllipse
 10
-315.853
 20
-83.6275
 30
0
 11
-2.5
 21
1.53081e-16
 31
0
 40
0.00547325
 41
-4.71239
 42
-3.14159
  0
LINE
  5
45C
330
112
100
AcDbEntity
  8
ProjItem002
100
AcDbLine
 10
-313.353
 20
-83.6466
 30
0
 11
-313.353
 21
-83.6275
 31
0
  0
LINE
  5
45D
330
112
100
AcDbEntity
  8
ProjItem002
100
AcDbLine
 10
-313.353
 20
-83.6275
 30
0
 11
-313.353
 21
-83.5662
 31
0
  0
LINE
  5
45E
330
112
100
AcDbEntity
  8
ProjItem002
100
AcDbLine
 10
-313.353
 20
-83.5662
 30
0
 11
-349.853
 21
-83.5662
 31
0
  0
LINE
  5
45F
330
112
100
AcDbEntity
  8
ProjItem002
100
AcDbLine
 10
-349.853
 20
-83.6275
 30
0
 11
-349.853
 21
-83.5662
 31
0
  0
ELLIPSE
  5
460
330
112
100
AcDbEntity
  8
ProjItem002
100
AcDbEllipse
 10
-347.353
 20
-83.6275
 30
0
 11
-2.5
 21
1.53081e-16
 31
0
 40
0.00547325
 41
-0
 42
-4.71239
  0
LINE
  5
461
330
112
100
AcDbEntity
  8
ProjItem002
100
AcDbLine
 10
-347.353
 20
-83.6412
 30
0
 11
-315.853
 21
-83.6412
 31
0
  0
LINE
  5
462
330
112
100
AcDbEntity
  8
ProjItem002
100
AcDbLine
 10
-324.103
 20
-96.3742
 30
0
 11
-324.103
 21
-96.1536
 31
0
  0
LINE
  5
463
330
112
100
AcDbEntity
  8
ProjItem002
100
AcDbLine
 10
-371.603
 20
-82.5525
 30
0
 11
-291.603
 21
-82.5525
 31
0
  0
LINE
  5
464
330
112
100
AcDbEntity
  8
ProjItem002
100
AcDbLine
 10
-291.603
 20
-82.5662
 30
0
 11
-291.603
 21
-82.5525
 31
0
  0
LINE
  5
465
330
112
100
AcDbEntity
  8
ProjItem002
100
AcDbLine
 10
-291.603
 20
-83.57
 30
0
 11
-291.603
 21
-82.5662
 31
0
  0
LINE
  5
466
330
112
100
AcDbEntity
  8
ProjItem002
100
AcDbLine
 10
-291.603
 20
-82.5662
 30
0
 11
-371.603
 21
-82.5662
 31
0
  0
LINE
  5
467
330
112
100
AcDbEntity
  8
ProjItem002
100
AcDbLine
 10
-371.603
 20
-83.57
 30
0
 11
-371.603
 21
-82.5662
 31
0
  0
LINE
  5
468
330
112
100
AcDbEntity
  8
ProjItem002
100
AcDbLine
 10
-349.853
 20
-83.6275
 30
0
 11
-349.853
 21
-83.6466
 31
0
  0
LINE
  5
469
330
112
100
AcDbEntity
  8
ProjItem002
100
AcDbLine
 10
-339.103
 20
-96.1536
 30
0
 11
-339.103
 21
-96.3742
 31
0
  0
LINE
  5
46A
330
112
100
AcDbEntity
  8
ProjItem002
100
AcDbLine
 10
-339.103
 20
-96.3742
 30
0
 11
-324.103
 21
-96.3742
 31
0
  0
LINE
  5
46B
330
112
100
AcDbEntity
  8
ProjItem002
100
AcDbLine
 10
-371.603
 20
-82.5662
 30
0
 11
-371.603
 21
-82.5525
 31
0
  0
ELLIPSE
  5
46C
330
112
100
AcDbEntity
  8
ProjItem002
100
AcDbEllipse
 10
-331.603
 20
-89.3639
 30
0
 11
-144.5
 21
4.09335e-14
 31
0
 40
0.00547325
 41
-5.40626
 42
-4.02576
  0
ELLIPSE
  5
46D
330
112
100
AcDbEntity
  8
ProjItem002
100
AcDbEllipse
 10
-331.603
 20
-89.8639
 30
0
 11
145
 21
-5.55142e-14
 31
0
 40
0.00547325
 41
5.45407
 42
5.52836
  0
ELLIPSE
  5
46E
330
112
100
AcDbEntity
  8
ProjItem002
100
AcDbEllipse
 10
-331.603
 20
-89.8639
 30
0
 11
145
 21
-5.55142e-14
 31
0
 40
0.00547325
 41
3.89642
 42
5.45407
  0
ELLIPSE
  5
46F
330
112
100
AcDbEntity
  8
ProjItem002
100
AcDbEllipse
 10
-331.603
 20
-94.8638
 30
0
 11
-145
 21
4.10752e-14
 31
0
 40
0.00547325
 41
-5.7387
 42
-3.97071
  0
ELLIPSE
  5
470
330
112
100
AcDbEntity
  8
ProjItem002
100
AcDbEllipse
 10
-331.603
 20
-94.8638
 30
0
 11
-145
 21
4.10752e-14
 31
0
 40
0.00547325
 41
-6.27771
 42
-5.84877
  0
ELLIPSE
  5
471
330
112
100
AcDbEntity
  8
ProjItem002
100
AcDbEllipse
 10
-331.603
 20
-94.8638
 30
0
 11
-145
 21
4.10752e-14
 31
0
 40
0.00547325
 41
-0
 42
-6.27771
  0
ELLIPSE
  5
472
330
112
100
AcDbEntity
  8
ProjItem002
100
AcDbEllipse
 10
-331.603
 20
-94.8638
 30
0
 11
-145
 21
4.10752e-14
 31
0
 40
0.00547325
 41
-3.14707
 42
-3.14159
  0
ELLIPSE
  5
473
330
112
100
AcDbEntity
  8
ProjItem002
100
AcDbEllipse
 10
-331.603
 20
-94.8638
 30
0
 11
-145
 21
4.10752e-14
 31
0
 40
0.00547325
 41
-3.576
 42
-3.14707
  0
ELLIPSE
  5
474
330
112
100
AcDbEntity
  8
ProjItem002
100
AcDbEllipse
 10
-331.603
 20
-94.8638
 30
0
 11
-145
 21
4.10752e-14
 31
0
 40
0.00547325
 41
-3.97071
 42
-3.68608
  0
ELLIPSE
  5
475
330
112
100
AcDbEntity
  8
ProjItem002
100
AcDbEllipse
 10
-331.603
 20
-95.3638
 30
0
 11
144.5
 21
-5.53228e-14
 31
0
 40
0.00547325
 41
5.45407
 42
5.74444
  0
ELLIPSE
  5
476
330
112
100
AcDbEntity
  8
ProjItem002
100
AcDbEllipse
 10
-331.603
 20
-95.3638
 30
0
 11
144.5
 21
-5.53228e-14
 31
0
 40
0.00547325
 41
5.85629
 42
6.27771
  0
ELLIPSE
  5
477
330
112
100
AcDbEntity
  8
ProjItem002
100
AcDbEllipse
 10
-331.603
 20
-95.3638
 30
0
 11
144.5
 21
-5.53228e-14
 31
0
 40
0.00547325
 41
3.14707
 42
3.56849
  0
ELLIPSE
  5
478
330
112
100
AcDbEntity
  8
ProjItem002
100
AcDbEllipse
 10
-331.603
 20
-95.3638
 30
0
 11
144.5
 21
-5.53228e-14
 31
0
 40
0.00547325
 41
3.68034
 42
5.45407
  0
LINE
  5
479
330
112
100
AcDbEntity
  8
ProjItem002
100
AcDbLine
 10
-463.135
 20
-97.032
 30
0
 11
-462.702
 21
-97.5306
 31
0
  0
LINE
  5
47A
330
112
100
AcDbEntity
  8
ProjItem002
100
AcDbLine
 10
-463.135
 20
-94.532
 30
0
 11
-463.135
 21
-97.032
 31
0
  0
LINE
  5
47B
330
112
100
AcDbEntity
  8
ProjItem002
100
AcDbLine
 10
-455.635
 20
-97.1031
 30
0
 11
-463.135
 21
-97.032
 31
0
  0
LINE
  5
47C
330
112
100
AcDbEntity
  8
ProjItem002
100
AcDbLine
 10
-455.635
 20
-94.6031
 30
0
 11
-455.635
 21
-97.1031
 31
0
  0
LINE
  5
47D
330
112
100
AcDbEntity
  8
ProjItem002
100
AcDbLine
 10
-455.635
 20
-94.6031
 30
0
 11
-439.385
 21
-94.7572
 31
0
  0
LINE
  5
47E
330
112
100
AcDbEntity
  8
ProjItem002
100
AcDbLine
 10
-439.385
 20
-83.9573
 30
0
 11
-439.385
 21
-94.7572
 31
0
  0
LINE
  5
47F
330
112
100
AcDbEntity
  8
ProjItem002
100
AcDbLine
 10
-439.385
 20
-83.9573
 30
0
 11
-479.385
 21
-83.5781
 31
0
  0
LINE
  5
480
330
112
100
AcDbEntity
  8
ProjItem002
100
AcDbLine
 10
-479.385
 20
-83.5781
 30
0
 11
-479.385
 21
-94.378
 31
0
  0
LINE
  5
481
330
112
100
AcDbEntity
  8
ProjItem002
100
AcDbLine
 10
-463.135
 20
-94.532
 30
0
 11
-479.385
 21
-94.378
 31
0
  0
ELLIPSE
  5
482
330
112
100
AcDbEntity
  8
ProjItem002
100
AcDbEllipse
 10
-446.885
 20
-87.3862
 30
0
 11
0.0094799
 21
-2.99999
 31
0
 40
0.499993
 41
-5.66772
 42
-4.71871
  0
ELLIPSE
  5
483
330
112
100
AcDbEntity
  8
ProjItem002
100
AcDbEllipse
 10
-446.885
 20
-87.3862
 30
0
 11
0.0094799
 21
-2.99999
 31
0
 40
0.499993
 41
-1.57712
 42
-5.66772
  0
ELLIPSE
  5
484
330
112
100
AcDbEntity
  8
ProjItem002
100
AcDbEllipse
 10
-446.885
 20
-87.3862
 30
0
 11
0.0094799
 21
-2.99999
 31
0
 40
0.499993
 41
-3.75706
 42
-1.57712
  0
ELLIPSE
  5
485
330
112
100
AcDbEntity
  8
ProjItem002
100
AcDbEllipse
 10
-446.885
 20
-87.3862
 30
0
 11
0.0094799
 21
-2.99999
 31
0
 40
0.499993
 41
-4.71871
 42
-3.75706
  0
ELLIPSE
  5
486
330
112
100
AcDbEntity
  8
ProjItem002
100
AcDbEllipse
 10
-471.885
 20
-87.1492
 30
0
 11
0.0094799
 21
-2.99999
 31
0
 40
0.499993
 41
-3.75706
 42
-1.57712
  0
ELLIPSE
  5
487
330
112
100
AcDbEntity
  8
ProjItem002
100
AcDbEllipse
 10
-471.885
 20
-87.1492
 30
0
 11
0.0094799
 21
-2.99999
 31
0
 40
0.499993
 41
-4.71871
 42
-3.75706
  0
ELLIPSE
  5
488
330
112
100
AcDbEntity
  8
ProjItem002
100
AcDbEllipse
 10
-471.885
 20
-87.1492
 30
0
 11
0.0094799
 21
-2.99999
 31
0
 40
0.499993
 41
-5.66772
 42
-4.71871
  0
ELLIPSE
  5
489
330
112
100
AcDbEntity
  8
ProjItem002
100
AcDbEllipse
 10
-471.885
 20
-87.1492
 30
0
 11
0.0094799
 21
-2.99999
 31
0
 40
0.499993
 41
-1.57712
 42
-5.66772
  0
LINE
  5
48A
330
112
100
AcDbEntity
  8
ProjItem002
100
AcDbLine
 10
-451.738
 20
-97.0908
 30
0
 11
-451.738
 21
-96.3953
 31
0
  0
ELLIPSE
  5
48B
330
112
100
AcDbEntity
  8
ProjItem002
100
AcDbEllipse
 10
-470.673
 20
-87.1454
 30
0
 11
0.00505594
 21
-1.59999
 31
0
 40
0.499993
 41
-3.14159
 42
-1.57712
  0
ELLIPSE
  5
48C
330
112
100
AcDbEntity
  8
ProjItem002
100
AcDbEllipse
 10
-470.673
 20
-87.1454
 30
0
 11
0.00505594
 21
-1.59999
 31
0
 40
0.499993
 41
-3.21379
 42
-3.14159
  0
ELLIPSE
  5
48D
330
112
100
AcDbEntity
  8
ProjItem002
100
AcDbEllipse
 10
-470.673
 20
-87.1454
 30
0
 11
0.00505594
 21
-1.59999
 31
0
 40
0.499993
 41
-0
 42
-6.21099
  0
ELLIPSE
  5
48E
330
112
100
AcDbEntity
  8
ProjItem002
100
AcDbEllipse
 10
-470.673
 20
-87.1454
 30
0
 11
0.00505594
 21
-1.59999
 31
0
 40
0.499993
 41
-1.57712
 42
-0
  0
ELLIPSE
  5
48F
330
112
100
AcDbEntity
  8
ProjItem002
100
AcDbEllipse
 10
-469.72
 20
-87.1423
 30
0
 11
-0.00505594
 21
1.59999
 31
0
 40
0.499993
 41
1.09392
 42
2.04767
  0
LINE
  5
490
330
112
100
AcDbEntity
  8
ProjItem002
100
AcDbLine
 10
-477.22
 20
-83.5713
 30
0
 11
-479.385
 21
-83.5781
 31
0
  0
LINE
  5
491
330
112
100
AcDbEntity
  8
ProjItem002
100
AcDbLine
 10
-455.202
 20
-97.6017
 30
0
 11
-455.635
 21
-97.1031
 31
0
  0
LINE
  5
492
330
112
100
AcDbEntity
  8
ProjItem002
100
AcDbLine
 10
-462.702
 20
-97.5306
 30
0
 11
-455.202
 21
-97.6017
 31
0
  0
LINE
  5
493
330
112
100
AcDbEntity
  8
ProjItem002
100
AcDbLine
 10
-455.202
 20
-97.6017
 30
0
 11
-452.171
 21
-97.5921
 31
0
  0
LINE
  5
494
330
112
100
AcDbEntity
  8
ProjItem002
100
AcDbLine
 10
-451.738
 20
-97.0908
 30
0
 11
-452.171
 21
-97.5921
 31
0
  0
SPLINE
  5
495
330
112
100
AcDbEntity
  8
ProjItem002
100
AcDbSpline
210
0
220
0
230
1
 70
8
 71
1
 72
4
 73
2
 74
0
 40
0.0278426
 40
0.0278426
 40
0.112755
 40
0.112755
 10
-451.738
 20
-96.3953
 30
0
 10
-452.257
 20
-95.799
 30
0
  0
ELLIPSE
  5
496
330
112
100
AcDbEntity
  8
ProjItem002
100
AcDbEllipse
 10
-445.673
 20
-87.3824
 30
0
 11
-0.00505594
 21
1.59999
 31
0
 40
0.499993
 41
1.56448
 42
3.14159
  0
ELLIPSE
  5
497
330
112
100
AcDbEntity
  8
ProjItem002
100
AcDbEllipse
 10
-445.673
 20
-87.3824
 30
0
 11
-0.00505594
 21
1.59999
 31
0
 40
0.499993
 41
3.14159
 42
3.21379
  0
ELLIPSE
  5
498
330
112
100
AcDbEntity
  8
ProjItem002
100
AcDbEllipse
 10
-445.673
 20
-87.3824
 30
0
 11
-0.00505594
 21
1.59999
 31
0
 40
0.499993
 41
6.21099
 42
0
  0
ELLIPSE
  5
499
330
112
100
AcDbEntity
  8
ProjItem002
100
AcDbEllipse
 10
-445.673
 20
-87.3824
 30
0
 11
-0.00505594
 21
1.59999
 31
0
 40
0.499993
 41
0
 42
1.56448
  0
ELLIPSE
  5
49A
330
112
100
AcDbEntity
  8
ProjItem002
100
AcDbEllipse
 10
-444.72
 20
-87.3793
 30
0
 11
-0.00505594
 21
1.59999
 31
0
 40
0.499993
 41
1.56448
 42
2.04767
  0
ELLIPSE
  5
49B
330
112
100
AcDbEntity
  8
ProjItem002
100
AcDbEllipse
 10
-444.72
 20
-87.3793
 30
0
 11
-0.00505594
 21
1.59999
 31
0
 40
0.499993
 41
1.09392
 42
1.56448
  0
LINE
  5
49C
330
112
100
AcDbEntity
  8
ProjItem002
100
AcDbLine
 10
-439.385
 20
-94.7572
 30
0
 11
-437.22
 21
-94.7503
 31
0
  0
LINE
  5
49D
330
112
100
AcDbEntity
  8
ProjItem002
100
AcDbLine
 10
-437.22
 20
-83.9505
 30
0
 11
-439.385
 21
-83.9573
 31
0
  0
LINE
  5
49E
330
112
100
AcDbEntity
  8
ProjItem002
100
AcDbLine
 10
-437.22
 20
-94.7503
 30
0
 11
-437.22
 21
-83.9505
 31
0
  0
LINE
  5
49F
330
112
100
AcDbEntity
  8
ProjItem002
100
AcDbLine
 10
-477.22
 20
-83.5713
 30
0
 11
-437.22
 21
-83.9505
 31
0
  0
LINE
  5
4A0
330
112
100
AcDbEntity
  8
ProjItem002
100
AcDbLine
 10
-207.571
 20
-97.1031
 30
0
 11
-208.004
 21
-97.6017
 31
0
  0
LINE
  5
4A1
330
112
100
AcDbEntity
  8
ProjItem002
100
AcDbLine
 10
-207.571
 20
-94.6031
 30
0
 11
-207.571
 21
-97.1031
 31
0
  0
SPLINE
  5
4A2
330
112
100
AcDbEntity
  8
ProjItem002
100
AcDbSpline
210
0
220
0
230
1
 70
8
 71
1
 72
4
 73
2
 74
0
 40
0.170278
 40
0.170278
 40
0.25519
 40
0.25519
 10
-210.95
 20
-95.799
 30
0
 10
-211.468
 20
-96.3953
 30
0
  0
LINE
  5
4A3
330
112
100
AcDbEntity
  8
ProjItem002
100
AcDbLine
 10
-211.468
 20
-97.0908
 30
0
 11
-211.468
 21
-96.3953
 31
0
  0
LINE
  5
4A4
330
112
100
AcDbEntity
  8
ProjItem002
100
AcDbLine
 10
-211.035
 20
-97.5921
 30
0
 11
-211.468
 21
-97.0908
 31
0
  0
LINE
  5
4A5
330
112
100
AcDbEntity
  8
ProjItem002
100
AcDbLine
 10
-208.004
 20
-97.6017
 30
0
 11
-211.035
 21
-97.5921
 31
0
  0
LINE
  5
4A6
330
112
100
AcDbEntity
  8
ProjItem002
100
AcDbLine
 10
-200.071
 20
-97.032
 30
0
 11
-207.571
 21
-97.1031
 31
0
  0
LINE
  5
4A7
330
112
100
AcDbEntity
  8
ProjItem002
100
AcDbLine
 10
-200.071
 20
-94.532
 30
0
 11
-200.071
 21
-97.032
 31
0
  0
LINE
  5
4A8
330
112
100
AcDbEntity
  8
ProjItem002
100
AcDbLine
 10
-200.071
 20
-94.532
 30
0
 11
-183.821
 21
-94.378
 31
0
  0
LINE
  5
4A9
330
112
100
AcDbEntity
  8
ProjItem002
100
AcDbLine
 10
-183.821
 20
-83.5781
 30
0
 11
-183.821
 21
-94.378
 31
0
  0
LINE
  5
4AA
330
112
100
AcDbEntity
  8
ProjItem002
100
AcDbLine
 10
-183.821
 20
-83.5781
 30
0
 11
-223.821
 21
-83.9573
 31
0
  0
LINE
  5
4AB
330
112
100
AcDbEntity
  8
ProjItem002
100
AcDbLine
 10
-223.821
 20
-83.9573
 30
0
 11
-223.821
 21
-94.7572
 31
0
  0
LINE
  5
4AC
330
112
100
AcDbEntity
  8
ProjItem002
100
AcDbLine
 10
-207.571
 20
-94.6031
 30
0
 11
-223.821
 21
-94.7572
 31
0
  0
ELLIPSE
  5
4AD
330
112
100
AcDbEntity
  8
ProjItem002
100
AcDbEllipse
 10
-191.321
 20
-87.1492
 30
0
 11
0.0094799
 21
2.99999
 31
0
 40
0.499993
 41
-3.75706
 42
-1.56448
  0
ELLIPSE
  5
4AE
330
112
100
AcDbEntity
  8
ProjItem002
100
AcDbEllipse
 10
-191.321
 20
-87.1492
 30
0
 11
0.0094799
 21
2.99999
 31
0
 40
0.499993
 41
-4.70607
 42
-3.75706
  0
ELLIPSE
  5
4AF
330
112
100
AcDbEntity
  8
ProjItem002
100
AcDbEllipse
 10
-191.321
 20
-87.1492
 30
0
 11
0.0094799
 21
2.99999
 31
0
 40
0.499993
 41
-5.66772
 42
-4.70607
  0
ELLIPSE
  5
4B0
330
112
100
AcDbEntity
  8
ProjItem002
100
AcDbEllipse
 10
-191.321
 20
-87.1492
 30
0
 11
0.0094799
 21
2.99999
 31
0
 40
0.499993
 41
-1.56448
 42
-5.66772
  0
ELLIPSE
  5
4B1
330
112
100
AcDbEntity
  8
ProjItem002
100
AcDbEllipse
 10
-216.321
 20
-87.3862
 30
0
 11
0.0094799
 21
2.99999
 31
0
 40
0.499993
 41
-5.66772
 42
-4.70607
  0
ELLIPSE
  5
4B2
330
112
100
AcDbEntity
  8
ProjItem002
100
AcDbEllipse
 10
-216.321
 20
-87.3862
 30
0
 11
0.0094799
 21
2.99999
 31
0
 40
0.499993
 41
-1.56448
 42
-5.66772
  0
ELLIPSE
  5
4B3
330
112
100
AcDbEntity
  8
ProjItem002
100
AcDbEllipse
 10
-216.321
 20
-87.3862
 30
0
 11
0.0094799
 21
2.99999
 31
0
 40
0.499993
 41
-3.75706
 42
-1.56448
  0
ELLIPSE
  5
4B4
330
112
100
AcDbEntity
  8
ProjItem002
100
AcDbEllipse
 10
-216.321
 20
-87.3862
 30
0
 11
0.0094799
 21
2.99999
 31
0
 40
0.499993
 41
-4.70607
 42
-3.75706
  0
ELLIPSE
  5
4B5
330
112
100
AcDbEntity
  8
ProjItem002
100
AcDbEllipse
 10
-217.533
 20
-87.3824
 30
0
 11
0.00505594
 21
1.59999
 31
0
 40
0.499993
 41
-0
 42
-6.21099
  0
ELLIPSE
  5
4B6
330
112
100
AcDbEntity
  8
ProjItem002
100
AcDbEllipse
 10
-217.533
 20
-87.3824
 30
0
 11
0.00505594
 21
1.59999
 31
0
 40
0.499993
 41
-1.56448
 42
-0
  0
ELLIPSE
  5
4B7
330
112
100
AcDbEntity
  8
ProjItem002
100
AcDbEllipse
 10
-217.533
 20
-87.3824
 30
0
 11
0.00505594
 21
1.59999
 31
0
 40
0.499993
 41
-3.14159
 42
-1.56448
  0
ELLIPSE
  5
4B8
330
112
100
AcDbEntity
  8
ProjItem002
100
AcDbEllipse
 10
-217.533
 20
-87.3824
 30
0
 11
0.00505594
 21
1.59999
 31
0
 40
0.499993
 41
-3.21379
 42
-3.14159
  0
ELLIPSE
  5
4B9
330
112
100
AcDbEntity
  8
ProjItem002
100
AcDbEllipse
 10
-218.486
 20
-87.3793
 30
0
 11
-0.00505594
 21
-1.59999
 31
0
 40
0.499993
 41
1.57712
 42
2.04767
  0
ELLIPSE
  5
4BA
330
112
100
AcDbEntity
  8
ProjItem002
100
AcDbEllipse
 10
-218.486
 20
-87.3793
 30
0
 11
-0.00505594
 21
-1.59999
 31
0
 40
0.499993
 41
1.09392
 42
1.57712
  0
LINE
  5
4BB
330
112
100
AcDbEntity
  8
ProjItem002
100
AcDbLine
 10
-223.821
 20
-94.7572
 30
0
 11
-225.986
 21
-94.7503
 31
0
  0
LINE
  5
4BC
330
112
100
AcDbEntity
  8
ProjItem002
100
AcDbLine
 10
-225.986
 20
-83.9505
 30
0
 11
-223.821
 21
-83.9573
 31
0
  0
LINE
  5
4BD
330
112
100
AcDbEntity
  8
ProjItem002
100
AcDbLine
 10
-225.986
 20
-94.7503
 30
0
 11
-225.986
 21
-83.9505
 31
0
  0
LINE
  5
4BE
330
112
100
AcDbEntity
  8
ProjItem002
100
AcDbLine
 10
-200.504
 20
-97.5306
 30
0
 11
-200.071
 21
-97.032
 31
0
  0
LINE
  5
4BF
330
112
100
AcDbEntity
  8
ProjItem002
100
AcDbLine
 10
-208.004
 20
-97.6017
 30
0
 11
-200.504
 21
-97.5306
 31
0
  0
ELLIPSE
  5
4C0
330
112
100
AcDbEntity
  8
ProjItem002
100
AcDbEllipse
 10
-192.533
 20
-87.1454
 30
0
 11
-0.00505594
 21
-1.59999
 31
0
 40
0.499993
 41
6.21099
 42
0
  0
ELLIPSE
  5
4C1
330
112
100
AcDbEntity
  8
ProjItem002
100
AcDbEllipse
 10
-192.533
 20
-87.1454
 30
0
 11
-0.00505594
 21
-1.59999
 31
0
 40
0.499993
 41
0
 42
1.57712
  0
ELLIPSE
  5
4C2
330
112
100
AcDbEntity
  8
ProjItem002
100
AcDbEllipse
 10
-192.533
 20
-87.1454
 30
0
 11
-0.00505594
 21
-1.59999
 31
0
 40
0.499993
 41
1.57712
 42
3.14159
  0
ELLIPSE
  5
4C3
330
112
100
AcDbEntity
  8
ProjItem002
100
AcDbEllipse
 10
-192.533
 20
-87.1454
 30
0
 11
-0.00505594
 21
-1.59999
 31
0
 40
0.499993
 41
3.14159
 42
3.21379
  0
ELLIPSE
  5
4C4
330
112
100
AcDbEntity
  8
ProjItem002
100
AcDbEllipse
 10
-193.486
 20
-87.1423
 30
0
 11
-0.00505594
 21
-1.59999
 31
0
 40
0.499993
 41
1.09392
 42
2.04767
  0
LINE
  5
4C5
330
112
100
AcDbEntity
  8
ProjItem002
100
AcDbLine
 10
-185.986
 20
-83.5713
 30
0
 11
-183.821
 21
-83.5781
 31
0
  0
LINE
  5
4C6
330
112
100
AcDbEntity
  8
ProjItem002
100
AcDbLine
 10
-225.986
 20
-83.9505
 30
0
 11
-185.986
 21
-83.5713
 31
0
  0
LINE
  5
4C7
330
112
100
AcDbEntity
  8
ProjItem002
100
AcDbLine
 10
-476.603
 20
-94.8638
 30
0
 11
-476.603
 21
-94.4044
 31
0
  0
LINE
  5
4C8
330
112
100
AcDbEntity
  8
ProjItem002
100
AcDbLine
 10
-186.603
 20
-94.8638
 30
0
 11
-186.603
 21
-94.4044
 31
0
  0
LINE
  5
4C9
330
112
100
AcDbEntity
  8
ProjItem002
100
AcDbLine
 10
-187.105
 20
-95.3681
 30
0
 11
-186.605
 21
-94.8681
 31
0
  0
LINE
  5
4CA
330
112
100
AcDbEntity
  8
ProjItem002
100
AcDbLine
 10
-476.101
 20
-95.3681
 30
0
 11
-476.601
 21
-94.8681
 31
0
  0
ELLIPSE
  5
4CB
330
112
100
AcDbEntity
  8
Section
100
AcDbEllipse
 10
148.5
 20
404.82
 30
0
 11
-1.50094e-11
 21
-26492.5
 31
0
 40
0.00547325
 41
1.55949
 42
1.55968
  0
ELLIPSE
  5
4CC
330
112
100
AcDbEntity
  8
Section
100
AcDbEllipse
 10
148.5
 20
404.82
 30
0
 11
-1.50094e-11
 21
-26492.5
 31
0
 40
0.00547325
 41
4.7235
 42
4.72369
  0
SPLINE
  5
4CD
330
112
100
AcDbEntity
  8
Section
100
AcDbSpline
210
0
220
0
230
1
 70
8
 71
1
 72
4
 73
2
 74
0
 40
4.77751
 40
4.77751
 40
4.78096
 40
4.78096
 10
4.00932
 20
104.891
 30
0
 10
3.50926
 20
105.391
 30
0
  0
ELLIPSE
  5
4CE
330
112
100
AcDbEntity
  8
Section
100
AcDbEllipse
 10
148.5
 20
104.9
 30
0
 11
144.5
 21
-5.53228e-14
 31
0
 40
0.00547325
 41
-3.13023
 42
-2.30814
  0
ELLIPSE
  5
4CF
330
112
100
AcDbEntity
  8
Section
100
AcDbEllipse
 10
148.5
 20
104.9
 30
0
 11
144.5
 21
-5.53228e-14
 31
0
 40
0.00547325
 41
-0.814954
 42
-0.0113607
  0
SPLINE
  5
4D0
330
112
100
AcDbEntity
  8
Section
100
AcDbSpline
210
0
220
0
230
1
 70
8
 71
1
 72
4
 73
2
 74
0
 40
-4.78096
 40
-4.78096
 40
-4.77751
 40
-4.77751
 10
293.491
 20
105.391
 30
0
 10
292.991
 20
104.891
 30
0
  0
LINE
  5
4D1
330
112
100
AcDbEntity
  8
Section
100
AcDbLine
 10
292.991
 20
104.891
 30
0
 11
247.618
 21
104.891
 31
0
  0
LINE
  5
4D2
330
112
100
AcDbEntity
  8
Section
100
AcDbLine
 10
247.571
 20
99.8914
 30
0
 11
247.618
 21
104.891
 31
0
  0
LINE
  5
4D3
330
112
100
AcDbEntity
  8
Section
100
AcDbLine
 10
247.571
 20
99.8914
 30
0
 11
156.993
 21
99.8914
 31
0
  0
ELLIPSE
  5
4D4
330
112
100
AcDbEntity
  8
Section
100
AcDbEllipse
 10
154.5
 20
404.82
 30
0
 11
6.71254e-14
 21
-548.121
 31
0
 40
0.00547325
 41
0.980851
 42
0.991789
  0
LINE
  5
4D5
330
112
100
AcDbEntity
  8
Section
100
AcDbLine
 10
157.011
 20
104.891
 30
0
 11
151.989
 21
104.891
 31
0
  0
ELLIPSE
  5
4D6
330
112
100
AcDbEntity
  8
Section
100
AcDbEllipse
 10
154.5
 20
404.82
 30
0
 11
6.71254e-14
 21
-548.121
 31
0
 40
0.00547325
 41
5.2914
 42
5.30233
  0
LINE
  5
4D7
330
112
100
AcDbEntity
  8
Section
100
AcDbLine
 10
152.007
 20
99.8914
 30
0
 11
144.993
 21
99.8914
 31
0
  0
ELLIPSE
  5
4D8
330
112
100
AcDbEntity
  8
Section
100
AcDbEllipse
 10
142.5
 20
404.82
 30
0
 11
-6.72183e-14
 21
548.121
 31
0
 40
0.00547325
 41
4.12244
 42
4.13338
  0
LINE
  5
4D9
330
112
100
AcDbEntity
  8
Section
100
AcDbLine
 10
145.011
 20
104.891
 30
0
 11
139.989
 21
104.891
 31
0
  0
ELLIPSE
  5
4DA
330
112
100
AcDbEntity
  8
Section
100
AcDbEllipse
 10
142.5
 20
404.82
 30
0
 11
-6.72183e-14
 21
548.121
 31
0
 40
0.00547325
 41
2.1498
 42
2.16074
  0
LINE
  5
4DB
330
112
100
AcDbEntity
  8
Section
100
AcDbLine
 10
140.007
 20
99.8914
 30
0
 11
51.3907
 21
99.8914
 31
0
  0
LINE
  5
4DC
330
112
100
AcDbEntity
  8
Section
100
AcDbLine
 10
51.3433
 20
104.891
 30
0
 11
51.3907
 21
99.8914
 31
0
  0
LINE
  5
4DD
330
112
100
AcDbEntity
  8
Section
100
AcDbLine
 10
51.3433
 20
104.891
 30
0
 11
4.00932
 21
104.891
 31
0
  0
SPLINE
  5
4DE
330
112
100
AcDbEntity
  8
Section
100
AcDbSpline
210
0
220
0
230
1
 70
8
 71
1
 72
4
 73
2
 74
0
 40
-5.8709
 40
-5.8709
 40
-5.86744
 40
-5.86744
 10
3.50895
 20
110.392
 30
0
 10
4.00896
 20
110.892
 30
0
  0
LINE
  5
4DF
330
112
100
AcDbEntity
  8
Section
100
AcDbLine
 10
292.991
 20
110.892
 30
0
 11
4.00896
 21
110.892
 31
0
  0
SPLINE
  5
4E0
330
112
100
AcDbEntity
  8
Section
100
AcDbSpline
210
0
220
0
230
1
 70
8
 71
1
 72
4
 73
2
 74
0
 40
5.86744
 40
5.86744
 40
5.8709
 40
5.8709
 10
292.991
 20
110.892
 30
0
 10
293.491
 20
110.392
 30
0
  0
LINE
  5
4E1
330
112
100
AcDbEntity
  8
Section
100
AcDbLine
 10
203.5
 20
99.7522
 30
0
 11
247.571
 21
99.8914
 31
0
  0
LINE
  5
4E2
330
112
100
AcDbEntity
  8
Section
100
AcDbLine
 10
98.4617
 20
99.1205
 30
0
 11
97.5192
 21
99.1278
 31
0
  0
LINE
  5
4E3
330
112
100
AcDbEntity
  8
Section
100
AcDbLine
 10
97.5192
 20
99.7141
 30
0
 11
97.5192
 21
99.1278
 31
0
  0
ELLIPSE
  5
4E4
330
112
100
AcDbEntity
  8
Section
100
AcDbEllipse
 10
87.5192
 20
99.7141
 30
0
 11
-10
 21
-1.60812e-15
 31
0
 40
0.00547325
 41
3.14159
 42
4.18879
  0
LINE
  5
4E5
330
112
100
AcDbEntity
  8
Section
100
AcDbLine
 10
51.3907
 20
99.8914
 30
0
 11
92.5192
 21
99.7615
 31
0
  0
ELLIPSE
  5
4E6
330
112
100
AcDbEntity
  8
Section
100
AcDbEllipse
 10
142.5
 20
99.9006
 30
0
 11
3
 21
1.83697e-16
 31
0
 40
0.00547325
 41
-2.55165
 42
-0.589945
  0
ELLIPSE
  5
4E7
330
112
100
AcDbEntity
  8
Section
100
AcDbEllipse
 10
154.5
 20
99.9006
 30
0
 11
3
 21
1.83697e-16
 31
0
 40
0.00547325
 41
-2.55165
 42
-0.589945
  0
ELLIPSE
  5
4E8
330
112
100
AcDbEntity
  8
Section
100
AcDbEllipse
 10
208.5
 20
99.7048
 30
0
 11
-10
 21
-1.60812e-15
 31
0
 40
0.00547325
 41
5.23599
 42
0
  0
LINE
  5
4E9
330
112
100
AcDbEntity
  8
Section
100
AcDbLine
 10
198.5
 20
99.1259
 30
0
 11
198.5
 21
99.7048
 31
0
  0
LINE
  5
4EA
330
112
100
AcDbEntity
  8
Section
100
AcDbLine
 10
198.5
 20
99.1259
 30
0
 11
197.555
 21
99.1186
 31
0
  0
ELLIPSE
  5
4EB
330
112
100
AcDbEntity
  8
Section
100
AcDbEllipse
 10
148.5
 20
99.9006
 30
0
 11
151.05
 21
9.24914e-15
 31
0
 40
0.00547325
 41
-1.288
 42
-1.24004
  0
LINE
  5
4EC
330
112
100
AcDbEntity
  8
Section
100
AcDbLine
 10
168.5
 20
99.1067
 30
0
 11
190.65
 21
99.1067
 31
0
  0
LINE
  5
4ED
330
112
100
AcDbEntity
  8
Section
100
AcDbLine
 10
168.5
 20
99.1723
 30
0
 11
168.5
 21
99.1067
 31
0
  0
ELLIPSE
  5
4EE
330
112
100
AcDbEntity
  8
Section
100
AcDbEllipse
 10
166.5
 20
99.1723
 30
0
 11
-2
 21
-3.21625e-16
 31
0
 40
0.00547325
 41
3.14159
 42
4.71239
  0
LINE
  5
4EF
330
112
100
AcDbEntity
  8
Section
100
AcDbLine
 10
130.5
 20
99.1833
 30
0
 11
166.5
 21
99.1833
 31
0
  0
ELLIPSE
  5
4F0
330
112
100
AcDbEntity
  8
Section
100
AcDbEllipse
 10
130.5
 20
99.1723
 30
0
 11
-2
 21
-3.21625e-16
 31
0
 40
0.00547325
 41
4.71239
 42
8.88178e-16
  0
LINE
  5
4F1
330
112
100
AcDbEntity
  8
Section
100
AcDbLine
 10
128.5
 20
99.1067
 30
0
 11
128.5
 21
99.1723
 31
0
  0
LINE
  5
4F2
330
112
100
AcDbEntity
  8
Section
100
AcDbLine
 10
106.35
 20
99.1067
 30
0
 11
128.5
 21
99.1067
 31
0
  0
ELLIPSE
  5
4F3
330
112
100
AcDbEntity
  8
Section
100
AcDbEllipse
 10
148.5
 20
99.9006
 30
0
 11
151.05
 21
9.24914e-15
 31
0
 40
0.00547325
 41
-1.90845
 42
-1.8536
  0
ELLIPSE
  5
4F4
330
112
100
AcDbEntity
  8
Section
100
AcDbEllipse
 10
171
 20
99.7774
 30
0
 11
4
 21
2.44929e-16
 31
0
 40
0.00547325
 41
-3.14707
 42
-3.14159
  0
ELLIPSE
  5
4F5
330
112
100
AcDbEntity
  8
Section
100
AcDbEllipse
 10
171
 20
99.7774
 30
0
 11
4
 21
2.44929e-16
 31
0
 40
0.00547325
 41
-6.27771
 42
-3.14707
  0
ELLIPSE
  5
4F6
330
112
100
AcDbEntity
  8
Section
100
AcDbEllipse
 10
171
 20
99.7774
 30
0
 11
4
 21
2.44929e-16
 31
0
 40
0.00547325
 41
-0
 42
-6.27771
  0
ELLIPSE
  5
4F7
330
112
100
AcDbEntity
  8
Section
100
AcDbEllipse
 10
171
 20
99.7774
 30
0
 11
4
 21
2.44929e-16
 31
0
 40
0.00547325
 41
-3.14159
 42
-0
  0
ELLIPSE
  5
4F8
330
112
100
AcDbEntity
  8
Section
100
AcDbEllipse
 10
126
 20
99.7774
 30
0
 11
4
 21
2.44929e-16
 31
0
 40
0.00547325
 41
-6.27771
 42
-4.71239
  0
ELLIPSE
  5
4F9
330
112
100
AcDbEntity
  8
Section
100
AcDbEllipse
 10
126
 20
99.7774
 30
0
 11
4
 21
2.44929e-16
 31
0
 40
0.00547325
 41
-1.5708
 42
-6.27771
  0
ELLIPSE
  5
4FA
330
112
100
AcDbEntity
  8
Section
100
AcDbEllipse
 10
126
 20
99.7774
 30
0
 11
4
 21
2.44929e-16
 31
0
 40
0.00547325
 41
-3.14707
 42
-1.5708
  0
ELLIPSE
  5
4FB
330
112
100
AcDbEntity
  8
Section
100
AcDbEllipse
 10
126
 20
99.7774
 30
0
 11
4
 21
2.44929e-16
 31
0
 40
0.00547325
 41
-4.71239
 42
-3.14707
  0
ELLIPSE
  5
4FC
330
112
100
AcDbEntity
  8
Section
100
AcDbEllipse
 10
154.5
 20
104.9
 30
0
 11
-3
 21
-4.82437e-16
 31
0
 40
0.00547325
 41
0.579007
 42
2.56259
  0
ELLIPSE
  5
4FD
330
112
100
AcDbEntity
  8
Section
100
AcDbEllipse
 10
142.5
 20
104.9
 30
0
 11
-3
 21
-4.82437e-16
 31
0
 40
0.00547325
 41
0.579007
 42
2.56259
  0
LINE
  5
4FE
330
112
100
AcDbEntity
  8
Section
100
AcDbLine
 10
166.75
 20
99.1641
 30
0
 11
166.75
 21
99.1832
 31
0
  0
LINE
  5
4FF
330
112
100
AcDbEntity
  8
Section
100
AcDbLine
 10
166.75
 20
99.1641
 30
0
 11
166.75
 21
99.1028
 31
0
  0
ELLIPSE
  5
500
330
112
100
AcDbEntity
  8
Section
100
AcDbEllipse
 10
164.25
 20
99.1641
 30
0
 11
2.5
 21
-4.02031e-16
 31
0
 40
0.00547325
 41
-0
 42
-4.71239
  0
LINE
  5
501
330
112
100
AcDbEntity
  8
Section
100
AcDbLine
 10
164.25
 20
99.1778
 30
0
 11
132.75
 21
99.1778
 31
0
  0
ELLIPSE
  5
502
330
112
100
AcDbEntity
  8
Section
100
AcDbEllipse
 10
132.75
 20
99.1641
 30
0
 11
2.5
 21
-4.02031e-16
 31
0
 40
0.00547325
 41
-4.71239
 42
-3.14159
  0
LINE
  5
503
330
112
100
AcDbEntity
  8
Section
100
AcDbLine
 10
130.25
 20
99.1832
 30
0
 11
130.25
 21
99.1641
 31
0
  0
LINE
  5
504
330
112
100
AcDbEntity
  8
Section
100
AcDbLine
 10
130.25
 20
99.1641
 30
0
 11
130.25
 21
99.1028
 31
0
  0
LINE
  5
505
330
112
100
AcDbEntity
  8
Section
100
AcDbLine
 10
108.5
 20
98.1028
 30
0
 11
188.5
 21
98.1028
 31
0
  0
LINE
  5
506
330
112
100
AcDbEntity
  8
Section
100
AcDbLine
 10
188.5
 20
99.1067
 30
0
 11
188.5
 21
98.1028
 31
0
  0
LINE
  5
507
330
112
100
AcDbEntity
  8
Section
100
AcDbLine
 10
108.5
 20
99.1067
 30
0
 11
108.5
 21
98.1028
 31
0
  0
LINE
  5
508
330
112
100
AcDbEntity
  8
Section
100
AcDbLine
 10
130.25
 20
99.1028
 30
0
 11
166.75
 21
99.1028
 31
0
  0
LINE
  5
509
330
112
100
AcDbEntity
  8
Section
100
AcDbLine
 10
188.5
 20
98.0892
 30
0
 11
108.5
 21
98.0892
 31
0
  0
LINE
  5
50A
330
112
100
AcDbEntity
  8
Section
100
AcDbLine
 10
188.5
 20
98.1028
 30
0
 11
188.5
 21
98.0892
 31
0
  0
LINE
  5
50B
330
112
100
AcDbEntity
  8
Section
100
AcDbLine
 10
108.5
 20
98.1028
 30
0
 11
108.5
 21
98.0892
 31
0
  0
LINE
  5
50C
330
112
100
AcDbEntity
  8
Section
100
AcDbLine
 10
156
 20
111.414
 30
0
 11
156
 21
111.911
 31
0
  0
LINE
  5
50D
330
112
100
AcDbEntity
  8
Section
100
AcDbLine
 10
156
 20
111.414
 30
0
 11
156
 21
110.892
 31
0
  0
SPLINE
  5
50E
330
112
100
AcDbEntity
  8
Section
100
AcDbSpline
210
0
220
0
230
1
 70
8
 71
2
 72
6
 73
3
 74
0
 40
2.16296
 40
2.16296
 40
2.16296
 40
2.41657
 40
2.41657
 40
2.41657
 10
145.984
 20
110.892
 30
0
 10
147.242
 20
110.914
 30
0
 10
148.5
 20
110.914
 30
0
  0
SPLINE
  5
50F
330
112
100
AcDbEntity
  8
Section
100
AcDbSpline
210
0
220
0
230
1
 70
8
 71
2
 72
6
 73
3
 74
0
 40
2.41657
 40
2.41657
 40
2.41657
 40
2.67019
 40
2.67019
 40
2.67019
 10
148.5
 20
110.914
 30
0
 10
149.758
 20
110.914
 30
0
 10
151.016
 20
110.892
 30
0
  0
LINE
  5
510
330
112
100
AcDbEntity
  8
Section
100
AcDbLine
 10
141
 20
111.414
 30
0
 11
141
 21
110.892
 31
0
  0
LINE
  5
511
330
112
100
AcDbEntity
  8
Section
100
AcDbLine
 10
141
 20
111.911
 30
0
 11
141
 21
111.414
 31
0
  0
LINE
  5
512
330
112
100
AcDbEntity
  8
Section
100
AcDbLine
 10
156
 20
111.911
 30
0
 11
141
 21
111.911
 31
0
  0
LINE
  5
513
330
112
100
AcDbEntity
  8
Section
100
AcDbLine
 10
141
 20
111.414
 30
0
 11
156
 21
111.414
 31
0
  0
LINE
  5
514
330
112
100
AcDbEntity
  8
Section001
100
AcDbLine
 10
295.114
 20
110.58
 30
0
 11
295.141
 21
105.58
 31
0
  0
LINE
  5
515
330
112
100
AcDbEntity
  8
Section001
100
AcDbLine
 10
5.11844
 20
108.993
 30
0
 11
5.14581
 21
103.993
 31
0
  0
SPLINE
  5
516
330
112
100
AcDbEntity
  8
Section001
100
AcDbSpline
210
0
220
0
230
1
 70
8
 71
1
 72
4
 73
2
 74
0
 40
7.96901
 40
7.96901
 40
7.97247
 40
7.97247
 10
5.64854
 20
103.496
 30
0
 10
5.14581
 20
103.993
 30
0
  0
SPLINE
  5
517
330
112
100
AcDbEntity
  8
Section001
100
AcDbSpline
210
0
220
0
230
1
 70
8
 71
1
 72
4
 73
2
 74
0
 40
-7.97247
 40
-7.97247
 40
-7.96901
 40
-7.96901
 10
295.141
 20
105.58
 30
0
 10
294.644
 20
105.078
 30
0
  0
LINE
  5
518
330
112
100
AcDbEntity
  8
Section001
100
AcDbLine
 10
294.644
 20
105.078
 30
0
 11
210.033
 21
104.615
 31
0
  0
LINE
  5
519
330
112
100
AcDbEntity
  8
Section001
100
AcDbLine
 10
210.06
 20
99.6146
 30
0
 11
210.033
 21
104.615
 31
0
  0
LINE
  5
51A
330
112
100
AcDbEntity
  8
Section001
100
AcDbLine
 10
210.06
 20
99.6146
 30
0
 11
19.1257
 21
98.5695
 31
0
  0
LINE
  5
51B
330
112
100
AcDbEntity
  8
Section001
100
AcDbLine
 10
19.0983
 20
103.569
 30
0
 11
19.1257
 21
98.5695
 31
0
  0
LINE
  5
51C
330
112
100
AcDbEntity
  8
Section001
100
AcDbLine
 10
19.0983
 20
103.569
 30
0
 11
18.0983
 21
103.564
 31
0
  0
LINE
  5
51D
330
112
100
AcDbEntity
  8
Section001
100
AcDbLine
 10
18.0983
 20
103.564
 30
0
 11
18.1257
 21
98.5641
 31
0
  0
LINE
  5
51E
330
112
100
AcDbEntity
  8
Section001
100
AcDbLine
 10
18.1257
 20
98.5641
 30
0
 11
4.42589
 21
98.4891
 31
0
  0
LINE
  5
51F
330
112
100
AcDbEntity
  8
Section001
100
AcDbLine
 10
4.42589
 20
98.4891
 30
0
 11
4.43136
 21
97.4891
 31
0
  0
LINE
  5
520
330
112
100
AcDbEntity
  8
Section001
100
AcDbLine
 10
4.43136
 20
97.4891
 30
0
 11
1.9314
 21
97.4754
 31
0
  0
LINE
  5
521
330
112
100
AcDbEntity
  8
Section001
100
AcDbLine
 10
1.9314
 20
97.4754
 30
0
 11
1.8586
 21
110.775
 31
0
  0
LINE
  5
522
330
112
100
AcDbEntity
  8
Section001
100
AcDbLine
 10
1.8586
 20
110.775
 30
0
 11
2.35586
 21
111.278
 31
0
  0
LINE
  5
523
330
112
100
AcDbEntity
  8
Section001
100
AcDbLine
 10
2.35586
 20
111.278
 30
0
 11
5.85581
 21
111.297
 31
0
  0
LINE
  5
524
330
112
100
AcDbEntity
  8
Section001
100
AcDbLine
 10
5.85581
 20
111.297
 30
0
 11
6.35854
 21
110.8
 31
0
  0
LINE
  5
525
330
112
100
AcDbEntity
  8
Section001
100
AcDbLine
 10
6.35854
 20
110.8
 30
0
 11
6.36127
 21
110.3
 31
0
  0
SPLINE
  5
526
330
112
100
AcDbEntity
  8
Section001
100
AcDbSpline
210
0
220
0
230
1
 70
8
 71
2
 72
6
 73
3
 74
0
 40
-7.97762
 40
-7.97762
 40
-7.97762
 40
-7.96381
 40
-7.96381
 40
-7.96381
 10
4.37228
 20
108.289
 30
0
 10
5.37362
 20
109.301
 30
0
 10
6.36127
 20
110.3
 30
0
  0
LINE
  5
527
330
112
100
AcDbEntity
  8
Section001
100
AcDbLine
 10
4.37228
 20
108.289
 30
0
 11
4.37225
 21
108.289
 31
0
  0
LINE
  5
528
330
112
100
AcDbEntity
  8
Section001
100
AcDbLine
 10
4.37225
 20
108.289
 30
0
 11
4.39852
 21
103.489
 31
0
  0
LINE
  5
529
330
112
100
AcDbEntity
  8
Section001
100
AcDbLine
 10
4.39852
 20
103.489
 30
0
 11
5.64854
 21
103.496
 31
0
  0
SPLINE
  5
52A
330
112
100
AcDbEntity
  8
Section001
100
AcDbSpline
210
0
220
0
230
1
 70
8
 71
1
 72
4
 73
2
 74
0
 40
-7.97247
 40
-7.97247
 40
-7.96901
 40
-7.96901
 10
5.11844
 20
108.993
 30
0
 10
5.6157
 20
109.496
 30
0
  0
LINE
  5
52B
330
112
100
AcDbEntity
  8
Section001
100
AcDbLine
 10
294.611
 20
111.078
 30
0
 11
5.6157
 21
109.496
 31
0
  0
SPLINE
  5
52C
330
112
100
AcDbEntity
  8
Section001
100
AcDbSpline
210
0
220
0
230
1
 70
8
 71
1
 72
4
 73
2
 74
0
 40
7.96901
 40
7.96901
 40
7.97247
 40
7.97247
 10
294.611
 20
111.078
 30
0
 10
295.114
 20
110.58
 30
0
  0
LINE
  5
52D
330
112
100
AcDbEntity
  8
Section001
100
AcDbLine
 10
230.123
 20
112.525
 30
0
 11
230.375
 21
112.026
 31
0
  0
LINE
  5
52E
330
112
100
AcDbEntity
  8
Section001
100
AcDbLine
 10
230.382
 20
110.726
 30
0
 11
230.375
 21
112.026
 31
0
  0
SPLINE
  5
52F
330
112
100
AcDbEntity
  8
Section001
100
AcDbSpline
210
0
220
0
230
1
 70
8
 71
1
 72
4
 73
2
 74
0
 40
0.0278426
 40
0.0278426
 40
0.113684
 40
0.113684
 10
228.129
 20
111.318
 30
0
 10
228.435
 20
110.715
 30
0
  0
LINE
  5
530
330
112
100
AcDbEntity
  8
Section001
100
AcDbLine
 10
228.125
 20
112.014
 30
0
 11
228.129
 21
111.318
 31
0
  0
LINE
  5
531
330
112
100
AcDbEntity
  8
Section001
100
AcDbLine
 10
228.125
 20
112.014
 30
0
 11
228.373
 21
112.515
 31
0
  0
LINE
  5
532
330
112
100
AcDbEntity
  8
Section001
100
AcDbLine
 10
230.123
 20
112.525
 30
0
 11
228.373
 21
112.515
 31
0
  0
SPLINE
  5
533
330
112
100
AcDbEntity
  8
Section001
100
AcDbSpline
210
0
220
0
230
1
 70
8
 71
1
 72
4
 73
2
 74
0
 40
0.169349
 40
0.169349
 40
0.25519
 40
0.25519
 10
215.445
 20
110.644
 30
0
 10
215.139
 20
111.247
 30
0
  0
LINE
  5
534
330
112
100
AcDbEntity
  8
Section001
100
AcDbLine
 10
215.135
 20
111.943
 30
0
 11
215.139
 21
111.247
 31
0
  0
LINE
  5
535
330
112
100
AcDbEntity
  8
Section001
100
AcDbLine
 10
215.382
 20
112.444
 30
0
 11
215.135
 21
111.943
 31
0
  0
SPLINE
  5
536
330
112
100
AcDbEntity
  8
Section001
100
AcDbSpline
210
0
220
0
230
1
 70
8
 71
2
 72
28
 73
25
 74
0
 40
5.49779
 40
5.49779
 40
5.49779
 40
5.57259
 40
5.57259
 40
5.64739
 40
5.64739
 40
5.72219
 40
5.72219
 40
5.79699
 40
5.79699
 40
5.87179
 40
5.87179
 40
5.94659
 40
5.94659
 40
6.02139
 40
6.02139
 40
6.09619
 40
6.09619
 40
6.17099
 40
6.17099
 40
6.24579
 40
6.24579
 40
6.39539
 40
6.39539
 40
6.54498
 40
6.54498
 40
6.54498
 10
19.0983
 20
103.569
 30
0
 10
19.0955
 20
103.569
 30
0
 10
19.0927
 20
103.569
 30
0
 10
19.0843
 20
103.569
 30
0
 10
19.076
 20
103.569
 30
0
 10
19.0621
 20
103.569
 30
0
 10
19.0482
 20
103.569
 30
0
 10
19.0288
 20
103.569
 30
0
 10
19.0094
 20
103.569
 30
0
 10
18.9847
 20
103.569
 30
0
 10
18.9601
 20
103.569
 30
0
 10
18.9301
 20
103.569
 30
0
 10
18.9002
 20
103.568
 30
0
 10
18.8653
 20
103.568
 30
0
 10
18.8304
 20
103.568
 30
0
 10
18.7906
 20
103.568
 30
0
 10
18.7508
 20
103.568
 30
0
 10
18.7064
 20
103.567
 30
0
 10
18.662
 20
103.567
 30
0
 10
18.6132
 20
103.567
 30
0
 10
18.5644
 20
103.567
 30
0
 10
18.4608
 20
103.566
 30
0
 10
18.3453
 20
103.565
 30
0
 10
18.2267
 20
103.565
 30
0
 10
18.0983
 20
103.564
 30
0
  0
LINE
  5
537
330
112
100
AcDbEntity
  8
Section001
100
AcDbLine
 10
5.09851
 20
103.493
 30
0
 11
5.64854
 21
103.496
 31
0
  0
SPLINE
  5
538
330
112
100
AcDbEntity
  8
Section001
100
AcDbSpline
210
0
220
0
230
1
 70
8
 71
1
 72
17
 73
15
 74
0
 40
5.75959
 40
5.75959
 40
5.79069
 40
5.82179
 40
5.85289
 40
5.88399
 40
5.91509
 40
5.94619
 40
5.97729
 40
6.00839
 40
6.03949
 40
6.07059
 40
6.10169
 40
6.13279
 40
6.16389
 40
6.19499
 40
6.19499
 10
211.333
 20
104.622
 30
0
 10
211.182
 20
104.621
 30
0
 10
211.039
 20
104.62
 30
0
 10
210.905
 20
104.619
 30
0
 10
210.78
 20
104.619
 30
0
 10
210.664
 20
104.618
 30
0
 10
210.556
 20
104.617
 30
0
 10
210.458
 20
104.617
 30
0
 10
210.369
 20
104.616
 30
0
 10
210.289
 20
104.616
 30
0
 10
210.219
 20
104.616
 30
0
 10
210.158
 20
104.615
 30
0
 10
210.107
 20
104.615
 30
0
 10
210.065
 20
104.615
 30
0
 10
210.033
 20
104.615
 30
0
  0
SPLINE
  5
539
330
112
100
AcDbEntity
  8
Section001
100
AcDbSpline
210
0
220
0
230
1
 70
8
 71
1
 72
17
 73
15
 74
0
 40
6.37138
 40
6.37138
 40
6.40248
 40
6.43358
 40
6.46468
 40
6.49578
 40
6.52688
 40
6.55798
 40
6.58908
 40
6.62018
 40
6.65128
 40
6.68238
 40
6.71348
 40
6.74458
 40
6.77568
 40
6.80678
 40
6.80678
 10
210.06
 20
99.6146
 30
0
 10
210.092
 20
99.6148
 30
0
 10
210.134
 20
99.615
 30
0
 10
210.185
 20
99.6153
 30
0
 10
210.246
 20
99.6156
 30
0
 10
210.317
 20
99.616
 30
0
 10
210.396
 20
99.6164
 30
0
 10
210.485
 20
99.6169
 30
0
 10
210.584
 20
99.6175
 30
0
 10
210.691
 20
99.618
 30
0
 10
210.807
 20
99.6187
 30
0
 10
210.933
 20
99.6194
 30
0
 10
211.067
 20
99.6201
 30
0
 10
211.21
 20
99.6209
 30
0
 10
211.361
 20
99.6217
 30
0
  0
LINE
  5
53A
330
112
100
AcDbEntity
  8
Section001
100
AcDbLine
 10
264.241
 20
99.9111
 30
0
 11
211.361
 21
99.6217
 31
0
  0
SPLINE
  5
53B
330
112
100
AcDbEntity
  8
Section001
100
AcDbSpline
210
0
220
0
230
1
 70
8
 71
2
 72
30
 73
27
 74
0
 40
6.02139
 40
6.02139
 40
6.02139
 40
6.09619
 40
6.09619
 40
6.24579
 40
6.24579
 40
6.32059
 40
6.32059
 40
6.39539
 40
6.39539
 40
6.47018
 40
6.47018
 40
6.54498
 40
6.54498
 40
6.61978
 40
6.61978
 40
6.69458
 40
6.69458
 40
6.76938
 40
6.76938
 40
6.84418
 40
6.84418
 40
6.91898
 40
6.91898
 40
6.99378
 40
6.99378
 40
7.06858
 40
7.06858
 40
7.06858
 10
18.1257
 20
98.5641
 30
0
 10
18.189
 20
98.5644
 30
0
 10
18.2523
 20
98.5648
 30
0
 10
18.3746
 20
98.5654
 30
0
 10
18.486
 20
98.566
 30
0
 10
18.5389
 20
98.5663
 30
0
 10
18.5918
 20
98.5666
 30
0
 10
18.6406
 20
98.5669
 30
0
 10
18.6893
 20
98.5672
 30
0
 10
18.7337
 20
98.5674
 30
0
 10
18.7782
 20
98.5676
 30
0
 10
18.8179
 20
98.5679
 30
0
 10
18.8577
 20
98.5681
 30
0
 10
18.8927
 20
98.5683
 30
0
 10
18.9276
 20
98.5685
 30
0
 10
18.9575
 20
98.5686
 30
0
 10
18.9874
 20
98.5688
 30
0
 10
19.0121
 20
98.5689
 30
0
 10
19.0368
 20
98.5691
 30
0
 10
19.0562
 20
98.5692
 30
0
 10
19.0755
 20
98.5693
 30
0
 10
19.0894
 20
98.5693
 30
0
 10
19.1033
 20
98.5694
 30
0
 10
19.1117
 20
98.5695
 30
0
 10
19.1201
 20
98.5695
 30
0
 10
19.1229
 20
98.5695
 30
0
 10
19.1257
 20
98.5695
 30
0
  0
SPLINE
  5
53C
330
112
100
AcDbEntity
  8
Section001
100
AcDbSpline
210
0
220
0
230
1
 70
8
 71
2
 72
6
 73
3
 74
0
 40
2.42665
 40
2.42665
 40
2.42665
 40
3.17272
 40
3.17272
 40
3.17272
 10
6.36127
 20
110.3
 30
0
 10
6.36129
 20
110.297
 30
0
 10
6.36234
 20
110.104
 30
0
  0
SPLINE
  5
53D
330
112
100
AcDbEntity
  8
Section001
100
AcDbSpline
210
0
220
0
230
1
 70
8
 71
1
 72
4
 73
2
 74
0
 40
0.0278426
 40
0.0278426
 40
0.113684
 40
0.113684
 10
6.36234
 20
110.104
 30
0
 10
5.76036
 20
109.497
 30
0
  0
SPLINE
  5
53E
330
112
100
AcDbEntity
  8
Section001
100
AcDbSpline
210
0
220
0
230
1
 70
8
 71
1
 72
4
 73
2
 74
0
 40
0.204715
 40
0.204715
 40
0.283033
 40
0.283033
 10
5.11923
 20
108.849
 30
0
 10
4.56534
 20
108.29
 30
0
  0
SPLINE
  5
53F
330
112
100
AcDbEntity
  8
Section001
100
AcDbSpline
210
0
220
0
230
1
 70
8
 71
2
 72
6
 73
3
 74
0
 40
6.2317
 40
6.2317
 40
6.2317
 40
6.2825
 40
6.2825
 40
6.2825
 10
4.56534
 20
108.29
 30
0
 10
4.37525
 20
108.289
 30
0
 10
4.37228
 20
108.289
 30
0
  0
LINE
  5
540
330
112
100
AcDbEntity
  8
Section001
100
AcDbLine
 10
258.594
 20
98.8802
 30
0
 11
258.588
 21
99.8802
 31
0
  0
SPLINE
  5
541
330
112
100
AcDbEntity
  8
Section001
100
AcDbSpline
210
0
220
0
230
1
 70
8
 71
2
 72
6
 73
3
 74
0
 40
2.41657
 40
2.41657
 40
2.41657
 40
3.17272
 40
3.17272
 40
3.17272
 10
221.633
 20
111.478
 30
0
 10
224.881
 20
111.496
 30
0
 10
228.129
 20
111.318
 30
0
  0
SPLINE
  5
542
330
112
100
AcDbEntity
  8
Section001
100
AcDbSpline
210
0
220
0
230
1
 70
8
 71
2
 72
6
 73
3
 74
0
 40
1.66043
 40
1.66043
 40
1.66043
 40
2.41657
 40
2.41657
 40
2.41657
 10
215.139
 20
111.247
 30
0
 10
218.385
 20
111.46
 30
0
 10
221.633
 20
111.478
 30
0
  0
LINE
  5
543
330
112
100
AcDbEntity
  8
Section001
100
AcDbLine
 10
215.135
 20
111.943
 30
0
 11
228.125
 21
112.014
 31
0
  0
LINE
  5
544
330
112
100
AcDbEntity
  8
Section001
100
AcDbLine
 10
228.373
 20
112.515
 30
0
 11
215.382
 21
112.444
 31
0
  0
LINE
  5
545
330
112
100
AcDbEntity
  8
Section001
100
AcDbLine
 10
264.213
 20
104.911
 30
0
 11
264.241
 21
99.9111
 31
0
  0
LINE
  5
546
330
112
100
AcDbEntity
  8
Section001
100
AcDbLine
 10
188.057
 20
99.4942
 30
0
 11
188.063
 21
98.4942
 31
0
  0
LINE
  5
547
330
112
100
AcDbEntity
  8
Section001
100
AcDbLine
 10
257.338
 20
99.8734
 30
0
 11
257.344
 21
98.8734
 31
0
  0
LINE
  5
548
330
112
100
AcDbEntity
  8
Section001
100
AcDbLine
 10
188.063
 20
98.4942
 30
0
 11
257.344
 21
98.8734
 31
0
  0
LINE
  5
549
330
112
100
AcDbEntity
  8
Section001
100
AcDbLine
 10
257.344
 20
98.8734
 30
0
 11
258.594
 21
98.8802
 31
0
  0
LINE
  5
54A
330
112
100
AcDbEntity
  8
Section001
100
AcDbLine
 10
18.1038
 20
102.554
 30
0
 11
19.1038
 21
102.559
 31
0
  0
LINE
  5
54B
330
112
100
AcDbEntity
  8
Section001
100
AcDbLine
 10
18.1202
 20
99.5741
 30
0
 11
19.1201
 21
99.5795
 31
0
  0
LINE
  5
54C
330
112
100
AcDbEntity
  8
Section005
100
AcDbLine
 10
372.932
 20
63.2747
 30
0
 11
332.932
 21
132.558
 31
0
  0
LINE
  5
54D
330
112
100
AcDbEntity
  8
Section005
100
AcDbLine
 10
372.932
 20
63.2279
 30
0
 11
372.932
 21
63.2747
 31
0
  0
LINE
  5
54E
330
112
100
AcDbEntity
  8
Section005
100
AcDbLine
 10
332.932
 20
132.509
 30
0
 11
372.932
 21
63.2279
 31
0
  0
LINE
  5
54F
330
112
100
AcDbEntity
  8
Section005
100
AcDbLine
 10
332.932
 20
132.509
 30
0
 11
332.932
 21
132.558
 31
0
  0
ELLIPSE
  5
550
330
112
100
AcDbEntity
  8
Section005
100
AcDbEllipse
 10
365.432
 20
76.2373
 30
0
 11
1.49998
 21
-2.59809
 31
0
 40
0.00273662
 41
-6.28045
 42
-6.27845
  0
ELLIPSE
  5
551
330
112
100
AcDbEntity
  8
Section005
100
AcDbEllipse
 10
365.432
 20
76.2373
 30
0
 11
1.49998
 21
-2.59809
 31
0
 40
0.00273662
 41
-3.13685
 42
-6.28045
  0
ELLIPSE
  5
552
330
112
100
AcDbEntity
  8
Section005
100
AcDbEllipse
 10
365.432
 20
76.2373
 30
0
 11
1.49998
 21
-2.59809
 31
0
 40
0.00273662
 41
-3.14433
 42
-3.13685
  0
ELLIPSE
  5
553
330
112
100
AcDbEntity
  8
Section005
100
AcDbEllipse
 10
365.432
 20
76.2373
 30
0
 11
1.49998
 21
-2.59809
 31
0
 40
0.00273662
 41
-6.27845
 42
-3.14433
  0
ELLIPSE
  5
554
330
112
100
AcDbEntity
  8
Section005
100
AcDbEllipse
 10
340.432
 20
119.538
 30
0
 11
1.49998
 21
-2.59809
 31
0
 40
0.00273662
 41
-3.14433
 42
-3.13685
  0
ELLIPSE
  5
555
330
112
100
AcDbEntity
  8
Section005
100
AcDbEllipse
 10
340.432
 20
119.538
 30
0
 11
1.49998
 21
-2.59809
 31
0
 40
0.00273662
 41
-6.27845
 42
-3.14433
  0
ELLIPSE
  5
556
330
112
100
AcDbEntity
  8
Section005
100
AcDbEllipse
 10
340.432
 20
119.538
 30
0
 11
1.49998
 21
-2.59809
 31
0
 40
0.00273662
 41
-6.28045
 42
-6.27845
  0
ELLIPSE
  5
557
330
112
100
AcDbEntity
  8
Section005
100
AcDbEllipse
 10
340.432
 20
119.538
 30
0
 11
1.49998
 21
-2.59809
 31
0
 40
0.00273662
 41
-3.13685
 42
-6.28045
  0
LINE
  5
558
330
112
100
AcDbEntity
  8
Section005
100
AcDbLine
 10
332.932
 20
132.558
 30
0
 11
335.097
 21
133.808
 31
0
  0
LINE
  5
559
330
112
100
AcDbEntity
  8
Section005
100
AcDbLine
 10
335.097
 20
133.808
 30
0
 11
375.097
 21
64.5247
 31
0
  0
LINE
  5
55A
330
112
100
AcDbEntity
  8
Section005
100
AcDbLine
 10
372.932
 20
63.2747
 30
0
 11
375.097
 21
64.5247
 31
0
  0
LINE
  5
55B
330
112
100
AcDbEntity
  8
Section005
100
AcDbLine
 10
375.097
 20
64.4834
 30
0
 11
375.097
 21
64.4779
 31
0
  0
LINE
  5
55C
330
112
100
AcDbEntity
  8
Section005
100
AcDbLine
 10
375.097
 20
64.5108
 30
0
 11
375.097
 21
64.4834
 31
0
  0
LINE
  5
55D
330
112
100
AcDbEntity
  8
Section005
100
AcDbLine
 10
375.097
 20
64.5247
 30
0
 11
375.097
 21
64.5108
 31
0
  0
LINE
  5
55E
330
112
100
AcDbEntity
  8
Section005
100
AcDbLine
 10
375.097
 20
64.4779
 30
0
 11
372.932
 21
63.2279
 31
0
  0
LINE
  5
55F
330
112
100
AcDbEntity
  8
Section005
100
AcDbLine
 10
376.172
 20
62.6217
 30
0
 11
375.097
 21
64.4834
 31
0
  0
LINE
  5
560
330
112
100
AcDbEntity
  8
Section005
100
AcDbLine
 10
376.172
 20
62.6491
 30
0
 11
376.172
 21
62.6217
 31
0
  0
LINE
  5
561
330
112
100
AcDbEntity
  8
Section005
100
AcDbLine
 10
375.097
 20
64.5108
 30
0
 11
376.172
 21
62.6491
 31
0
  0
LINE
  5
562
330
112
100
AcDbEntity
  8
Section005
100
AcDbLine
 10
334.022
 20
135.626
 30
0
 11
334.022
 21
135.653
 31
0
  0
LINE
  5
563
330
112
100
AcDbEntity
  8
Section005
100
AcDbLine
 10
335.078
 20
133.797
 30
0
 11
334.022
 21
135.626
 31
0
  0
LINE
  5
564
330
112
100
AcDbEntity
  8
Section005
100
AcDbLine
 10
334.022
 20
135.653
 30
0
 11
335.09
 21
133.804
 31
0
  0
LINE
  5
565
330
112
100
AcDbEntity
  8
Section005
100
AcDbLine
 10
337.843
 20
146.924
 30
0
 11
333.141
 21
144.21
 31
0
  0
LINE
  5
566
330
112
100
AcDbEntity
  8
Section005
100
AcDbLine
 10
332.464
 20
142.727
 30
0
 11
333.141
 21
144.21
 31
0
  0
ELLIPSE
  5
567
330
112
100
AcDbEntity
  8
Section005
100
AcDbEllipse
 10
480.714
 20
171.675
 30
0
 11
151.05
 21
3.39677e-12
 31
0
 40
0.999985
 41
3.33443
 42
3.38239
  0
ELLIPSE
  5
568
330
112
100
AcDbEntity
  8
Section005
100
AcDbEllipse
 10
480.714
 20
171.675
 30
0
 11
151.05
 21
3.39677e-12
 31
0
 40
0.999985
 41
3.94799
 42
4.00284
  0
LINE
  5
569
330
112
100
AcDbEntity
  8
Section005
100
AcDbLine
 10
383.933
 20
56.9329
 30
0
 11
382.306
 21
57.0819
 31
0
  0
LINE
  5
56A
330
112
100
AcDbEntity
  8
Section005
100
AcDbLine
 10
383.933
 20
56.9329
 30
0
 11
388.65
 21
59.6562
 31
0
  0
ELLIPSE
  5
56B
330
112
100
AcDbEntity
  8
Section005
100
AcDbEllipse
 10
480.714
 20
171.648
 30
0
 11
151.05
 21
3.39677e-12
 31
0
 40
0.999985
 41
6.04239
 42
6.09724
  0
LINE
  5
56C
330
112
100
AcDbEntity
  8
Section005
100
AcDbLine
 10
627.406
 20
135.626
 30
0
 11
626.35
 21
133.797
 31
0
  0
LINE
  5
56D
330
112
100
AcDbEntity
  8
Section005
100
AcDbLine
 10
586.331
 20
64.4834
 30
0
 11
585.256
 21
62.6217
 31
0
  0
ELLIPSE
  5
56E
330
112
100
AcDbEntity
  8
Section005
100
AcDbEllipse
 10
480.714
 20
171.648
 30
0
 11
151.05
 21
3.39677e-12
 31
0
 40
0.999985
 41
5.42883
 42
5.47679
  0
LINE
  5
56F
330
112
100
AcDbEntity
  8
Section005
100
AcDbLine
 10
578.286
 20
57.581
 30
0
 11
579.909
 21
57.7352
 31
0
  0
LINE
  5
570
330
112
100
AcDbEntity
  8
Section005
100
AcDbLine
 10
578.286
 20
57.581
 30
0
 11
573.564
 21
60.3072
 31
0
  0
LINE
  5
571
330
112
100
AcDbEntity
  8
Section005
100
AcDbLine
 10
388.67
 20
59.6401
 30
0
 11
383.933
 21
56.9055
 31
0
  0
LINE
  5
572
330
112
100
AcDbEntity
  8
Section005
100
AcDbLine
 10
382.306
 20
57.0545
 30
0
 11
383.933
 21
56.9055
 31
0
  0
ELLIPSE
  5
573
330
112
100
AcDbEntity
  8
Section005
100
AcDbEllipse
 10
480.714
 20
171.648
 30
0
 11
151.05
 21
3.39677e-12
 31
0
 40
0.999985
 41
3.94799
 42
4.00284
  0
ELLIPSE
  5
574
330
112
100
AcDbEntity
  8
Section005
100
AcDbEllipse
 10
480.714
 20
171.648
 30
0
 11
151.05
 21
3.39677e-12
 31
0
 40
0.999985
 41
3.33443
 42
3.38239
  0
LINE
  5
575
330
112
100
AcDbEntity
  8
Section005
100
AcDbLine
 10
382.306
 20
57.0819
 30
0
 11
382.306
 21
57.0545
 31
0
  0
LINE
  5
576
330
112
100
AcDbEntity
  8
Section005
100
AcDbLine
 10
332.464
 20
142.7
 30
0
 11
332.464
 21
142.727
 31
0
  0
LINE
  5
577
330
112
100
AcDbEntity
  8
Section005
100
AcDbLine
 10
383.933
 20
56.9055
 30
0
 11
383.933
 21
56.9329
 31
0
  0
ELLIPSE
  5
578
330
112
100
AcDbEntity
  8
Section005
100
AcDbEllipse
 10
480.714
 20
171.678
 30
0
 11
-145
 21
7.25308e-12
 31
0
 40
0.999985
 41
-0
 42
-5.45407
  0
ELLIPSE
  5
579
330
112
100
AcDbEntity
  8
Section005
100
AcDbEllipse
 10
480.714
 20
171.678
 30
0
 11
-145
 21
7.25308e-12
 31
0
 40
0.999985
 41
-5.45407
 42
-3.14159
  0
LINE
  5
57A
330
112
100
AcDbEntity
  8
Section005
100
AcDbLine
 10
429.733
 20
312.86
 30
0
 11
430.676
 21
314.194
 31
0
  0
ELLIPSE
  5
57B
330
112
100
AcDbEntity
  8
Section005
100
AcDbEllipse
 10
480.714
 20
171.675
 30
0
 11
151.05
 21
3.39677e-12
 31
0
 40
0.999985
 41
1.8536
 42
1.90845
  0
LINE
  5
57C
330
112
100
AcDbEntity
  8
Section005
100
AcDbLine
 10
460.714
 20
316.723
 30
0
 11
438.564
 21
316.723
 31
0
  0
LINE
  5
57D
330
112
100
AcDbEntity
  8
Section005
100
AcDbLine
 10
460.714
 20
315.309
 30
0
 11
460.714
 21
316.723
 31
0
  0
LINE
  5
57E
330
112
100
AcDbEntity
  8
Section005
100
AcDbLine
 10
500.714
 20
316.723
 30
0
 11
500.714
 21
315.309
 31
0
  0
LINE
  5
57F
330
112
100
AcDbEntity
  8
Section005
100
AcDbLine
 10
522.864
 20
316.723
 30
0
 11
500.714
 21
316.723
 31
0
  0
ELLIPSE
  5
580
330
112
100
AcDbEntity
  8
Section005
100
AcDbEllipse
 10
480.714
 20
171.675
 30
0
 11
151.05
 21
3.39677e-12
 31
0
 40
0.999985
 41
1.24004
 42
1.288
  0
LINE
  5
581
330
112
100
AcDbEntity
  8
Section005
100
AcDbLine
 10
529.769
 20
314.535
 30
0
 11
530.714
 21
313.208
 31
0
  0
LINE
  5
582
330
112
100
AcDbEntity
  8
Section005
100
AcDbLine
 10
530.714
 20
307.801
 30
0
 11
530.714
 21
313.208
 31
0
  0
LINE
  5
583
330
112
100
AcDbEntity
  8
Section005
100
AcDbLine
 10
628.476
 20
145.233
 30
0
 11
623.76
 21
147.955
 31
0
  0
LINE
  5
584
330
112
100
AcDbEntity
  8
Section005
100
AcDbLine
 10
628.476
 20
145.233
 30
0
 11
629.16
 21
143.749
 31
0
  0
LINE
  5
585
330
112
100
AcDbEntity
  8
Section005
100
AcDbLine
 10
629.16
 20
143.749
 30
0
 11
629.16
 21
143.722
 31
0
  0
ELLIPSE
  5
586
330
112
100
AcDbEntity
  8
Section005
100
AcDbEllipse
 10
480.714
 20
171.675
 30
0
 11
151.05
 21
3.39677e-12
 31
0
 40
0.999985
 41
6.04239
 42
6.09724
  0
LINE
  5
587
330
112
100
AcDbEntity
  8
Section005
100
AcDbLine
 10
627.406
 20
135.653
 30
0
 11
627.406
 21
135.626
 31
0
  0
LINE
  5
588
330
112
100
AcDbEntity
  8
Section005
100
AcDbLine
 10
626.338
 20
133.804
 30
0
 11
627.406
 21
135.653
 31
0
  0
LINE
  5
589
330
112
100
AcDbEntity
  8
Section005
100
AcDbLine
 10
586.331
 20
64.4834
 30
0
 11
586.331
 21
64.4779
 31
0
  0
LINE
  5
58A
330
112
100
AcDbEntity
  8
Section005
100
AcDbLine
 10
585.256
 20
62.6217
 30
0
 11
585.256
 21
62.6491
 31
0
  0
LINE
  5
58B
330
112
100
AcDbEntity
  8
Section005
100
AcDbLine
 10
586.331
 20
64.5108
 30
0
 11
586.331
 21
64.4834
 31
0
  0
LINE
  5
58C
330
112
100
AcDbEntity
  8
Section005
100
AcDbLine
 10
585.256
 20
62.6491
 30
0
 11
586.331
 21
64.5108
 31
0
  0
LINE
  5
58D
330
112
100
AcDbEntity
  8
Section005
100
AcDbLine
 10
579.909
 20
57.7352
 30
0
 11
579.909
 21
57.7625
 31
0
  0
ELLIPSE
  5
58E
330
112
100
AcDbEntity
  8
Section005
100
AcDbEllipse
 10
480.714
 20
171.675
 30
0
 11
151.05
 21
3.39677e-12
 31
0
 40
0.999985
 41
5.42883
 42
5.47679
  0
LINE
  5
58F
330
112
100
AcDbEntity
  8
Section005
100
AcDbLine
 10
579.909
 20
57.7625
 30
0
 11
578.286
 21
57.6083
 31
0
  0
LINE
  5
590
330
112
100
AcDbEntity
  8
Section005
100
AcDbLine
 10
578.286
 20
57.6083
 30
0
 11
578.286
 21
57.581
 31
0
  0
LINE
  5
591
330
112
100
AcDbEntity
  8
Section005
100
AcDbLine
 10
573.584
 20
60.3234
 30
0
 11
578.286
 21
57.6083
 31
0
  0
LINE
  5
592
330
112
100
AcDbEntity
  8
Section005
100
AcDbLine
 10
429.733
 20
312.86
 30
0
 11
429.733
 21
307.437
 31
0
  0
ELLIPSE
  5
593
330
112
100
AcDbEntity
  8
Section005
100
AcDbEllipse
 10
480.714
 20
171.692
 30
0
 11
-7.29427e-12
 21
-145.002
 31
0
 40
0.999985
 41
5.54151
 42
1.5708
  0
ELLIPSE
  5
594
330
112
100
AcDbEntity
  8
Section005
100
AcDbEllipse
 10
480.714
 20
171.692
 30
0
 11
-7.29427e-12
 21
-145.002
 31
0
 40
0.999985
 41
1.5708
 42
4.71239
  0
ELLIPSE
  5
595
330
112
100
AcDbEntity
  8
Section005
100
AcDbEllipse
 10
480.714
 20
171.692
 30
0
 11
-7.29427e-12
 21
-145.002
 31
0
 40
0.999985
 41
4.71239
 42
5.54151
  0
LINE
  5
596
330
112
100
AcDbEntity
  8
Section005
100
AcDbLine
 10
462.464
 20
317.423
 30
0
 11
462.464
 21
315.541
 31
0
  0
LINE
  5
597
330
112
100
AcDbEntity
  8
Section005
100
AcDbLine
 10
462.464
 20
317.423
 30
0
 11
498.964
 21
317.423
 31
0
  0
LINE
  5
598
330
112
100
AcDbEntity
  8
Section005
100
AcDbLine
 10
498.964
 20
317.423
 30
0
 11
498.964
 21
315.541
 31
0
  0
LINE
  5
599
330
112
100
AcDbEntity
  8
Section005
100
AcDbLine
 10
628.496
 20
132.558
 30
0
 11
626.331
 21
133.808
 31
0
  0
LINE
  5
59A
330
112
100
AcDbEntity
  8
Section005
100
AcDbLine
 10
628.496
 20
132.509
 30
0
 11
628.496
 21
132.558
 31
0
  0
LINE
  5
59B
330
112
100
AcDbEntity
  8
Section005
100
AcDbLine
 10
586.331
 20
64.5247
 30
0
 11
586.331
 21
64.5108
 31
0
  0
LINE
  5
59C
330
112
100
AcDbEntity
  8
Section005
100
AcDbLine
 10
588.496
 20
63.2747
 30
0
 11
586.331
 21
64.5247
 31
0
  0
LINE
  5
59D
330
112
100
AcDbEntity
  8
Section005
100
AcDbLine
 10
588.496
 20
63.2279
 30
0
 11
588.496
 21
63.2747
 31
0
  0
LINE
  5
59E
330
112
100
AcDbEntity
  8
Section005
100
AcDbLine
 10
586.331
 20
64.4779
 30
0
 11
588.496
 21
63.2279
 31
0
  0
LINE
  5
59F
330
112
100
AcDbEntity
  8
Section005
100
AcDbLine
 10
588.496
 20
63.2279
 30
0
 11
628.496
 21
132.509
 31
0
  0
LINE
  5
5A0
330
112
100
AcDbEntity
  8
Section005
100
AcDbLine
 10
440.714
 20
317.444
 30
0
 11
440.714
 21
317.39
 31
0
  0
LINE
  5
5A1
330
112
100
AcDbEntity
  8
Section005
100
AcDbLine
 10
520.714
 20
317.444
 30
0
 11
440.714
 21
317.444
 31
0
  0
LINE
  5
5A2
330
112
100
AcDbEntity
  8
Section005
100
AcDbLine
 10
520.714
 20
317.444
 30
0
 11
520.714
 21
317.39
 31
0
  0
LINE
  5
5A3
330
112
100
AcDbEntity
  8
Section005
100
AcDbLine
 10
440.714
 20
317.39
 30
0
 11
445.224
 21
317.39
 31
0
  0
LINE
  5
5A4
330
112
100
AcDbEntity
  8
Section005
100
AcDbLine
 10
448.204
 20
317.39
 30
0
 11
462.464
 21
317.39
 31
0
  0
LINE
  5
5A5
330
112
100
AcDbEntity
  8
Section005
100
AcDbLine
 10
498.964
 20
317.39
 30
0
 11
513.224
 21
317.39
 31
0
  0
LINE
  5
5A6
330
112
100
AcDbEntity
  8
Section005
100
AcDbLine
 10
516.204
 20
317.39
 30
0
 11
520.714
 21
317.39
 31
0
  0
ELLIPSE
  5
5A7
330
112
100
AcDbEntity
  8
Section005
100
AcDbEllipse
 10
446.714
 20
317.409
 30
0
 11
1.5
 21
9.18485e-17
 31
0
 40
0.00547325
 41
-0.115534
 42
-0
  0
ELLIPSE
  5
5A8
330
112
100
AcDbEntity
  8
Section005
100
AcDbEllipse
 10
446.714
 20
317.409
 30
0
 11
1.5
 21
9.18485e-17
 31
0
 40
0.00547325
 41
-3.14159
 42
-3.02606
  0
ELLIPSE
  5
5A9
330
112
100
AcDbEntity
  8
Section005
100
AcDbEllipse
 10
446.714
 20
317.409
 30
0
 11
1.5
 21
9.18485e-17
 31
0
 40
0.00547325
 41
-0
 42
-3.14159
  0
ELLIPSE
  5
5AA
330
112
100
AcDbEntity
  8
Section005
100
AcDbEllipse
 10
455.714
 20
317.409
 30
0
 11
1.6
 21
9.79717e-17
 31
0
 40
0.00547325
 41
-3.14159
 42
-0
  0
ELLIPSE
  5
5AB
330
112
100
AcDbEntity
  8
Section005
100
AcDbEllipse
 10
455.714
 20
317.409
 30
0
 11
1.6
 21
9.79717e-17
 31
0
 40
0.00547325
 41
-0
 42
-3.14159
  0
ELLIPSE
  5
5AC
330
112
100
AcDbEntity
  8
Section005
100
AcDbEllipse
 10
505.714
 20
317.409
 30
0
 11
1.6
 21
9.79717e-17
 31
0
 40
0.00547325
 41
-0
 42
-3.14159
  0
ELLIPSE
  5
5AD
330
112
100
AcDbEntity
  8
Section005
100
AcDbEllipse
 10
505.714
 20
317.409
 30
0
 11
1.6
 21
9.79717e-17
 31
0
 40
0.00547325
 41
-3.14159
 42
-0
  0
ELLIPSE
  5
5AE
330
112
100
AcDbEntity
  8
Section005
100
AcDbEllipse
 10
514.714
 20
317.409
 30
0
 11
1.5
 21
9.18485e-17
 31
0
 40
0.00547325
 41
-0
 42
-3.14159
  0
ELLIPSE
  5
5AF
330
112
100
AcDbEntity
  8
Section005
100
AcDbEllipse
 10
514.714
 20
317.409
 30
0
 11
1.5
 21
9.18485e-17
 31
0
 40
0.00547325
 41
-0.115534
 42
-0
  0
ELLIPSE
  5
5B0
330
112
100
AcDbEntity
  8
Section005
100
AcDbEllipse
 10
514.714
 20
317.409
 30
0
 11
1.5
 21
9.18485e-17
 31
0
 40
0.00547325
 41
-3.14159
 42
-3.02606
  0
LINE
  5
5B1
330
112
100
AcDbEntity
  8
Section005
100
AcDbLine
 10
586.331
 20
64.5247
 30
0
 11
626.331
 21
133.808
 31
0
  0
LINE
  5
5B2
330
112
100
AcDbEntity
  8
Section005
100
AcDbLine
 10
628.496
 20
132.558
 30
0
 11
588.496
 21
63.2747
 31
0
  0
ELLIPSE
  5
5B3
330
112
100
AcDbEntity
  8
Section005
100
AcDbEllipse
 10
620.996
 20
119.538
 30
0
 11
1.49998
 21
2.59809
 31
0
 40
0.00273662
 41
-3.14433
 42
-0.00474001
  0
ELLIPSE
  5
5B4
330
112
100
AcDbEntity
  8
Section005
100
AcDbEllipse
 10
620.996
 20
119.538
 30
0
 11
1.49998
 21
2.59809
 31
0
 40
0.00273662
 41
-3.14633
 42
-3.14433
  0
ELLIPSE
  5
5B5
330
112
100
AcDbEntity
  8
Section005
100
AcDbEllipse
 10
620.996
 20
119.538
 30
0
 11
1.49998
 21
2.59809
 31
0
 40
0.00273662
 41
-6.28045
 42
-3.14633
  0
ELLIPSE
  5
5B6
330
112
100
AcDbEntity
  8
Section005
100
AcDbEllipse
 10
620.996
 20
119.538
 30
0
 11
1.49998
 21
2.59809
 31
0
 40
0.00273662
 41
-0.00474001
 42
-6.28045
  0
ELLIPSE
  5
5B7
330
112
100
AcDbEntity
  8
Section005
100
AcDbEllipse
 10
595.996
 20
76.2373
 30
0
 11
1.49998
 21
2.59809
 31
0
 40
0.00273662
 41
-6.28045
 42
-3.14633
  0
ELLIPSE
  5
5B8
330
112
100
AcDbEntity
  8
Section005
100
AcDbEllipse
 10
595.996
 20
76.2373
 30
0
 11
1.49998
 21
2.59809
 31
0
 40
0.00273662
 41
-0.00474001
 42
-6.28045
  0
ELLIPSE
  5
5B9
330
112
100
AcDbEntity
  8
Section005
100
AcDbEllipse
 10
595.996
 20
76.2373
 30
0
 11
1.49998
 21
2.59809
 31
0
 40
0.00273662
 41
-3.14433
 42
-0.00474001
  0
ELLIPSE
  5
5BA
330
112
100
AcDbEntity
  8
Section005
100
AcDbEllipse
 10
595.996
 20
76.2373
 30
0
 11
1.49998
 21
2.59809
 31
0
 40
0.00273662
 41
-3.14633
 42
-3.14433
  0
LINE
  5
5BB
330
112
100
AcDbEntity
  8
Section005
100
AcDbLine
 10
440.714
 20
319.945
 30
0
 11
440.714
 21
317.444
 31
0
  0
LINE
  5
5BC
330
112
100
AcDbEntity
  8
Section005
100
AcDbLine
 10
440.714
 20
319.945
 30
0
 11
520.714
 21
319.945
 31
0
  0
LINE
  5
5BD
330
112
100
AcDbEntity
  8
Section005
100
AcDbLine
 10
520.714
 20
319.945
 30
0
 11
520.714
 21
317.444
 31
0
  0
LINE
  5
5BE
330
112
100
AcDbEntity
  8
Section005
100
AcDbLine
 10
625.714
 20
171.692
 30
0
 11
625.714
 21
171.678
 31
0
  0
LINE
  5
5BF
330
112
100
AcDbEntity
  8
Section005
100
AcDbLine
 10
335.714
 20
171.692
 30
0
 11
335.714
 21
171.678
 31
0
  0
LINE
  5
5C0
330
112
100
AcDbEntity
  8
Section005
100
AcDbLine
 10
445.224
 20
316.723
 30
0
 11
445.224
 21
317.41
 31
0
  0
LINE
  5
5C1
330
112
100
AcDbEntity
  8
Section005
100
AcDbLine
 10
448.204
 20
316.723
 30
0
 11
448.204
 21
317.41
 31
0
  0
LINE
  5
5C2
330
112
100
AcDbEntity
  8
Section005
100
AcDbLine
 10
516.204
 20
317.41
 30
0
 11
516.204
 21
316.723
 31
0
  0
LINE
  5
5C3
330
112
100
AcDbEntity
  8
Section005
100
AcDbLine
 10
513.224
 20
317.41
 30
0
 11
513.224
 21
316.723
 31
0
  0
ENDSEC
  0
SECTION
  2
OBJECTS
  0
DICTIONARY
  5
500
330
0
100
AcDbDictionary
  3
ACAD_GROUP
350
501
  0
DICTIONARY
  5
501
330
500
100
AcDbDictionary
  0
ENDSEC
  0
EOF