  0
SECTION
  2
HEADER
  9
$ACADVER
  1
AC1027
  9
$ACADMAINTVER
 70
   105
  9
$DWGCODEPAGE
  3
ANSI_1252
  9
$REQUIREDVERSIONS
160
                 0
  9
$INSBASE
 10
0.0
 20
0.0
 30
0.0
  9
$EXTMIN
 10
-1328.227775982787
 20
-768.2715177570335
 30
0.0
  9
$EXTMAX
 10
1467.338877781593
 20
7500.0
 30
0.0
  9
$LIMMIN
 10
0.0
 20
0.0
  9
$LIMMAX
 10
12.0
 20
9.0
  9
$ORTHOMODE
 70
     0
  9
$REGENMODE
 70
     1
  9
$FILLMODE
 70
     1
  9
$QTEXTMODE
 70
     0
  9
$MIRRTEXT
 70
     1
  9
$LTSCALE
 40
1.0
  9
$ATTMODE
 70
     1
  9
$TEXTSIZE
 40
1.0
  9
$TRACEWID
 40
0.05
  9
$TEXTSTYLE
  7
STANDARD
  9
$CLAYER
  8
text
  9
$CELTYPE
  6
ByBlock
  9
$CECOLOR
 62
   256
  9
$CELTSCALE
 40
1.0
  9
$DISPSILH
 70
     0
  9
$DIMSCALE
 40
150.0
  9
$DIMASZ
 40
0.18
  9
$DIMEXO
 40
0.0625
  9
$DIMDLI
 40
0.38
  9
$DIMRND
 40
0.0
  9
$DIMDLE
 40
0.0
  9
$DIMEXE
 40
0.18
  9
$DIMTP
 40
0.0
  9
$DIMTM
 40
0.0
  9
$DIMTXT
 40
0.18
  9
$DIMCEN
 40
0.09
  9
$DIMTSZ
 40
0.0
  9
$DIMTOL
 70
     0
  9
$DIMLIM
 70
     0
  9
$DIMTIH
 70
     1
  9
$DIMTOH
 70
     1
  9
$DIMSE1
 70
     0
  9
$DIMSE2
 70
     0
  9
$DIMTAD
 70
     0
  9
$DIMZIN
 70
     0
  9
$DIMBLK
  1

  9
$DIMASO
 70
     1
  9
$DIMSHO
 70
     1
  9
$DIMPOST
  1
 [mm]
  9
$DIMAPOST
  1

  9
$DIMALT
 70
     0
  9
$DIMALTD
 70
     2
  9
$DIMALTF
 40
25.4
  9
$DIMLFAC
 40
1.0
  9
$DIMTOFL
 70
     0
  9
$DIMTVP
 40
0.0
  9
$DIMTIX
 70
     0
  9
$DIMSOXD
 70
     0
  9
$DIMSAH
 70
     0
  9
$DIMBLK1
  1

  9
$DIMBLK2
  1

  9
$DIMSTYLE
  2
Standard
  9
$DIMCLRD
 70
     0
  9
$DIMCLRE
 70
     0
  9
$DIMCLRT
 70
     0
  9
$DIMTFAC
 40
1.0
  9
$DIMGAP
 40
0.09
  9
$DIMJUST
 70
     0
  9
$DIMSD1
 70
     0
  9
$DIMSD2
 70
     0
  9
$DIMTOLJ
 70
     1
  9
$DIMTZIN
 70
     0
  9
$DIMALTZ
 70
     0
  9
$DIMALTTZ
 70
     0
  9
$DIMUPT
 70
     0
  9
$DIMDEC
 70
     0
  9
$DIMTDEC
 70
     4
  9
$DIMALTU
 70
     2
  9
$DIMALTTD
 70
     2
  9
$DIMTXSTY
  7
STANDARD
  9
$DIMAUNIT
 70
     0
  9
$DIMADEC
 70
     0
  9
$DIMALTRND
 40
0.0
  9
$DIMAZIN
 70
     0
  9
$DIMDSEP
 70
    46
  9
$DIMATFIT
 70
     3
  9
$DIMFRAC
 70
     0
  9
$DIMLDRBLK
  1

  9
$DIMLUNIT
 70
     2
  9
$DIMLWD
 70
    -2
  9
$DIMLWE
 70
    -2
  9
$DIMTMOVE
 70
     2
  9
$DIMFXL
 40
1.0
  9
$DIMFXLON
 70
     0
  9
$DIMJOGANG
 40
0.7853981633974483
  9
$DIMTFILL
 70
     0
  9
$DIMTFILLCLR
 70
     0
  9
$DIMARCSYM
 70
     0
  9
$DIMLTYPE
  6

  9
$DIMLTEX1
  6

  9
$DIMLTEX2
  6

  9
$DIMTXTDIRECTION
 70
     0
  9
$LUNITS
 70
     2
  9
$LUPREC
 70
     4
  9
$SKETCHINC
 40
0.1
  9
$FILLETRAD
 40
0.5
  9
$AUNITS
 70
     0
  9
$AUPREC
 70
     0
  9
$MENU
  1
.
  9
$ELEVATION
 40
0.0
  9
$PELEVATION
 40
0.0
  9
$THICKNESS
 40
0.0
  9
$LIMCHECK
 70
     0
  9
$CHAMFERA
 40
0.0
  9
$CHAMFERB
 40
0.0
  9
$CHAMFERC
 40
0.0
  9
$CHAMFERD
 40
0.0
  9
$SKPOLY
 70
     0
  9
$TDCREATE
 40
2458233.72178059
  9
$TDUCREATE
 40
2458233.680113924
  9
$TDUPDATE
 40
2458235.545168692
  9
$TDUUPDATE
 40
2458235.503502025
  9
$TDINDWG
 40
0.0000001505
  9
$TDUSRTIMER
 40
0.0050797569
  9
$USRTIMER
 70
     1
  9
$ANGBASE
 50
0.0
  9
$ANGDIR
 70
     0
  9
$PDMODE
 70
     0
  9
$PDSIZE
 40
0.0
  9
$PLINEWID
 40
0.0
  9
$SPLFRAME
 70
     0
  9
$SPLINETYPE
 70
     6
  9
$SPLINESEGS
 70
     8
  9
$HANDSEED
  5
411
  9
$SURFTAB1
 70
     6
  9
$SURFTAB2
 70
     6
  9
$SURFTYPE
 70
     6
  9
$SURFU
 70
     6
  9
$SURFV
 70
     6
  9
$UCSBASE
  2

  9
$UCSNAME
  2

  9
$UCSORG
 10
0.0
 20
0.0
 30
0.0
  9
$UCSXDIR
 10
1.0
 20
0.0
 30
0.0
  9
$UCSYDIR
 10
0.0
 20
1.0
 30
0.0
  9
$UCSORTHOREF
  2

  9
$UCSORTHOVIEW
 70
     0
  9
$UCSORGTOP
 10
0.0
 20
0.0
 30
0.0
  9
$UCSORGBOTTOM
 10
0.0
 20
0.0
 30
0.0
  9
$UCSORGLEFT
 10
0.0
 20
0.0
 30
0.0
  9
$UCSORGRIGHT
 10
0.0
 20
0.0
 30
0.0
  9
$UCSORGFRONT
 10
0.0
 20
0.0
 30
0.0
  9
$UCSORGBACK
 10
0.0
 20
0.0
 30
0.0
  9
$PUCSBASE
  2

  9
$PUCSNAME
  2

  9
$PUCSORG
 10
0.0
 20
0.0
 30
0.0
  9
$PUCSXDIR
 10
1.0
 20
0.0
 30
0.0
  9
$PUCSYDIR
 10
0.0
 20
1.0
 30
0.0
  9
$PUCSORTHOREF
  2

  9
$PUCSORTHOVIEW
 70
     0
  9
$PUCSORGTOP
 10
0.0
 20
0.0
 30
0.0
  9
$PUCSORGBOTTOM
 10
0.0
 20
0.0
 30
0.0
  9
$PUCSORGLEFT
 10
0.0
 20
0.0
 30
0.0
  9
$PUCSORGRIGHT
 10
0.0
 20
0.0
 30
0.0
  9
$PUCSORGFRONT
 10
0.0
 20
0.0
 30
0.0
  9
$PUCSORGBACK
 10
0.0
 20
0.0
 30
0.0
  9
$USERI1
 70
     0
  9
$USERI2
 70
     0
  9
$USERI3
 70
     0
  9
$USERI4
 70
     0
  9
$USERI5
 70
     0
  9
$USERR1
 40
0.0
  9
$USERR2
 40
0.0
  9
$USERR3
 40
0.0
  9
$USERR4
 40
0.0
  9
$USERR5
 40
0.0
  9
$WORLDVIEW
 70
     1
  9
$SHADEDGE
 70
     3
  9
$SHADEDIF
 70
    70
  9
$TILEMODE
 70
     1
  9
$MAXACTVP
 70
    64
  9
$PINSBASE
 10
0.0
 20
0.0
 30
0.0
  9
$PLIMCHECK
 70
     0
  9
$PEXTMIN
 10
1.000000000000000E+20
 20
1.000000000000000E+20
 30
1.000000000000000E+20
  9
$PEXTMAX
 10
-1.000000000000000E+20
 20
-1.000000000000000E+20
 30
-1.000000000000000E+20
  9
$PLIMMIN
 10
0.0
 20
0.0
  9
$PLIMMAX
 10
0.0
 20
0.0
  9
$UNITMODE
 70
     0
  9
$VISRETAIN
 70
     1
  9
$PLINEGEN
 70
     0
  9
$PSLTSCALE
 70
     1
  9
$TREEDEPTH
 70
  3020
  9
$CMLSTYLE
  2
Standard
  9
$CMLJUST
 70
     0
  9
$CMLSCALE
 40
1.0
  9
$PROXYGRAPHICS
 70
     1
  9
$MEASUREMENT
 70
     0
  9
$CELWEIGHT
370
    -1
  9
$ENDCAPS
280
     0
  9
$JOINSTYLE
280
     0
  9
$LWDISPLAY
290
     0
  9
$INSUNITS
 70
     0
  9
$HYPERLINKBASE
  1

  9
$STYLESHEET
  1

  9
$XEDIT
290
     1
  9
$CEPSNTYPE
380
     0
  9
$PSTYLEMODE
290
     1
  9
$FINGERPRINTGUID
  2
{b4bd52fe-857f-4cbb-8827-62117d9549d9}
  9
$VERSIONGUID
  2
{FAEB1C32-E019-11D5-929B-00C0DF256EC4}
  9
$EXTNAMES
290
     1
  9
$PSVPSCALE
 40
0.0
  9
$OLESTARTUP
290
     0
  9
$SORTENTS
280
   127
  9
$INDEXCTL
280
     0
  9
$HIDETEXT
280
     1
  9
$XCLIPFRAME
280
     2
  9
$HALOGAP
280
     0
  9
$OBSCOLOR
 70
   257
  9
$OBSLTYPE
280
     0
  9
$INTERSECTIONDISPLAY
280
     0
  9
$INTERSECTIONCOLOR
 70
   257
  9
$DIMASSOC
280
     2
  9
$PROJECTNAME
  1

  9
$CAMERADISPLAY
290
     0
  9
$LENSLENGTH
 40
50.0
  9
$CAMERAHEIGHT
 40
0.0
  9
$STEPSPERSEC
 40
2.0
  9
$STEPSIZE
 40
6.0
  9
$3DDWFPREC
 40
2.0
  9
$PSOLWIDTH
 40
0.25
  9
$PSOLHEIGHT
 40
4.0
  9
$LOFTANG1
 40
1.570796326794897
  9
$LOFTANG2
 40
1.570796326794897
  9
$LOFTMAG1
 40
0.0
  9
$LOFTMAG2
 40
0.0
  9
$LOFTPARAM
 70
     7
  9
$LOFTNORMALS
280
     1
  9
$LATITUDE
 40
37.795
  9
$LONGITUDE
 40
-122.394
  9
$NORTHDIRECTION
 40
0.0
  9
$TIMEZONE
 70
 -8000
  9
$LIGHTGLYPHDISPLAY
280
     1
  9
$TILEMODELIGHTSYNCH
280
     1
  9
$SOLIDHIST
280
     0
  9
$SHOWHIST
280
     1
  9
$DWFFRAME
280
     2
  9
$DGNFRAME
280
     2
  9
$REALWORLDSCALE
290
     1
  9
$INTERFERECOLOR
 62
   256
  9
$CSHADOW
280
     0
  9
$SHADOWPLANELOCATION
 40
0.0
  0
ENDSEC
  0
SECTION
  2
CLASSES
  0
CLASS
  1
ACDBDICTIONARYWDFLT
  2
AcDbDictionaryWithDefault
  3
ObjectDBX Classes
 90
        0
 91
        6
280
     0
281
     0
  0
CLASS
  1
MATERIAL
  2
AcDbMaterial
  3
ObjectDBX Classes
 90
     1153
 91
        6
280
     0
281
     0
  0
CLASS
  1
SCALE
  2
AcDbScale
  3
ObjectDBX Classes
 90
     1153
 91
        6
280
     0
281
     0
  0
CLASS
  1
VISUALSTYLE
  2
AcDbVisualStyle
  3
ObjectDBX Classes
 90
     4095
 91
        6
280
     0
281
     0
  0
CLASS
  1
TABLESTYLE
  2
AcDbTableStyle
  3
ObjectDBX Classes
 90
     4095
 91
        6
280
     0
281
     0
  0
CLASS
  1
MLEADERSTYLE
  2
AcDbMLeaderStyle
  3
ACDB_MLEADERSTYLE_CLASS
 90
     4095
 91
        6
280
     0
281
     0
  0
CLASS
  1
DIMASSOC
  2
AcDbDimAssoc
  3
"AcDbDimAssoc|Product Desc:     AcDim ARX App For Dimension|Company:          Autodesk, Inc.|WEB Address:      www.autodesk.com"
 90
        0
 91
        5
280
     0
281
     0
  0
CLASS
  1
DICTIONARYVAR
  2
AcDbDictionaryVar
  3
ObjectDBX Classes
 90
        0
 91
        6
280
     0
281
     0
  0
CLASS
  1
CELLSTYLEMAP
  2
AcDbCellStyleMap
  3
ObjectDBX Classes
 90
     1152
 91
        6
280
     0
281
     0
  0
CLASS
  1
SUN
  2
AcDbSun
  3
SCENEOE
 90
     1153
 91
        5
280
     0
281
     0
  0
CLASS
  1
SORTENTSTABLE
  2
AcDbSortentsTable
  3
ObjectDBX Classes
 90
        0
 91
        5
280
     0
281
     0
  0
ENDSEC
  0
SECTION
  2
TABLES
  0
TABLE
  2
VPORT
  5
8
330
0
100
AcDbSymbolTable
 70
     1
  0
VPORT
  5
28
330
8
100
AcDbSymbolTableRecord
100
AcDbViewportTableRecord
  2
*Active
 70
     0
 10
0.0
 20
0.0
 11
1.0
 21
1.0
 12
-85.4940619822757
 22
3.764231110076366
 13
0.0
 23
0.0
 14
0.5
 24
0.5
 15
0.5
 25
0.5
 16
0.0
 26
0.0
 36
1.0
 17
0.0
 27
0.0
 37
0.0
 40
1561.567709409828
 41
1.62202380952381
 42
50.0
 43
0.0
 44
0.0
 50
0.0
 51
0.0
 71
    16
 72
   100
 73
     1
 74
     2
 75
     0
 76
     0
 77
     0
 78
     0
281
     0
 65
     1
110
0.0
120
0.0
130
0.0
111
1.0
121
0.0
131
0.0
112
0.0
122
1.0
132
0.0
 79
     0
146
0.0
348
13E
 60
     3
 61
     5
292
     1
282
     1
141
0.0
142
0.0
 63
   250
361
285
  0
ENDTAB
  0
TABLE
  2
LTYPE
  5
5
330
0
100
AcDbSymbolTable
 70
     1
  0
LTYPE
  5
14
330
5
100
AcDbSymbolTableRecord
100
AcDbLinetypeTableRecord
  2
ByBlock
 70
     0
  3

 72
    65
 73
     0
 40
0.0
  0
LTYPE
  5
15
330
5
100
AcDbSymbolTableRecord
100
AcDbLinetypeTableRecord
  2
ByLayer
 70
     0
  3

 72
    65
 73
     0
 40
0.0
  0
LTYPE
  5
16
330
5
100
AcDbSymbolTableRecord
100
AcDbLinetypeTableRecord
  2
CONTINUOUS
 70
     0
  3
Solid line
 72
    65
 73
     0
 40
0.0
  0
ENDTAB
  0
TABLE
  2
LAYER
  5
2
102
{ACAD_XDICTIONARY
360
267
102
}
330
0
100
AcDbSymbolTable
 70
     9
  0
LAYER
  5
10
330
2
100
AcDbSymbolTableRecord
100
AcDbLayerTableRecord
  2
0
 70
     0
 62
     7
  6
CONTINUOUS
370
    -3
390
F
347
25
348
0
  0
LAYER
  5
157
330
2
100
AcDbSymbolTableRecord
100
AcDbLayerTableRecord
  2
Defpoints
 70
     0
 62
     7
  6
CONTINUOUS
290
     0
370
    -3
390
F
347
25
348
0
  0
LAYER
  5
26A
330
2
100
AcDbSymbolTableRecord
100
AcDbLayerTableRecord
  2
pipeWalls
 70
     0
 62
     7
  6
CONTINUOUS
370
    -3
390
F
347
25
348
0
1001
AcAecLayerStandard
1000

1000

  0
LAYER
  5
26F
330
2
100
AcDbSymbolTableRecord
100
AcDbLayerTableRecord
  2
screens
 70
     0
 62
     7
  6
CONTINUOUS
370
    -3
390
F
347
25
348
0
1001
AcAecLayerStandard
1000

1000

  0
LAYER
  5
273
330
2
100
AcDbSymbolTableRecord
100
AcDbLayerTableRecord
  2
actuatorMotion
 70
     0
 62
     7
  6
CONTINUOUS
370
    -3
390
F
347
25
348
0
1001
AcAecLayerStandard
1000

1000

  0
LAYER
  5
277
330
2
100
AcDbSymbolTableRecord
100
AcDbLayerTableRecord
  2
concreteWalls
 70
     0
 62
     1
  6
CONTINUOUS
370
    -3
390
F
347
25
348
0
1001
AcAecLayerStandard
1000

1000

  0
LAYER
  5
280
330
2
100
AcDbSymbolTableRecord
100
AcDbLayerTableRecord
  2
text
 70
     0
 62
     3
  6
CONTINUOUS
370
    -3
390
F
347
25
348
0
1001
AcAecLayerStandard
1000

1000

  0
LAYER
  5
2CE
330
2
100
AcDbSymbolTableRecord
100
AcDbLayerTableRecord
  2
mover
 70
     0
 62
     7
  6
CONTINUOUS
370
    -3
390
F
347
25
348
0
1001
AcAecLayerStandard
1000

1000

  0
LAYER
  5
2DD
330
2
100
AcDbSymbolTableRecord
100
AcDbLayerTableRecord
  2
dims
 70
     0
 62
     7
  6
CONTINUOUS
370
    -3
390
F
347
25
348
0
1001
AcAecLayerStandard
1000

1000

  0
ENDTAB
  0
TABLE
  2
STYLE
  5
3
330
0
100
AcDbSymbolTable
 70
     1
  0
STYLE
  5
11
330
3
100
AcDbSymbolTableRecord
100
AcDbTextStyleTableRecord
  2
STANDARD
 70
     0
 40
0.0
 41
1.0
 50
0.0
 71
     0
 42
1.0
  3
ARIAL.TTF
  4

  0
ENDTAB
  0
TABLE
  2
VIEW
  5
6
330
0
100
AcDbSymbolTable
 70
     0
  0
ENDTAB
  0
TABLE
  2
UCS
  5
7
330
0
100
AcDbSymbolTable
 70
     0
  0
ENDTAB
  0
TABLE
  2
APPID
  5
9
330
0
100
AcDbSymbolTable
 70
     2
  0
APPID
  5
12
330
9
100
AcDbSymbolTableRecord
100
AcDbRegAppTableRecord
  2
ACAD
 70
     0
  0
APPID
  5
26B
330
9
100
AcDbSymbolTableRecord
100
AcDbRegAppTableRecord
  2
AcAecLayerStandard
 70
     0
  0
ENDTAB
  0
TABLE
  2
DIMSTYLE
  5
A
330
0
100
AcDbSymbolTable
 70
     1
100
AcDbDimStyleTable
  0
DIMSTYLE
105
27
102
{ACAD_REACTORS
330
316
330
31B
330
31F
330
32F
330
33F
330
34F
330
354
330
37E
330
383
330
40B
102
}
330
A
100
AcDbSymbolTableRecord
100
AcDbDimStyleTableRecord
  2
Standard
 70
     0
178
     0
340
11
  0
ENDTAB
  0
TABLE
  2
BLOCK_RECORD
  5
1
330
0
100
AcDbSymbolTable
 70
    21
  0
BLOCK_RECORD
  5
1D
102
{ACAD_XDICTIONARY
360
28A
102
}
330
1
100
AcDbSymbolTableRecord
100
AcDbBlockTableRecord
  2
*Model_Space
340
1E
 70
     0
280
     1
281
     0
  0
BLOCK_RECORD
  5
1B
330
1
100
AcDbSymbolTableRecord
100
AcDbBlockTableRecord
  2
*Paper_Space
340
1C
 70
     0
280
     1
281
     0
  0
BLOCK_RECORD
  5
2A
330
1
100
AcDbSymbolTableRecord
100
AcDbBlockTableRecord
  2
CONNECT_CS
340
0
 70
     0
280
     1
281
     0
  0
BLOCK_RECORD
  5
61
330
1
100
AcDbSymbolTableRecord
100
AcDbBlockTableRecord
  2
PART__FEATURE013_CS
340
0
 70
     0
280
     1
281
     0
  0
BLOCK_RECORD
  5
82
330
1
100
AcDbSymbolTableRecord
100
AcDbBlockTableRecord
  2
PART__FEATURE008001_CS
340
0
 70
     0
280
     1
281
     0
  0
BLOCK_RECORD
  5
85
330
1
100
AcDbSymbolTableRecord
100
AcDbBlockTableRecord
  2
PART__FEATURE007001_CS
340
0
 70
     0
280
     1
281
     0
  0
BLOCK_RECORD
  5
A6
330
1
100
AcDbSymbolTableRecord
100
AcDbBlockTableRecord
  2
PART__FEATURE009001_CS
340
0
 70
     0
280
     1
281
     0
  0
BLOCK_RECORD
  5
A9
330
1
100
AcDbSymbolTableRecord
100
AcDbBlockTableRecord
  2
PART__FEATURE011001_CS
340
0
 70
     0
280
     1
281
     0
  0
BLOCK_RECORD
  5
CA
330
1
100
AcDbSymbolTableRecord
100
AcDbBlockTableRecord
  2
PART__FEATURE010001_CS
340
0
 70
     0
280
     1
281
     0
  0
BLOCK_RECORD
  5
EB
330
1
100
AcDbSymbolTableRecord
100
AcDbBlockTableRecord
  2
PART__FEATURE012001_CS
340
0
 70
     0
280
     1
281
     0
  0
BLOCK_RECORD
  5
250
330
1
100
AcDbSymbolTableRecord
100
AcDbBlockTableRecord
  2
*D8
340
0
 70
     0
280
     1
281
     0
  0
BLOCK_RECORD
  5
29E
330
1
100
AcDbSymbolTableRecord
100
AcDbBlockTableRecord
  2
*D9
340
0
 70
     0
280
     1
281
     0
  0
BLOCK_RECORD
  5
2AE
330
1
100
AcDbSymbolTableRecord
100
AcDbBlockTableRecord
  2
*D10
340
0
 70
     0
280
     1
281
     0
  0
BLOCK_RECORD
  5
2BE
330
1
100
AcDbSymbolTableRecord
100
AcDbBlockTableRecord
  2
*D11
340
0
 70
     0
280
     1
281
     0
  0
BLOCK_RECORD
  5
2E2
330
1
100
AcDbSymbolTableRecord
100
AcDbBlockTableRecord
  2
*D12
340
0
 70
     0
280
     1
281
     0
  0
BLOCK_RECORD
  5
2F2
330
1
100
AcDbSymbolTableRecord
100
AcDbBlockTableRecord
  2
*D13
340
0
 70
     0
280
     1
281
     0
  0
BLOCK_RECORD
  5
303
330
1
100
AcDbSymbolTableRecord
100
AcDbBlockTableRecord
  2
*D14
340
0
 70
     0
280
     1
281
     0
  0
BLOCK_RECORD
  5
322
330
1
100
AcDbSymbolTableRecord
100
AcDbBlockTableRecord
  2
*D15
340
0
 70
     0
280
     1
281
     0
  0
BLOCK_RECORD
  5
332
330
1
100
AcDbSymbolTableRecord
100
AcDbBlockTableRecord
  2
*D16
340
0
 70
     0
280
     1
281
     0
  0
BLOCK_RECORD
  5
342
330
1
100
AcDbSymbolTableRecord
100
AcDbBlockTableRecord
  2
*D17
340
0
 70
     0
280
     1
281
     0
  0
ENDTAB
  0
ENDSEC
  0
SECTION
  2
BLOCKS
  0
BLOCK
  5
135
330
1D
100
AcDbEntity
  8
0
100
AcDbBlockBegin
  2
*Model_Space
 70
     0
 10
0.0
 20
0.0
 30
0.0
  3
*Model_Space
  1

  0
ENDBLK
  5
136
330
1D
100
AcDbEntity
  8
0
100
AcDbBlockEnd
  0
BLOCK
  5
137
330
1B
100
AcDbEntity
 67
     1
  8
0
100
AcDbBlockBegin
  2
*Paper_Space
 70
     0
 10
0.0
 20
0.0
 30
0.0
  3
*Paper_Space
  1

  0
ENDBLK
  5
138
330
1B
100
AcDbEntity
 67
     1
  8
0
100
AcDbBlockEnd
  0
BLOCK
  5
29
330
2A
100
AcDbEntity
  8
0
100
AcDbBlockBegin
  2
CONNECT_CS
 70
     0
 10
0.0
 20
0.0
 30
0.0
  3
CONNECT_CS
  1

  0
LWPOLYLINE
  5
2B
330
2A
100
AcDbEntity
  8
0
 62
     0
100
AcDbPolyline
 90
        6
 70
     1
 43
0.0
 10
334.376272171
 20
-128.958326602
 10
338.666619907
 20
-128.958508454
 10
335.630811545
 20
-131.993857865
 10
331.339813478
 20
-131.993371046
 10
6.25
 20
-131.993371046
 10
6.25
 20
-128.958326602
  0
LWPOLYLINE
  5
33
330
2A
100
AcDbEntity
  8
0
 62
     0
100
AcDbPolyline
 90
        8
 70
     1
 43
0.0
 10
518.006628954
 20
131.993371046
 10
518.006628954
 20
373.75
 10
521.041673398
 20
373.75
 10
521.041673398
 20
131.993625912
 10
521.04406707
 20
128.95593293
 10
518.008421619
 20
128.956498175
 10
6.25
 20
128.958326602
 10
6.25
 20
131.993371046
  0
LWPOLYLINE
  5
3D
330
2A
100
AcDbEntity
  8
0
 62
     0
100
AcDbPolyline
 90
        4
 70
     1
 43
0.0
 10
335.630811545
 20
-131.993857865
 10
331.339813478
 20
-131.993371046
 10
292.385432793
 20
-170.94775173
 10
294.531533301
 20
-173.093852238
  0
LWPOLYLINE
  5
43
330
2A
100
AcDbEntity
  8
0
 62
     0
100
AcDbPolyline
 90
        6
 70
     1
 43
0.0
 10
820.94775173
 20
-357.614567207
 10
650.000044734
 20
-186.666376779
 10
479.05224827
 20
-357.614567207
 10
476.906147762
 20
-355.468466699
 10
650.0
 20
-182.37099288
 10
823.093852238
 20
-355.468466699
  0
LWPOLYLINE
  5
4B
330
2A
100
AcDbEntity
  8
0
 62
     0
100
AcDbPolyline
 90
        8
 70
     1
 43
0.0
 10
1007.61456721
 20
-170.94775173
 10
1005.4684667
 20
-173.093852238
 10
964.367985514
 20
-131.993371052
 10
961.333309552
 20
-128.958326602
 10
965.624109124
 20
-128.958326602
 10
1193.75
 20
-128.958326602
 10
1193.75
 20
-131.993371046
 10
968.660186522
 20
-131.993371046
  0
LWPOLYLINE
  5
55
330
2A
100
AcDbEntity
  8
0
 62
     0
100
AcDbPolyline
 90
        8
 70
     1
 43
0.0
 10
778.955980398
 20
128.955980398
 10
778.958674307
 20
131.993698701
 10
778.958326602
 20
373.75
 10
781.993371046
 20
373.75
 10
781.993371046
 20
131.993371046
 10
1193.75
 20
131.993371046
 10
1193.75
 20
128.958326602
 10
781.991334243
 20
128.95624879
  0
ENDBLK
  5
5F
330
2A
100
AcDbEntity
  8
0
100
AcDbBlockEnd
  0
BLOCK
  5
60
330
61
100
AcDbEntity
  8
0
100
AcDbBlockBegin
  2
PART__FEATURE013_CS
 70
     0
 10
0.0
 20
0.0
 30
0.0
  3
PART__FEATURE013_CS
  1

  0
LWPOLYLINE
  5
62
330
61
100
AcDbEntity
  8
0
 62
     0
100
AcDbPolyline
 90
       13
 70
     1
 43
0.0
 10
0.0
 20
128.958326602
 10
0.0000000000000044
 20
143.614066163
 10
2.34120327968
 20
143.614066163
 10
5.00000247068
 20
141.008710369
 10
7.65879672032
 20
143.614066163
 10
12.0
 20
143.614066163
 10
12.0
 20
141.190509596
 10
9.9
 20
141.190509596
 10
9.9
 20
131.993371046
 10
6.25
 20
131.993371046
 10
6.25
 20
128.755931902
 10
3.25
 20
128.755931902
 10
3.25
 20
128.958326602
  0
LWPOLYLINE
  5
71
330
61
100
AcDbEntity
  8
0
 62
     0
100
AcDbPolyline
 90
       13
 70
     1
 43
0.0
 10
6.25
 20
-128.755931902
 10
6.25
 20
-131.993371046
 10
9.9
 20
-131.993371046
 10
9.9
 20
-141.190509596
 10
12.0
 20
-141.190509596
 10
12.0
 20
-143.614066163
 10
7.65879672032
 20
-143.614066163
 10
5.00000247068
 20
-141.008710369
 10
2.34120327968
 20
-143.614066163
 10
0.0
 20
-143.614066163
 10
0.0000000000000044
 20
-128.958326602
 10
3.25
 20
-128.958326602
 10
3.25
 20
-128.755931902
  0
ENDBLK
  5
80
330
61
100
AcDbEntity
  8
0
100
AcDbBlockEnd
  0
BLOCK
  5
81
330
82
100
AcDbEntity
  8
0
100
AcDbBlockBegin
  2
PART__FEATURE008001_CS
 70
     0
 10
0.0
 20
0.0
 30
0.0
  3
PART__FEATURE008001_CS
  1

  0
ENDBLK
  5
83
330
82
100
AcDbEntity
  8
0
100
AcDbBlockEnd
  0
BLOCK
  5
84
330
85
100
AcDbEntity
  8
0
100
AcDbBlockBegin
  2
PART__FEATURE007001_CS
 70
     0
 10
0.0
 20
0.0
 30
0.0
  3
PART__FEATURE007001_CS
  1

  0
LWPOLYLINE
  5
86
330
85
100
AcDbEntity
  8
0
 62
     0
100
AcDbPolyline
 90
       13
 70
     1
 43
0.0
 10
1200.0
 20
-128.958326602
 10
1200.0
 20
-143.614066163
 10
1197.65879672
 20
-143.614066163
 10
1194.99999753
 20
-141.008710369
 10
1192.34120328
 20
-143.614066163
 10
1188.0
 20
-143.614066163
 10
1188.0
 20
-141.190509596
 10
1190.1
 20
-141.190509596
 10
1190.1
 20
-131.993371046
 10
1193.75
 20
-131.993371046
 10
1193.75
 20
-128.755931902
 10
1196.75
 20
-128.755931902
 10
1196.75
 20
-128.958326602
  0
LWPOLYLINE
  5
95
330
85
100
AcDbEntity
  8
0
 62
     0
100
AcDbPolyline
 90
       13
 70
     1
 43
0.0
 10
1193.75
 20
128.755931902
 10
1193.75
 20
131.993371046
 10
1190.1
 20
131.993371046
 10
1190.1
 20
141.190509596
 10
1188.0
 20
141.190509596
 10
1188.0
 20
143.614066163
 10
1192.34120328
 20
143.614066163
 10
1194.99999753
 20
141.008710369
 10
1197.65879672
 20
143.614066163
 10
1200.0
 20
143.614066163
 10
1200.0
 20
128.958326602
 10
1196.75
 20
128.958326602
 10
1196.75
 20
128.755931902
  0
ENDBLK
  5
A4
330
85
100
AcDbEntity
  8
0
100
AcDbBlockEnd
  0
BLOCK
  5
A5
330
A6
100
AcDbEntity
  8
0
100
AcDbBlockBegin
  2
PART__FEATURE009001_CS
 70
     0
 10
0.0
 20
0.0
 30
0.0
  3
PART__FEATURE009001_CS
  1

  0
ENDBLK
  5
A7
330
A6
100
AcDbEntity
  8
0
100
AcDbBlockEnd
  0
BLOCK
  5
A8
330
A9
100
AcDbEntity
  8
0
100
AcDbBlockBegin
  2
PART__FEATURE011001_CS
 70
     0
 10
0.0
 20
0.0
 30
0.0
  3
PART__FEATURE011001_CS
  1

  0
LWPOLYLINE
  5
AA
330
A9
100
AcDbEntity
  8
0
 62
     0
100
AcDbPolyline
 90
       13
 70
     1
 43
0.0
 10
290.112115918
 20
-177.51326962
 10
279.748943091
 20
-167.150096793
 10
281.404423806
 20
-165.494616078
 10
285.126743494
 20
-165.456825889
 10
285.164530188
 20
-161.734509696
 10
288.234224465
 20
-158.664815419
 10
289.947937749
 20
-160.378528702
 10
288.463013508
 20
-161.863452943
 10
294.966372545
 20
-168.366811979
 10
292.385432793
 20
-170.94775173
 10
294.674647965
 20
-173.236966902
 10
292.553327622
 20
-175.358287246
 10
292.410212957
 20
-175.215172581
  0
LWPOLYLINE
  5
B9
330
A9
100
AcDbEntity
  8
0
 62
     0
100
AcDbPolyline
 90
       13
 70
     1
 43
0.0
 10
476.763033098
 20
-355.325352035
 10
479.05224827
 20
-357.614567207
 10
481.633188021
 20
-355.033627455
 10
488.136547057
 20
-361.536986492
 10
489.621471298
 20
-360.052062251
 10
491.335184581
 20
-361.765775535
 10
488.265490304
 20
-364.835469812
 10
484.543174111
 20
-364.873256506
 10
484.505383922
 20
-368.595576194
 10
482.849903207
 20
-370.251056909
 10
472.48673038
 20
-359.887884082
 10
474.784827419
 20
-357.589787043
 10
474.641712754
 20
-357.446672378
  0
ENDBLK
  5
C8
330
A9
100
AcDbEntity
  8
0
100
AcDbBlockEnd
  0
BLOCK
  5
C9
330
CA
100
AcDbEntity
  8
0
100
AcDbBlockBegin
  2
PART__FEATURE010001_CS
 70
     0
 10
0.0
 20
0.0
 30
0.0
  3
PART__FEATURE010001_CS
  1

  0
LWPOLYLINE
  5
CB
330
CA
100
AcDbEntity
  8
0
 62
     0
100
AcDbPolyline
 90
       13
 70
     1
 43
0.0
 10
778.958326602
 20
380.0
 10
793.614066163
 20
380.0
 10
793.614066163
 20
377.65879672
 10
791.008710369
 20
374.999997529
 10
793.614066163
 20
372.34120328
 10
793.614066163
 20
368.0
 10
791.190509596
 20
368.0
 10
791.190509596
 20
370.1
 10
781.993371046
 20
370.1
 10
781.993371046
 20
373.75
 10
778.755931902
 20
373.75
 10
778.755931902
 20
376.75
 10
778.958326602
 20
376.75
  0
LWPOLYLINE
  5
DA
330
CA
100
AcDbEntity
  8
0
 62
     0
100
AcDbPolyline
 90
       13
 70
     1
 43
0.0
 10
521.244068098
 20
373.75
 10
518.006628954
 20
373.75
 10
518.006628954
 20
370.1
 10
508.809490404
 20
370.1
 10
508.809490404
 20
368.0
 10
506.385933837
 20
368.0
 10
506.385933837
 20
372.34120328
 10
508.991289631
 20
374.999997529
 10
506.385933837
 20
377.65879672
 10
506.385933837
 20
380.0
 10
521.041673398
 20
380.0
 10
521.041673398
 20
376.75
 10
521.244068098
 20
376.75
  0
ENDBLK
  5
E9
330
CA
100
AcDbEntity
  8
0
100
AcDbBlockEnd
  0
BLOCK
  5
EA
330
EB
100
AcDbEntity
  8
0
100
AcDbBlockBegin
  2
PART__FEATURE012001_CS
 70
     0
 10
0.0
 20
0.0
 30
0.0
  3
PART__FEATURE012001_CS
  1

  0
LWPOLYLINE
  5
EC
330
EB
100
AcDbEntity
  8
0
 62
     0
100
AcDbPolyline
 90
       13
 70
     1
 43
0.0
 10
827.51326962
 20
-359.887884082
 10
817.150096793
 20
-370.251056909
 10
815.494616078
 20
-368.595576194
 10
815.456825889
 20
-364.873256506
 10
811.734509696
 20
-364.835469812
 10
808.664815419
 20
-361.765775535
 10
810.378528702
 20
-360.052062251
 10
811.863452943
 20
-361.536986492
 10
818.366811979
 20
-355.033627455
 10
820.94775173
 20
-357.614567207
 10
823.236966902
 20
-355.325352035
 10
825.358287246
 20
-357.446672378
 10
825.215172581
 20
-357.589787043
  0
LWPOLYLINE
  5
FB
330
EB
100
AcDbEntity
  8
0
 62
     0
100
AcDbPolyline
 90
       13
 70
     1
 43
0.0
 10
1005.32535203
 20
-173.236966902
 10
1007.61456721
 20
-170.94775173
 10
1005.03362746
 20
-168.366811979
 10
1011.53698649
 20
-161.863452943
 10
1010.05206225
 20
-160.378528702
 10
1011.76577553
 20
-158.664815419
 10
1014.83546981
 20
-161.734509696
 10
1014.87325651
 20
-165.456825889
 10
1018.59557619
 20
-165.494616078
 10
1020.25105691
 20
-167.150096793
 10
1009.88788408
 20
-177.51326962
 10
1007.58978704
 20
-175.215172581
 10
1007.44667238
 20
-175.358287246
  0
ENDBLK
  5
10A
330
EB
100
AcDbEntity
  8
0
100
AcDbBlockEnd
  0
BLOCK
  5
251
330
250
100
AcDbEntity
  8
0
100
AcDbBlockBegin
  2
*D8
 70
     1
 10
0.0
 20
0.0
 30
0.0
  3
*D8
  1

  0
LINE
  5
253
330
250
100
AcDbEntity
  8
0
  6
ByBlock
 62
     0
370
    -2
100
AcDbLine
 10
1200.0625
 20
128.958326602
 30
0.0
 11
1249.68
 21
128.958326602
 31
0.0
  0
LINE
  5
254
330
250
100
AcDbEntity
  8
0
  6
ByBlock
 62
     0
370
    -2
100
AcDbLine
 10
1200.0625
 20
-128.958326602
 30
0.0
 11
1249.68
 21
-128.958326602
 31
0.0
  0
LINE
  5
255
330
250
100
AcDbEntity
  8
0
  6
ByBlock
 62
     0
370
    -2
100
AcDbLine
 10
1249.5
 20
128.778326602
 30
0.0
 11
1249.5
 21
0.1800000000000068
 31
0.0
  0
LINE
  5
256
330
250
100
AcDbEntity
  8
0
  6
ByBlock
 62
     0
370
    -2
100
AcDbLine
 10
1249.5
 20
-128.778326602
 30
0.0
 11
1249.5
 21
-0.1800000000000352
 31
0.0
  0
SOLID
  5
257
330
250
100
AcDbEntity
  8
0
 62
     0
100
AcDbTrace
 10
1249.53
 20
128.778326602
 30
0.0
 11
1249.47
 21
128.778326602
 31
0.0
 12
1249.5
 22
128.958326602
 32
0.0
 13
1249.5
 23
128.958326602
 33
0.0
  0
SOLID
  5
258
330
250
100
AcDbEntity
  8
0
 62
     0
100
AcDbTrace
 10
1249.47
 20
-128.778326602
 30
0.0
 11
1249.53
 21
-128.778326602
 31
0.0
 12
1249.5
 22
-128.958326602
 32
0.0
 13
1249.5
 23
-128.958326602
 33
0.0
  0
MTEXT
  5
259
330
250
100
AcDbEntity
  8
0
  6
ByBlock
 62
     0
100
AcDbMText
 10
1249.5
 20
0.0
 30
0.0
 40
0.18
 41
0.0
 46
0.0
 71
     5
 72
     1
  1
\A1;257.9167
 73
     1
 44
1.0
  0
POINT
  5
25A
330
250
100
AcDbEntity
  8
Defpoints
 62
     0
100
AcDbPoint
 10
1200.0
 20
128.958326602
 30
0.0
  0
POINT
  5
25B
330
250
100
AcDbEntity
  8
Defpoints
 62
     0
100
AcDbPoint
 10
1200.0
 20
-128.958326602
 30
0.0
  0
POINT
  5
25C
330
250
100
AcDbEntity
  8
Defpoints
 62
     0
100
AcDbPoint
 10
1249.5
 20
-128.958326602
 30
0.0
  0
ENDBLK
  5
252
330
250
100
AcDbEntity
  8
0
100
AcDbBlockEnd
  0
BLOCK
  5
29F
330
29E
100
AcDbEntity
  8
0
100
AcDbBlockBegin
  2
*D9
 70
     1
 10
0.0
 20
0.0
 30
0.0
  3
*D9
  1

  0
LINE
  5
2A1
330
29E
100
AcDbEntity
  8
0
  6
ByBlock
 62
     0
370
    -2
100
AcDbLine
 10
681.2531895012659
 20
-768.3157119308578
 30
0.0
 11
660.440689204514
 21
-789.1282122278379
 31
0.0
  0
LINE
  5
2A2
330
29E
100
AcDbEntity
  8
0
  6
ByBlock
 62
     0
370
    -2
100
AcDbLine
 10
662.981671744032
 20
-750.0441941738244
 30
0.0
 11
642.1691714472802
 21
-770.8566944708045
 31
0.0
  0
LINE
  5
2A3
330
29E
100
AcDbEntity
  8
0
  6
ByBlock
 62
     0
370
    -2
100
AcDbLine
 10
660.4406892045126
 20
-788.8736537866108
 30
0.0
 11
651.612209546512
 21
-780.045174128707
 31
0.0
  0
LINE
  5
2A4
330
29E
100
AcDbEntity
  8
0
  6
ByBlock
 62
     0
370
    -2
100
AcDbLine
 10
642.4237298885073
 20
-770.8566944708032
 30
0.0
 11
651.2522095465079
 21
-779.6851741287069
 31
0.0
  0
SOLID
  5
2A5
330
29E
100
AcDbEntity
  8
0
 62
     0
100
AcDbTrace
 10
660.4194760010771
 20
-788.8948669900466
 30
0.0
 11
660.4619024079482
 21
-788.852440583175
 31
0.0
 12
660.5679684251269
 22
-789.0009330072237
 32
0.0
 13
660.5679684251269
 23
-789.0009330072237
 33
0.0
  0
SOLID
  5
2A6
330
29E
100
AcDbEntity
  8
0
 62
     0
100
AcDbTrace
 10
642.4449430919428
 20
-770.8354812673674
 30
0.0
 11
642.4025166850718
 21
-770.8779076742389
 31
0.0
 12
642.296450667893
 22
-770.7294152501903
 32
0.0
 13
642.296450667893
 23
-770.7294152501903
 33
0.0
  0
MTEXT
  5
2A7
330
29E
100
AcDbEntity
  8
0
  6
ByBlock
 62
     0
100
AcDbMText
 10
651.43220954651
 20
-779.8651741287069
 30
0.0
 40
0.18
 41
0.0
 46
0.0
 71
     5
 72
     1
  1
\A1;25.8398
 73
     1
 44
1.0
  0
POINT
  5
2A8
330
29E
100
AcDbEntity
  8
Defpoints
 62
     0
100
AcDbPoint
 10
681.2973836750898
 20
-768.2715177570334
 30
0.0
  0
POINT
  5
2A9
330
29E
100
AcDbEntity
  8
Defpoints
 62
     0
100
AcDbPoint
 10
663.025865917856
 20
-750.0
 30
0.0
  0
POINT
  5
2AA
330
29E
100
AcDbEntity
  8
Defpoints
 62
     0
100
AcDbPoint
 10
642.296450667893
 20
-770.7294152501903
 30
0.0
  0
ENDBLK
  5
2A0
330
29E
100
AcDbEntity
  8
0
100
AcDbBlockEnd
  0
BLOCK
  5
2AF
330
2AE
100
AcDbEntity
  8
0
100
AcDbBlockBegin
  2
*D10
 70
     1
 10
0.0
 20
0.0
 30
0.0
  3
*D10
  1

  0
LINE
  5
2B1
330
2AE
100
AcDbEntity
  8
0
  6
ByBlock
 62
     0
370
    -2
100
AcDbLine
 10
382.8541278379528
 20
-295.9683820998803
 30
0.0
 11
350.4142019961952
 21
-328.4083079419938
 31
0.0
  0
LINE
  5
2B2
330
2AE
100
AcDbEntity
  8
0
  6
ByBlock
 62
     0
370
    -2
100
AcDbLine
 10
768.2273235867343
 20
-681.3415778444355
 30
0.0
 11
735.7873977449767
 21
-713.781503686549
 31
0.0
  0
LINE
  5
2B3
330
2AE
100
AcDbEntity
  8
0
  6
ByBlock
 62
     0
370
    -2
100
AcDbLine
 10
350.6687604374223
 20
-328.4083079419923
 30
0.0
 11
543.0480790911968
 21
-520.787626593657
 31
0.0
  0
LINE
  5
2B4
330
2AE
100
AcDbEntity
  8
0
  6
ByBlock
 62
     0
370
    -2
100
AcDbLine
 10
735.7873977449754
 20
-713.5269452453218
 30
0.0
 11
543.4080790912009
 21
-521.1476265936572
 31
0.0
  0
SOLID
  5
2B5
330
2AE
100
AcDbEntity
  8
0
 62
     0
100
AcDbTrace
 10
350.6899736408578
 20
-328.3870947385566
 30
0.0
 11
350.6475472339869
 21
-328.4295211454281
 31
0.0
 12
350.5414812168081
 22
-328.2810287213795
 32
0.0
 13
350.5414812168081
 23
-328.2810287213795
 33
0.0
  0
SOLID
  5
2B6
330
2AE
100
AcDbEntity
  8
0
 62
     0
100
AcDbTrace
 10
735.7661845415398
 20
-713.5481584487576
 30
0.0
 11
735.8086109484109
 21
-713.5057320418861
 31
0.0
 12
735.9146769655896
 22
-713.6542244659347
 32
0.0
 13
735.9146769655896
 23
-713.6542244659347
 33
0.0
  0
MTEXT
  5
2B7
330
2AE
100
AcDbEntity
  8
0
  6
ByBlock
 62
     0
100
AcDbMText
 10
543.2280790911989
 20
-520.9676265936571
 30
0.0
 40
0.18
 41
0.0
 46
0.0
 71
     5
 72
     1
  1
\A1;545.0000
 73
     1
 44
1.0
  0
POINT
  5
2B8
330
2AE
100
AcDbEntity
  8
Defpoints
 62
     0
100
AcDbPoint
 10
382.8983220117767
 20
-295.9241879260559
 30
0.0
  0
POINT
  5
2B9
330
2AE
100
AcDbEntity
  8
Defpoints
 62
     0
100
AcDbPoint
 10
768.2715177605583
 20
-681.2973836706111
 30
0.0
  0
POINT
  5
2BA
330
2AE
100
AcDbEntity
  8
Defpoints
 62
     0
100
AcDbPoint
 10
735.9146769655896
 20
-713.6542244659347
 30
0.0
  0
ENDBLK
  5
2B0
330
2AE
100
AcDbEntity
  8
0
100
AcDbBlockEnd
  0
BLOCK
  5
2BF
330
2BE
100
AcDbEntity
  8
0
100
AcDbBlockBegin
  2
*D11
 70
     1
 10
0.0
 20
0.0
 30
0.0
  3
*D11
  1

  0
LINE
  5
2C1
330
2BE
100
AcDbEntity
  8
0
  6
ByBlock
 62
     0
370
    -2
100
AcDbLine
 10
382.8541278379523
 20
-295.8799937522319
 30
0.0
 11
367.3006939148311
 21
-280.3265598292813
 31
0.0
  0
LINE
  5
2C2
330
2BE
100
AcDbEntity
  8
0
  6
ByBlock
 62
     0
370
    -2
100
AcDbLine
 10
295.8799937524839
 20
-382.8541278386542
 30
0.0
 11
280.3265598293626
 21
-367.3006939157036
 31
0.0
  0
LINE
  5
2C3
330
2BE
100
AcDbEntity
  8
0
  6
ByBlock
 62
     0
370
    -2
100
AcDbLine
 10
367.3006939148325
 20
-280.5811182705085
 30
0.0
 11
324.1209060927091
 21
-323.7609060931054
 31
0.0
  0
LINE
  5
2C4
330
2BE
100
AcDbEntity
  8
0
  6
ByBlock
 62
     0
370
    -2
100
AcDbLine
 10
280.5811182705898
 20
-367.3006939157022
 30
0.0
 11
323.7609060927132
 21
-324.1209060931053
 31
0.0
  0
SOLID
  5
2C5
330
2BE
100
AcDbEntity
  8
0
 62
     0
100
AcDbTrace
 10
367.3219071182682
 20
-280.602331473944
 30
0.0
 11
367.2794807113968
 21
-280.559905067073
 31
0.0
 12
367.4279731354454
 22
-280.4538390498942
 32
0.0
 13
367.4279731354454
 23
-280.4538390498942
 33
0.0
  0
SOLID
  5
2C6
330
2BE
100
AcDbEntity
  8
0
 62
     0
100
AcDbTrace
 10
280.5599050671541
 20
-367.2794807122667
 30
0.0
 11
280.6023314740255
 21
-367.3219071191377
 31
0.0
 12
280.4538390499769
 22
-367.4279731363165
 32
0.0
 13
280.4538390499769
 23
-367.4279731363165
 33
0.0
  0
MTEXT
  5
2C7
330
2BE
100
AcDbEntity
  8
0
  6
ByBlock
 62
     0
100
AcDbMText
 10
323.9409060927111
 20
-323.9409060931054
 30
0.0
 40
0.18
 41
0.0
 46
0.0
 71
     5
 72
     1
  1
\A1;123.0000
 73
     1
 44
1.0
  0
POINT
  5
2C8
330
2BE
100
AcDbEntity
  8
Defpoints
 62
     0
100
AcDbPoint
 10
382.8983220117767
 20
-295.9241879260559
 30
0.0
  0
POINT
  5
2C9
330
2BE
100
AcDbEntity
  8
Defpoints
 62
     0
100
AcDbPoint
 10
295.9241879263083
 20
-382.8983220124782
 30
0.0
  0
POINT
  5
2CA
330
2BE
100
AcDbEntity
  8
Defpoints
 62
     0
100
AcDbPoint
 10
280.4538390499769
 20
-367.4279731363165
 30
0.0
  0
ENDBLK
  5
2C0
330
2BE
100
AcDbEntity
  8
0
100
AcDbBlockEnd
  0
BLOCK
  5
2E3
330
2E2
100
AcDbEntity
  8
0
100
AcDbBlockBegin
  2
*D12
 70
     1
 10
0.0
 20
0.0
 30
0.0
  3
*D12
  1

  0
LINE
  5
2E5
330
2E2
100
AcDbEntity
  8
0
  6
ByBlock
 62
     0
370
    -2
100
AcDbLine
 10
-0.0000000000001137
 20
0.0625
 30
0.0
 11
-0.0000000000001137
 21
139.4007748635782
 31
0.0
  0
LINE
  5
2E6
330
2E2
100
AcDbEntity
  8
0
  6
ByBlock
 62
     0
370
    -2
100
AcDbLine
 10
550.0
 20
129.020826602
 30
0.0
 11
550.0
 21
139.4007748635782
 31
0.0
  0
LINE
  5
2E7
330
2E2
100
AcDbEntity
  8
0
  6
ByBlock
 62
     0
370
    -2
100
AcDbLine
 10
0.1799999999998863
 20
139.2207748635782
 30
0.0
 11
274.292857142857
 21
139.2207748635782
 31
0.0
  0
LINE
  5
2E8
330
2E2
100
AcDbEntity
  8
0
  6
ByBlock
 62
     0
370
    -2
100
AcDbLine
 10
549.82
 20
139.2207748635782
 30
0.0
 11
275.7071428571429
 21
139.2207748635782
 31
0.0
  0
SOLID
  5
2E9
330
2E2
100
AcDbEntity
  8
0
 62
     0
100
AcDbTrace
 10
0.1799999999998863
 20
139.2507748635782
 30
0.0
 11
0.1799999999998863
 21
139.1907748635782
 31
0.0
 12
-0.0000000000001137
 22
139.2207748635782
 32
0.0
 13
-0.0000000000001137
 23
139.2207748635782
 33
0.0
  0
SOLID
  5
2EA
330
2E2
100
AcDbEntity
  8
0
 62
     0
100
AcDbTrace
 10
549.82
 20
139.1907748635782
 30
0.0
 11
549.82
 21
139.2507748635782
 31
0.0
 12
550.0
 22
139.2207748635782
 32
0.0
 13
550.0
 23
139.2207748635782
 33
0.0
  0
MTEXT
  5
2EB
330
2E2
100
AcDbEntity
  8
0
  6
ByBlock
 62
     0
100
AcDbMText
 10
274.9999999999999
 20
139.2207748635782
 30
0.0
 40
0.18
 41
0.0
 46
0.0
 71
     5
 72
     1
  1
\A1;550.0000
 73
     1
 44
1.0
  0
POINT
  5
2EC
330
2E2
100
AcDbEntity
  8
Defpoints
 62
     0
100
AcDbPoint
 10
-0.0000000000001137
 20
0.0
 30
0.0
  0
POINT
  5
2ED
330
2E2
100
AcDbEntity
  8
Defpoints
 62
     0
100
AcDbPoint
 10
550.0
 20
128.958326602
 30
0.0
  0
POINT
  5
2EE
330
2E2
100
AcDbEntity
  8
Defpoints
 62
     0
100
AcDbPoint
 10
550.0
 20
139.2207748635782
 30
0.0
  0
ENDBLK
  5
2E4
330
2E2
100
AcDbEntity
  8
0
100
AcDbBlockEnd
  0
BLOCK
  5
2F3
330
2F2
100
AcDbEntity
  8
0
100
AcDbBlockBegin
  2
*D13
 70
     1
 10
0.0
 20
0.0
 30
0.0
  3
*D13
  1

  0
LINE
  5
2F5
330
2F2
100
AcDbEntity
  8
0
  6
ByBlock
 62
     0
370
    -2
100
AcDbLine
 10
-0.0000000000001137
 20
0.0625
 30
0.0
 11
-0.0000000000001137
 21
139.6752172159091
 31
0.0
  0
LINE
  5
2F6
330
2F2
100
AcDbEntity
  8
0
  6
ByBlock
 62
     0
370
    -2
100
AcDbLine
 10
-650.0
 20
129.020826602
 30
0.0
 11
-650.0
 21
139.6752172159091
 31
0.0
  0
LINE
  5
2F7
330
2F2
100
AcDbEntity
  8
0
  6
ByBlock
 62
     0
370
    -2
100
AcDbLine
 10
-0.1800000000001137
 20
139.4952172159091
 30
0.0
 11
-324.2928571428573
 21
139.4952172159091
 31
0.0
  0
LINE
  5
2F8
330
2F2
100
AcDbEntity
  8
0
  6
ByBlock
 62
     0
370
    -2
100
AcDbLine
 10
-649.82
 20
139.4952172159091
 30
0.0
 11
-325.7071428571429
 21
139.4952172159091
 31
0.0
  0
SOLID
  5
2F9
330
2F2
100
AcDbEntity
  8
0
 62
     0
100
AcDbTrace
 10
-0.1800000000001137
 20
139.4652172159091
 30
0.0
 11
-0.1800000000001137
 21
139.5252172159091
 31
0.0
 12
-0.0000000000001137
 22
139.4952172159091
 32
0.0
 13
-0.0000000000001137
 23
139.4952172159091
 33
0.0
  0
SOLID
  5
2FA
330
2F2
100
AcDbEntity
  8
0
 62
     0
100
AcDbTrace
 10
-649.82
 20
139.5252172159091
 30
0.0
 11
-649.82
 21
139.4652172159091
 31
0.0
 12
-650.0
 22
139.4952172159091
 32
0.0
 13
-650.0
 23
139.4952172159091
 33
0.0
  0
MTEXT
  5
2FB
330
2F2
100
AcDbEntity
  8
0
  6
ByBlock
 62
     0
100
AcDbMText
 10
-325.0000000000001
 20
139.4952172159091
 30
0.0
 40
0.18
 41
0.0
 46
0.0
 71
     5
 72
     1
  1
\A1;650.0000
 73
     1
 44
1.0
  0
POINT
  5
2FC
330
2F2
100
AcDbEntity
  8
Defpoints
 62
     0
100
AcDbPoint
 10
-0.0000000000001137
 20
0.0
 30
0.0
  0
POINT
  5
2FD
330
2F2
100
AcDbEntity
  8
Defpoints
 62
     0
100
AcDbPoint
 10
-650.0
 20
128.958326602
 30
0.0
  0
POINT
  5
2FE
330
2F2
100
AcDbEntity
  8
Defpoints
 62
     0
100
AcDbPoint
 10
-650.0
 20
139.4952172159091
 30
0.0
  0
ENDBLK
  5
2F4
330
2F2
100
AcDbEntity
  8
0
100
AcDbBlockEnd
  0
BLOCK
  5
304
330
303
100
AcDbEntity
  8
0
100
AcDbBlockBegin
  2
*D14
 70
     1
 10
0.0
 20
0.0
 30
0.0
  3
*D14
  1

  0
LINE
  5
306
330
303
100
AcDbEntity
  8
0
  6
ByBlock
 62
     0
370
    -2
100
AcDbLine
 10
268.7447710238242
 20
-268.6563826771759
 30
0.0
 11
468.3614124467035
 21
-69.03974125503954
 31
0.0
  0
LINE
  5
307
330
303
100
AcDbEntity
  8
0
  6
ByBlock
 62
     0
370
    -2
100
AcDbLine
 10
0.0441941738241278
 20
0.044194173824077
 30
0.0
 11
199.6608355967033
 21
199.6608355959604
 31
0.0
  0
LINE
  5
308
330
303
100
AcDbEntity
  8
0
  6
ByBlock
 62
     0
370
    -2
100
AcDbLine
 10
468.1068540054763
 20
-69.03974125503908
 30
0.0
 11
334.0638448010889
 21
65.00326794984713
 31
0.0
  0
LINE
  5
309
330
303
100
AcDbEntity
  8
0
  6
ByBlock
 62
     0
370
    -2
100
AcDbLine
 10
199.6608355967028
 20
199.4062771547333
 30
0.0
 11
333.7038448010902
 21
65.36326794984711
 31
0.0
  0
SOLID
  5
30A
330
303
100
AcDbEntity
  8
0
 62
     0
100
AcDbTrace
 10
468.0856408020406
 20
-69.06095445847463
 30
0.0
 11
468.1280672089119
 21
-69.01852805160352
 31
0.0
 12
468.2341332260896
 22
-69.16702047565289
 32
0.0
 13
468.2341332260896
 23
-69.16702047565289
 33
0.0
  0
SOLID
  5
30B
330
303
100
AcDbEntity
  8
0
 62
     0
100
AcDbTrace
 10
199.6820488001385
 20
199.4274903581689
 30
0.0
 11
199.6396223932672
 21
199.3850639512977
 31
0.0
 12
199.5335563760895
 22
199.5335563753471
 32
0.0
 13
199.5335563760895
 23
199.5335563753471
 33
0.0
  0
MTEXT
  5
30C
330
303
100
AcDbEntity
  8
0
  6
ByBlock
 62
     0
100
AcDbMText
 10
333.8838448010896
 20
65.1832679498471
 30
0.0
 40
0.18
 41
0.0
 46
0.0
 71
     5
 72
     1
  1
\A1;380.0000
 73
     1
 44
1.0
  0
POINT
  5
30D
330
303
100
AcDbEntity
  8
Defpoints
 62
     0
100
AcDbPoint
 10
268.70057685
 20
-268.700576851
 30
0.0
  0
POINT
  5
30E
330
303
100
AcDbEntity
  8
Defpoints
 62
     0
100
AcDbPoint
 10
-0.0000000000001137
 20
0.0
 30
0.0
  0
POINT
  5
30F
330
303
100
AcDbEntity
  8
Defpoints
 62
     0
100
AcDbPoint
 10
199.5335563760895
 20
199.5335563753471
 30
0.0
  0
ENDBLK
  5
305
330
303
100
AcDbEntity
  8
0
100
AcDbBlockEnd
  0
BLOCK
  5
323
330
322
100
AcDbEntity
  8
0
100
AcDbBlockBegin
  2
*D15
 70
     1
 10
0.0
 20
0.0
 30
0.0
  3
*D15
  1

  0
LINE
  5
325
330
322
100
AcDbEntity
  8
text
  6
ByBlock
 62
     0
370
    -2
100
AcDbLine
 10
-650.0
 20
152.989066163
 30
0.0
 11
-650.0
 21
473.7745548446233
 31
0.0
  0
LINE
  5
326
330
322
100
AcDbEntity
  8
text
  6
ByBlock
 62
     0
370
    -2
100
AcDbLine
 10
550.0
 20
152.989066163
 30
0.0
 11
550.0
 21
473.7745548446233
 31
0.0
  0
LINE
  5
327
330
322
100
AcDbEntity
  8
text
  6
ByBlock
 62
     0
370
    -2
100
AcDbLine
 10
-623.0
 20
446.7745548446233
 30
0.0
 11
-177.2857142857142
 21
446.7745548446233
 31
0.0
  0
LINE
  5
328
330
322
100
AcDbEntity
  8
text
  6
ByBlock
 62
     0
370
    -2
100
AcDbLine
 10
523.0
 20
446.7745548446233
 30
0.0
 11
77.28571428571433
 21
446.7745548446233
 31
0.0
  0
SOLID
  5
329
330
322
100
AcDbEntity
  8
text
 62
     0
100
AcDbTrace
 10
-623.0
 20
451.2745548446233
 30
0.0
 11
-623.0
 21
442.2745548446233
 31
0.0
 12
-650.0
 22
446.7745548446233
 32
0.0
 13
-650.0
 23
446.7745548446233
 33
0.0
  0
SOLID
  5
32A
330
322
100
AcDbEntity
  8
text
 62
     0
100
AcDbTrace
 10
523.0
 20
442.2745548446233
 30
0.0
 11
523.0
 21
451.2745548446233
 31
0.0
 12
550.0
 22
446.7745548446233
 32
0.0
 13
550.0
 23
446.7745548446233
 33
0.0
  0
MTEXT
  5
32B
330
322
100
AcDbEntity
  8
text
  6
ByBlock
 62
     0
100
AcDbMText
 10
-50.0
 20
446.7745548446233
 30
0.0
 40
27.0
 41
0.0
 46
0.0
 71
     5
 72
     1
  1
\A1;1200 [mm]
 73
     1
 44
1.0
  0
POINT
  5
32C
330
322
100
AcDbEntity
  8
Defpoints
 62
     0
100
AcDbPoint
 10
-650.0
 20
143.614066163
 30
0.0
  0
POINT
  5
32D
330
322
100
AcDbEntity
  8
Defpoints
 62
     0
100
AcDbPoint
 10
550.0
 20
143.614066163
 30
0.0
  0
POINT
  5
32E
330
322
100
AcDbEntity
  8
Defpoints
 62
     0
100
AcDbPoint
 10
550.0
 20
446.7745548446233
 30
0.0
  0
ENDBLK
  5
324
330
322
100
AcDbEntity
  8
0
100
AcDbBlockEnd
  0
BLOCK
  5
333
330
332
100
AcDbEntity
  8
0
100
AcDbBlockBegin
  2
*D16
 70
     1
 10
0.0
 20
0.0
 30
0.0
  3
*D16
  1

  0
LINE
  5
335
330
332
100
AcDbEntity
  8
text
  6
ByBlock
 62
     0
370
    -2
100
AcDbLine
 10
183.4058213693342
 20
-0.4419417383924014
 30
0.0
 11
295.1400443131344
 21
111.2922812054076
 31
0.0
  0
LINE
  5
336
330
332
100
AcDbEntity
  8
text
  6
ByBlock
 62
     0
370
    -2
100
AcDbLine
 10
353.1114488541054
 20
-170.1475692231637
 30
0.0
 11
464.8456717979055
 21
-58.41334627936374
 31
0.0
  0
LINE
  5
337
330
332
100
AcDbEntity
  8
text
  6
ByBlock
 62
     0
370
    -2
100
AcDbLine
 10
295.1400443131343
 20
73.10851502133401
 30
0.0
 11
326.8697249634831
 21
41.37883437098515
 31
0.0
  0
LINE
  5
338
330
332
100
AcDbEntity
  8
text
  6
ByBlock
 62
     0
370
    -2
100
AcDbLine
 10
426.6619056138319
 20
-58.41334627936372
 30
0.0
 11
394.9322249634831
 21
-26.68366562901485
 31
0.0
  0
SOLID
  5
339
330
332
100
AcDbEntity
  8
text
 62
     0
100
AcDbTrace
 10
298.3220248284738
 20
76.29049553667348
 30
0.0
 11
291.9580637977948
 21
69.92653450599455
 31
0.0
 12
276.0481612210975
 22
92.20039811337081
 32
0.0
 13
276.0481612210975
 23
92.20039811337081
 33
0.0
  0
SOLID
  5
33A
330
332
100
AcDbEntity
  8
text
 62
     0
100
AcDbTrace
 10
423.4799250984925
 20
-61.59532679470318
 30
0.0
 11
429.8438861291714
 21
-55.23136576402426
 31
0.0
 12
445.7537887058687
 22
-77.50522937140052
 32
0.0
 13
445.7537887058687
 23
-77.50522937140052
 33
0.0
  0
MTEXT
  5
33B
330
332
100
AcDbEntity
  8
text
  6
ByBlock
 62
     0
100
AcDbMText
 10
360.9009749634831
 20
7.347584370985146
 30
0.0
 40
27.0
 41
0.0
 46
0.0
 71
     5
 72
     1
  1
\A1;240 [mm]
 73
     1
 44
1.0
  0
POINT
  5
33C
330
332
100
AcDbEntity
  8
Defpoints
 62
     0
100
AcDbPoint
 10
176.7766952957103
 20
-7.071067812016281
 30
0.0
  0
POINT
  5
33D
330
332
100
AcDbEntity
  8
Defpoints
 62
     0
100
AcDbPoint
 10
346.4823227804815
 20
-176.7766952967876
 30
0.0
  0
POINT
  5
33E
330
332
100
AcDbEntity
  8
Defpoints
 62
     0
100
AcDbPoint
 10
445.7537887058687
 20
-77.50522937140052
 30
0.0
  0
ENDBLK
  5
334
330
332
100
AcDbEntity
  8
0
100
AcDbBlockEnd
  0
BLOCK
  5
343
330
342
100
AcDbEntity
  8
0
100
AcDbBlockBegin
  2
*D17
 70
     1
 10
0.0
 20
0.0
 30
0.0
  3
*D17
  1

  0
LINE
  5
345
330
342
100
AcDbEntity
  8
text
  6
ByBlock
 62
     0
370
    -2
100
AcDbLine
 10
389.527448085364
 20
-289.295061852396
 30
0.0
 11
491.4357135219406
 21
-187.3867964147017
 31
0.0
  0
LINE
  5
346
330
342
100
AcDbEntity
  8
text
  6
ByBlock
 62
     0
370
    -2
100
AcDbLine
 10
774.9006438341456
 20
-674.6682575969513
 30
0.0
 11
876.8089092707223
 21
-572.759992159257
 31
0.0
  0
LINE
  5
347
330
342
100
AcDbEntity
  8
text
  6
ByBlock
 62
     0
370
    -2
100
AcDbLine
 10
491.43571352215
 20
-225.5705625987752
 30
0.0
 11
630.9991783040261
 21
-365.1340273791208
 31
0.0
  0
LINE
  5
348
330
342
100
AcDbEntity
  8
text
  6
ByBlock
 62
     0
370
    -2
100
AcDbLine
 10
838.6251430866488
 20
-572.7599921594664
 30
0.0
 11
699.0616783047726
 21
-433.1965273791209
 31
0.0
  0
SOLID
  5
349
330
342
100
AcDbEntity
  8
text
 62
     0
100
AcDbTrace
 10
494.6176940374721
 20
-222.3885820834183
 30
0.0
 11
488.253733006828
 21
-228.7525431141322
 31
0.0
 12
472.3438304300086
 22
-206.4786795068432
 32
0.0
 13
472.3438304300086
 23
-206.4786795068432
 33
0.0
  0
SOLID
  5
34A
330
342
100
AcDbEntity
  8
text
 62
     0
100
AcDbTrace
 10
835.4431625713268
 20
-575.9419726748233
 30
0.0
 11
841.8071236019708
 21
-569.5780116441094
 31
0.0
 12
857.7170261787902
 22
-591.8518752513985
 32
0.0
 13
857.7170261787902
 23
-591.8518752513985
 33
0.0
  0
MTEXT
  5
34B
330
342
100
AcDbEntity
  8
text
  6
ByBlock
 62
     0
100
AcDbMText
 10
665.0304283043994
 20
-399.1652773791208
 30
0.0
 40
27.0
 41
0.0
 46
0.0
 71
     5
 72
     1
  1
\A1;545 [mm]
 73
     1
 44
1.0
  0
POINT
  5
34C
330
342
100
AcDbEntity
  8
Defpoints
 62
     0
100
AcDbPoint
 10
382.8983220117765
 20
-295.9241879260562
 30
0.0
  0
POINT
  5
34D
330
342
100
AcDbEntity
  8
Defpoints
 62
     0
100
AcDbPoint
 10
768.2715177605581
 20
-681.2973836706116
 30
0.0
  0
POINT
  5
34E
330
342
100
AcDbEntity
  8
Defpoints
 62
     0
100
AcDbPoint
 10
857.7170261787902
 20
-591.8518752513985
 30
0.0
  0
ENDBLK
  5
344
330
342
100
AcDbEntity
  8
0
100
AcDbBlockEnd
  0
ENDSEC
  0
SECTION
  2
ENTITIES
  0
LINE
  5
178
330
1D
100
AcDbEntity
  8
pipeWalls
 62
     0
100
AcDbLine
 10
-315.623727829
 20
-128.958326602
 30
0.0
 11
-311.333380093
 21
-128.958508454
 31
0.0
  0
LINE
  5
17B
330
1D
100
AcDbEntity
  8
pipeWalls
 62
     0
100
AcDbLine
 10
-318.660186522
 20
-131.993371046
 30
0.0
 11
-643.75
 21
-131.993371046
 31
0.0
  0
LINE
  5
17C
330
1D
100
AcDbEntity
  8
pipeWalls
 62
     0
100
AcDbLine
 10
-643.75
 20
-131.993371046
 30
0.0
 11
-643.75
 21
-128.958326602
 31
0.0
  0
LINE
  5
17D
330
1D
100
AcDbEntity
  8
pipeWalls
 62
     0
100
AcDbLine
 10
-643.75
 20
-128.958326602
 30
0.0
 11
-315.623727829
 21
-128.958326602
 31
0.0
  0
LINE
  5
17E
330
1D
100
AcDbEntity
  8
pipeWalls
 62
     0
100
AcDbLine
 10
-131.993371046
 20
131.993371046
 30
0.0
 11
-131.993371046
 21
373.75
 31
0.0
  0
LINE
  5
17F
330
1D
100
AcDbEntity
  8
pipeWalls
 62
     0
100
AcDbLine
 10
-131.993371046
 20
373.75
 30
0.0
 11
-128.9583266020001
 21
373.75
 31
0.0
  0
LINE
  5
180
330
1D
100
AcDbEntity
  8
pipeWalls
 62
     0
100
AcDbLine
 10
-128.9583266020001
 20
373.75
 30
0.0
 11
-128.95593293
 21
128.95593293
 31
0.0
  0
LINE
  5
183
330
1D
100
AcDbEntity
  8
pipeWalls
 62
     0
100
AcDbLine
 10
-128.95593293
 20
128.95593293
 30
0.0
 11
-643.75
 21
128.958326602
 31
0.0
  0
LINE
  5
184
330
1D
100
AcDbEntity
  8
pipeWalls
 62
     0
100
AcDbLine
 10
-643.75
 20
128.958326602
 30
0.0
 11
-643.75
 21
131.993371046
 31
0.0
  0
LINE
  5
185
330
1D
100
AcDbEntity
  8
pipeWalls
 62
     0
100
AcDbLine
 10
-643.75
 20
131.993371046
 30
0.0
 11
-131.993371046
 21
131.993371046
 31
0.0
  0
LINE
  5
187
330
1D
100
AcDbEntity
  8
pipeWalls
 62
     0
100
AcDbLine
 10
-318.660186522
 20
-131.993371046
 30
0.0
 11
-357.614567207
 21
-170.94775173
 31
0.0
  0
LINE
  5
188
330
1D
100
AcDbEntity
  8
pipeWalls
 62
     0
100
AcDbLine
 10
-357.614567207
 20
-170.94775173
 30
0.0
 11
-355.468466699
 21
-173.093852238
 31
0.0
  0
LINE
  5
189
330
1D
100
AcDbEntity
  8
pipeWalls
 62
     0
100
AcDbLine
 10
-355.468466699
 20
-173.093852238
 30
0.0
 11
-311.333380093
 21
-128.958508454
 31
0.0
  0
LINE
  5
18A
330
1D
100
AcDbEntity
  8
pipeWalls
 62
     0
100
AcDbLine
 10
170.94775173
 20
-357.614567207
 30
0.0
 11
0.000044733999971
 21
-186.666376779
 31
0.0
  0
LINE
  5
18B
330
1D
100
AcDbEntity
  8
pipeWalls
 62
     0
100
AcDbLine
 10
0.000044733999971
 20
-186.666376779
 30
0.0
 11
-170.94775173
 21
-357.614567207
 31
0.0
  0
LINE
  5
18C
330
1D
100
AcDbEntity
  8
pipeWalls
 62
     0
100
AcDbLine
 10
-170.94775173
 20
-357.614567207
 30
0.0
 11
-173.093852238
 21
-355.468466699
 31
0.0
  0
LINE
  5
18D
330
1D
100
AcDbEntity
  8
pipeWalls
 62
     0
100
AcDbLine
 10
-173.093852238
 20
-355.468466699
 30
0.0
 11
0.0
 21
-182.37099288
 31
0.0
  0
LINE
  5
18E
330
1D
100
AcDbEntity
  8
pipeWalls
 62
     0
100
AcDbLine
 10
0.0
 20
-182.37099288
 30
0.0
 11
173.093852238
 21
-355.468466699
 31
0.0
  0
LINE
  5
18F
330
1D
100
AcDbEntity
  8
pipeWalls
 62
     0
100
AcDbLine
 10
173.093852238
 20
-355.468466699
 30
0.0
 11
170.94775173
 21
-357.614567207
 31
0.0
  0
LINE
  5
190
330
1D
100
AcDbEntity
  8
pipeWalls
 62
     0
100
AcDbLine
 10
357.61456721
 20
-170.94775173
 30
0.0
 11
355.4684667
 21
-173.093852238
 31
0.0
  0
LINE
  5
191
330
1D
100
AcDbEntity
  8
pipeWalls
 62
     0
100
AcDbLine
 10
355.4684667
 20
-173.093852238
 30
0.0
 11
311.3333095519999
 21
-128.958326602
 31
0.0
  0
LINE
  5
194
330
1D
100
AcDbEntity
  8
pipeWalls
 62
     0
100
AcDbLine
 10
311.3333095519999
 20
-128.958326602
 30
0.0
 11
543.75
 21
-128.958326602
 31
0.0
  0
LINE
  5
195
330
1D
100
AcDbEntity
  8
pipeWalls
 62
     0
100
AcDbLine
 10
543.75
 20
-128.958326602
 30
0.0
 11
543.75
 21
-131.993371046
 31
0.0
  0
LINE
  5
196
330
1D
100
AcDbEntity
  8
pipeWalls
 62
     0
100
AcDbLine
 10
543.75
 20
-131.993371046
 30
0.0
 11
318.660186522
 21
-131.993371046
 31
0.0
  0
LINE
  5
197
330
1D
100
AcDbEntity
  8
pipeWalls
 62
     0
100
AcDbLine
 10
318.660186522
 20
-131.993371046
 30
0.0
 11
357.61456721
 21
-170.94775173
 31
0.0
  0
LINE
  5
199
330
1D
100
AcDbEntity
  8
pipeWalls
 62
     0
100
AcDbLine
 10
128.958674307
 20
129.0006719114759
 30
0.0
 11
128.9583266020001
 21
373.75
 31
0.0
  0
LINE
  5
19A
330
1D
100
AcDbEntity
  8
pipeWalls
 62
     0
100
AcDbLine
 10
128.9583266020001
 20
373.75
 30
0.0
 11
131.993371046
 21
373.75
 31
0.0
  0
LINE
  5
19B
330
1D
100
AcDbEntity
  8
pipeWalls
 62
     0
100
AcDbLine
 10
131.993371046
 20
373.75
 30
0.0
 11
131.993371046
 21
131.993371046
 31
0.0
  0
LINE
  5
19C
330
1D
100
AcDbEntity
  8
pipeWalls
 62
     0
100
AcDbLine
 10
131.993371046
 20
131.993371046
 30
0.0
 11
543.75
 21
131.993371046
 31
0.0
  0
LINE
  5
19D
330
1D
100
AcDbEntity
  8
pipeWalls
 62
     0
100
AcDbLine
 10
543.75
 20
131.993371046
 30
0.0
 11
543.75
 21
128.958326602
 31
0.0
  0
LINE
  5
19E
330
1D
100
AcDbEntity
  8
pipeWalls
 62
     0
100
AcDbLine
 10
543.75
 20
128.958326602
 30
0.0
 11
128.958674307
 21
129.0006719114759
 31
0.0
  0
LINE
  5
1A0
102
{ACAD_REACTORS
330
321
102
}
330
1D
100
AcDbEntity
  8
pipeWalls
 62
     0
100
AcDbLine
 10
-650.0
 20
128.958326602
 30
0.0
 11
-650.0
 21
143.614066163
 31
0.0
  0
LINE
  5
1A1
330
1D
100
AcDbEntity
  8
pipeWalls
 62
     0
100
AcDbLine
 10
-650.0
 20
143.614066163
 30
0.0
 11
-647.65879672032
 21
143.614066163
 31
0.0
  0
LINE
  5
1A2
330
1D
100
AcDbEntity
  8
pipeWalls
 62
     0
100
AcDbLine
 10
-647.65879672032
 20
143.614066163
 30
0.0
 11
-644.99999752932
 21
141.008710369
 31
0.0
  0
LINE
  5
1A3
330
1D
100
AcDbEntity
  8
pipeWalls
 62
     0
100
AcDbLine
 10
-644.99999752932
 20
141.008710369
 30
0.0
 11
-642.34120327968
 21
143.614066163
 31
0.0
  0
LINE
  5
1A4
330
1D
100
AcDbEntity
  8
pipeWalls
 62
     0
100
AcDbLine
 10
-642.34120327968
 20
143.614066163
 30
0.0
 11
-638.0
 21
143.614066163
 31
0.0
  0
LINE
  5
1A5
330
1D
100
AcDbEntity
  8
pipeWalls
 62
     0
100
AcDbLine
 10
-638.0
 20
143.614066163
 30
0.0
 11
-638.0
 21
141.190509596
 31
0.0
  0
LINE
  5
1A6
330
1D
100
AcDbEntity
  8
pipeWalls
 62
     0
100
AcDbLine
 10
-638.0
 20
141.190509596
 30
0.0
 11
-640.1
 21
141.190509596
 31
0.0
  0
LINE
  5
1A7
330
1D
100
AcDbEntity
  8
pipeWalls
 62
     0
100
AcDbLine
 10
-640.1
 20
141.190509596
 30
0.0
 11
-640.1
 21
131.993371046
 31
0.0
  0
LINE
  5
1A8
330
1D
100
AcDbEntity
  8
pipeWalls
 62
     0
100
AcDbLine
 10
-640.1
 20
131.993371046
 30
0.0
 11
-643.75
 21
131.993371046
 31
0.0
  0
LINE
  5
1A9
330
1D
100
AcDbEntity
  8
pipeWalls
 62
     0
100
AcDbLine
 10
-643.75
 20
131.993371046
 30
0.0
 11
-643.75
 21
128.755931902
 31
0.0
  0
LINE
  5
1AA
330
1D
100
AcDbEntity
  8
pipeWalls
 62
     0
100
AcDbLine
 10
-643.75
 20
128.755931902
 30
0.0
 11
-646.75
 21
128.755931902
 31
0.0
  0
LINE
  5
1AB
330
1D
100
AcDbEntity
  8
pipeWalls
 62
     0
100
AcDbLine
 10
-646.75
 20
128.755931902
 30
0.0
 11
-646.75
 21
128.958326602
 31
0.0
  0
LINE
  5
1AC
330
1D
100
AcDbEntity
  8
pipeWalls
 62
     0
100
AcDbLine
 10
-646.75
 20
128.958326602
 30
0.0
 11
-650.0
 21
128.958326602
 31
0.0
  0
LINE
  5
1AD
330
1D
100
AcDbEntity
  8
pipeWalls
 62
     0
100
AcDbLine
 10
-643.75
 20
-128.755931902
 30
0.0
 11
-643.75
 21
-131.993371046
 31
0.0
  0
LINE
  5
1AE
330
1D
100
AcDbEntity
  8
pipeWalls
 62
     0
100
AcDbLine
 10
-643.75
 20
-131.993371046
 30
0.0
 11
-640.1
 21
-131.993371046
 31
0.0
  0
LINE
  5
1AF
330
1D
100
AcDbEntity
  8
pipeWalls
 62
     0
100
AcDbLine
 10
-640.1
 20
-131.993371046
 30
0.0
 11
-640.1
 21
-141.190509596
 31
0.0
  0
LINE
  5
1B0
330
1D
100
AcDbEntity
  8
pipeWalls
 62
     0
100
AcDbLine
 10
-640.1
 20
-141.190509596
 30
0.0
 11
-638.0
 21
-141.190509596
 31
0.0
  0
LINE
  5
1B1
330
1D
100
AcDbEntity
  8
pipeWalls
 62
     0
100
AcDbLine
 10
-638.0
 20
-141.190509596
 30
0.0
 11
-638.0
 21
-143.614066163
 31
0.0
  0
LINE
  5
1B2
330
1D
100
AcDbEntity
  8
pipeWalls
 62
     0
100
AcDbLine
 10
-638.0
 20
-143.614066163
 30
0.0
 11
-642.34120327968
 21
-143.614066163
 31
0.0
  0
LINE
  5
1B3
330
1D
100
AcDbEntity
  8
pipeWalls
 62
     0
100
AcDbLine
 10
-642.34120327968
 20
-143.614066163
 30
0.0
 11
-644.99999752932
 21
-141.008710369
 31
0.0
  0
LINE
  5
1B4
330
1D
100
AcDbEntity
  8
pipeWalls
 62
     0
100
AcDbLine
 10
-644.99999752932
 20
-141.008710369
 30
0.0
 11
-647.65879672032
 21
-143.614066163
 31
0.0
  0
LINE
  5
1B5
330
1D
100
AcDbEntity
  8
pipeWalls
 62
     0
100
AcDbLine
 10
-647.65879672032
 20
-143.614066163
 30
0.0
 11
-650.0
 21
-143.614066163
 31
0.0
  0
LINE
  5
1B6
330
1D
100
AcDbEntity
  8
pipeWalls
 62
     0
100
AcDbLine
 10
-650.0
 20
-143.614066163
 30
0.0
 11
-650.0
 21
-128.958326602
 31
0.0
  0
LINE
  5
1B7
330
1D
100
AcDbEntity
  8
pipeWalls
 62
     0
100
AcDbLine
 10
-650.0
 20
-128.958326602
 30
0.0
 11
-646.75
 21
-128.958326602
 31
0.0
  0
LINE
  5
1B8
330
1D
100
AcDbEntity
  8
pipeWalls
 62
     0
100
AcDbLine
 10
-646.75
 20
-128.958326602
 30
0.0
 11
-646.75
 21
-128.755931902
 31
0.0
  0
LINE
  5
1B9
330
1D
100
AcDbEntity
  8
pipeWalls
 62
     0
100
AcDbLine
 10
-646.75
 20
-128.755931902
 30
0.0
 11
-643.75
 21
-128.755931902
 31
0.0
  0
LINE
  5
1BA
330
1D
100
AcDbEntity
  8
pipeWalls
 62
     0
100
AcDbLine
 10
550.0
 20
-128.958326602
 30
0.0
 11
550.0
 21
-143.614066163
 31
0.0
  0
LINE
  5
1BB
330
1D
100
AcDbEntity
  8
pipeWalls
 62
     0
100
AcDbLine
 10
550.0
 20
-143.614066163
 30
0.0
 11
547.65879672
 21
-143.614066163
 31
0.0
  0
LINE
  5
1BC
330
1D
100
AcDbEntity
  8
pipeWalls
 62
     0
100
AcDbLine
 10
547.65879672
 20
-143.614066163
 30
0.0
 11
544.99999753
 21
-141.008710369
 31
0.0
  0
LINE
  5
1BD
330
1D
100
AcDbEntity
  8
pipeWalls
 62
     0
100
AcDbLine
 10
544.99999753
 20
-141.008710369
 30
0.0
 11
542.34120328
 21
-143.614066163
 31
0.0
  0
LINE
  5
1BE
330
1D
100
AcDbEntity
  8
pipeWalls
 62
     0
100
AcDbLine
 10
542.34120328
 20
-143.614066163
 30
0.0
 11
538.0
 21
-143.614066163
 31
0.0
  0
LINE
  5
1BF
330
1D
100
AcDbEntity
  8
pipeWalls
 62
     0
100
AcDbLine
 10
538.0
 20
-143.614066163
 30
0.0
 11
538.0
 21
-141.190509596
 31
0.0
  0
LINE
  5
1C0
330
1D
100
AcDbEntity
  8
pipeWalls
 62
     0
100
AcDbLine
 10
538.0
 20
-141.190509596
 30
0.0
 11
540.0999999999999
 21
-141.190509596
 31
0.0
  0
LINE
  5
1C1
330
1D
100
AcDbEntity
  8
pipeWalls
 62
     0
100
AcDbLine
 10
540.0999999999999
 20
-141.190509596
 30
0.0
 11
540.0999999999999
 21
-131.993371046
 31
0.0
  0
LINE
  5
1C2
330
1D
100
AcDbEntity
  8
pipeWalls
 62
     0
100
AcDbLine
 10
540.0999999999999
 20
-131.993371046
 30
0.0
 11
543.75
 21
-131.993371046
 31
0.0
  0
LINE
  5
1C3
330
1D
100
AcDbEntity
  8
pipeWalls
 62
     0
100
AcDbLine
 10
543.75
 20
-131.993371046
 30
0.0
 11
543.75
 21
-128.755931902
 31
0.0
  0
LINE
  5
1C4
330
1D
100
AcDbEntity
  8
pipeWalls
 62
     0
100
AcDbLine
 10
543.75
 20
-128.755931902
 30
0.0
 11
546.75
 21
-128.755931902
 31
0.0
  0
LINE
  5
1C5
330
1D
100
AcDbEntity
  8
pipeWalls
 62
     0
100
AcDbLine
 10
546.75
 20
-128.755931902
 30
0.0
 11
546.75
 21
-128.958326602
 31
0.0
  0
LINE
  5
1C6
330
1D
100
AcDbEntity
  8
pipeWalls
 62
     0
100
AcDbLine
 10
546.75
 20
-128.958326602
 30
0.0
 11
550.0
 21
-128.958326602
 31
0.0
  0
LINE
  5
1C7
330
1D
100
AcDbEntity
  8
pipeWalls
 62
     0
100
AcDbLine
 10
543.75
 20
128.755931902
 30
0.0
 11
543.75
 21
131.993371046
 31
0.0
  0
LINE
  5
1C8
330
1D
100
AcDbEntity
  8
pipeWalls
 62
     0
100
AcDbLine
 10
543.75
 20
131.993371046
 30
0.0
 11
540.0999999999999
 21
131.993371046
 31
0.0
  0
LINE
  5
1C9
330
1D
100
AcDbEntity
  8
pipeWalls
 62
     0
100
AcDbLine
 10
540.0999999999999
 20
131.993371046
 30
0.0
 11
540.0999999999999
 21
141.190509596
 31
0.0
  0
LINE
  5
1CA
330
1D
100
AcDbEntity
  8
pipeWalls
 62
     0
100
AcDbLine
 10
540.0999999999999
 20
141.190509596
 30
0.0
 11
538.0
 21
141.190509596
 31
0.0
  0
LINE
  5
1CB
330
1D
100
AcDbEntity
  8
pipeWalls
 62
     0
100
AcDbLine
 10
538.0
 20
141.190509596
 30
0.0
 11
538.0
 21
143.614066163
 31
0.0
  0
LINE
  5
1CC
330
1D
100
AcDbEntity
  8
pipeWalls
 62
     0
100
AcDbLine
 10
538.0
 20
143.614066163
 30
0.0
 11
542.34120328
 21
143.614066163
 31
0.0
  0
LINE
  5
1CD
330
1D
100
AcDbEntity
  8
pipeWalls
 62
     0
100
AcDbLine
 10
542.34120328
 20
143.614066163
 30
0.0
 11
544.99999753
 21
141.008710369
 31
0.0
  0
LINE
  5
1CE
330
1D
100
AcDbEntity
  8
pipeWalls
 62
     0
100
AcDbLine
 10
544.99999753
 20
141.008710369
 30
0.0
 11
547.65879672
 21
143.614066163
 31
0.0
  0
LINE
  5
1CF
102
{ACAD_REACTORS
330
321
102
}
330
1D
100
AcDbEntity
  8
pipeWalls
 62
     0
100
AcDbLine
 10
547.65879672
 20
143.614066163
 30
0.0
 11
550.0
 21
143.614066163
 31
0.0
  0
LINE
  5
1D0
102
{ACAD_REACTORS
102
}
330
1D
100
AcDbEntity
  8
pipeWalls
 62
     0
100
AcDbLine
 10
550.0
 20
143.614066163
 30
0.0
 11
550.0
 21
128.958326602
 31
0.0
  0
LINE
  5
1D1
330
1D
100
AcDbEntity
  8
pipeWalls
 62
     0
100
AcDbLine
 10
550.0
 20
128.958326602
 30
0.0
 11
546.75
 21
128.958326602
 31
0.0
  0
LINE
  5
1D2
330
1D
100
AcDbEntity
  8
pipeWalls
 62
     0
100
AcDbLine
 10
546.75
 20
128.958326602
 30
0.0
 11
546.75
 21
128.755931902
 31
0.0
  0
LINE
  5
1D3
330
1D
100
AcDbEntity
  8
pipeWalls
 62
     0
100
AcDbLine
 10
546.75
 20
128.755931902
 30
0.0
 11
543.75
 21
128.755931902
 31
0.0
  0
LINE
  5
1D4
330
1D
100
AcDbEntity
  8
pipeWalls
 62
     0
100
AcDbLine
 10
-359.887884082
 20
-177.51326962
 30
0.0
 11
-370.251056909
 21
-167.150096793
 31
0.0
  0
LINE
  5
1D5
330
1D
100
AcDbEntity
  8
pipeWalls
 62
     0
100
AcDbLine
 10
-370.251056909
 20
-167.150096793
 30
0.0
 11
-368.595576194
 21
-165.494616078
 31
0.0
  0
LINE
  5
1D6
330
1D
100
AcDbEntity
  8
pipeWalls
 62
     0
100
AcDbLine
 10
-368.595576194
 20
-165.494616078
 30
0.0
 11
-364.873256506
 21
-165.456825889
 31
0.0
  0
LINE
  5
1D7
330
1D
100
AcDbEntity
  8
pipeWalls
 62
     0
100
AcDbLine
 10
-364.873256506
 20
-165.456825889
 30
0.0
 11
-364.835469812
 21
-161.734509696
 31
0.0
  0
LINE
  5
1D8
330
1D
100
AcDbEntity
  8
pipeWalls
 62
     0
100
AcDbLine
 10
-364.835469812
 20
-161.734509696
 30
0.0
 11
-361.765775535
 21
-158.664815419
 31
0.0
  0
LINE
  5
1D9
330
1D
100
AcDbEntity
  8
pipeWalls
 62
     0
100
AcDbLine
 10
-361.765775535
 20
-158.664815419
 30
0.0
 11
-360.052062251
 21
-160.378528702
 31
0.0
  0
LINE
  5
1DA
330
1D
100
AcDbEntity
  8
pipeWalls
 62
     0
100
AcDbLine
 10
-360.052062251
 20
-160.378528702
 30
0.0
 11
-361.536986492
 21
-161.863452943
 31
0.0
  0
LINE
  5
1DB
330
1D
100
AcDbEntity
  8
pipeWalls
 62
     0
100
AcDbLine
 10
-361.536986492
 20
-161.863452943
 30
0.0
 11
-355.033627455
 21
-168.366811979
 31
0.0
  0
LINE
  5
1DC
330
1D
100
AcDbEntity
  8
pipeWalls
 62
     0
100
AcDbLine
 10
-355.033627455
 20
-168.366811979
 30
0.0
 11
-357.614567207
 21
-170.94775173
 31
0.0
  0
LINE
  5
1DD
330
1D
100
AcDbEntity
  8
pipeWalls
 62
     0
100
AcDbLine
 10
-357.614567207
 20
-170.94775173
 30
0.0
 11
-355.325352035
 21
-173.236966902
 31
0.0
  0
LINE
  5
1DE
330
1D
100
AcDbEntity
  8
pipeWalls
 62
     0
100
AcDbLine
 10
-355.325352035
 20
-173.236966902
 30
0.0
 11
-357.446672378
 21
-175.358287246
 31
0.0
  0
LINE
  5
1DF
330
1D
100
AcDbEntity
  8
pipeWalls
 62
     0
100
AcDbLine
 10
-357.446672378
 20
-175.358287246
 30
0.0
 11
-357.589787043
 21
-175.215172581
 31
0.0
  0
LINE
  5
1E0
330
1D
100
AcDbEntity
  8
pipeWalls
 62
     0
100
AcDbLine
 10
-357.589787043
 20
-175.215172581
 30
0.0
 11
-359.887884082
 21
-177.51326962
 31
0.0
  0
LINE
  5
1E1
330
1D
100
AcDbEntity
  8
pipeWalls
 62
     0
100
AcDbLine
 10
-173.236966902
 20
-355.325352035
 30
0.0
 11
-170.94775173
 21
-357.614567207
 31
0.0
  0
LINE
  5
1E2
330
1D
100
AcDbEntity
  8
pipeWalls
 62
     0
100
AcDbLine
 10
-170.94775173
 20
-357.614567207
 30
0.0
 11
-168.366811979
 21
-355.033627455
 31
0.0
  0
LINE
  5
1E3
330
1D
100
AcDbEntity
  8
pipeWalls
 62
     0
100
AcDbLine
 10
-168.366811979
 20
-355.033627455
 30
0.0
 11
-161.863452943
 21
-361.536986492
 31
0.0
  0
LINE
  5
1E4
330
1D
100
AcDbEntity
  8
pipeWalls
 62
     0
100
AcDbLine
 10
-161.863452943
 20
-361.536986492
 30
0.0
 11
-160.378528702
 21
-360.052062251
 31
0.0
  0
LINE
  5
1E5
330
1D
100
AcDbEntity
  8
pipeWalls
 62
     0
100
AcDbLine
 10
-160.378528702
 20
-360.052062251
 30
0.0
 11
-158.664815419
 21
-361.765775535
 31
0.0
  0
LINE
  5
1E6
330
1D
100
AcDbEntity
  8
pipeWalls
 62
     0
100
AcDbLine
 10
-158.664815419
 20
-361.765775535
 30
0.0
 11
-161.734509696
 21
-364.835469812
 31
0.0
  0
LINE
  5
1E7
330
1D
100
AcDbEntity
  8
pipeWalls
 62
     0
100
AcDbLine
 10
-161.734509696
 20
-364.835469812
 30
0.0
 11
-165.456825889
 21
-364.873256506
 31
0.0
  0
LINE
  5
1E8
330
1D
100
AcDbEntity
  8
pipeWalls
 62
     0
100
AcDbLine
 10
-165.456825889
 20
-364.873256506
 30
0.0
 11
-165.494616078
 21
-368.595576194
 31
0.0
  0
LINE
  5
1E9
330
1D
100
AcDbEntity
  8
pipeWalls
 62
     0
100
AcDbLine
 10
-165.494616078
 20
-368.595576194
 30
0.0
 11
-167.150096793
 21
-370.251056909
 31
0.0
  0
LINE
  5
1EA
330
1D
100
AcDbEntity
  8
pipeWalls
 62
     0
100
AcDbLine
 10
-167.150096793
 20
-370.251056909
 30
0.0
 11
-177.51326962
 21
-359.887884082
 31
0.0
  0
LINE
  5
1EB
330
1D
100
AcDbEntity
  8
pipeWalls
 62
     0
100
AcDbLine
 10
-177.51326962
 20
-359.887884082
 30
0.0
 11
-175.215172581
 21
-357.589787043
 31
0.0
  0
LINE
  5
1EC
330
1D
100
AcDbEntity
  8
pipeWalls
 62
     0
100
AcDbLine
 10
-175.215172581
 20
-357.589787043
 30
0.0
 11
-175.358287246
 21
-357.446672378
 31
0.0
  0
LINE
  5
1ED
330
1D
100
AcDbEntity
  8
pipeWalls
 62
     0
100
AcDbLine
 10
-175.358287246
 20
-357.446672378
 30
0.0
 11
-173.236966902
 21
-355.325352035
 31
0.0
  0
LINE
  5
1EE
330
1D
100
AcDbEntity
  8
pipeWalls
 62
     0
100
AcDbLine
 10
128.9583266020001
 20
380.0
 30
0.0
 11
143.614066163
 21
380.0
 31
0.0
  0
LINE
  5
1EF
330
1D
100
AcDbEntity
  8
pipeWalls
 62
     0
100
AcDbLine
 10
143.614066163
 20
380.0
 30
0.0
 11
143.614066163
 21
377.65879672
 31
0.0
  0
LINE
  5
1F0
330
1D
100
AcDbEntity
  8
pipeWalls
 62
     0
100
AcDbLine
 10
143.614066163
 20
377.65879672
 30
0.0
 11
141.008710369
 21
374.999997529
 31
0.0
  0
LINE
  5
1F1
330
1D
100
AcDbEntity
  8
pipeWalls
 62
     0
100
AcDbLine
 10
141.008710369
 20
374.999997529
 30
0.0
 11
143.614066163
 21
372.34120328
 31
0.0
  0
LINE
  5
1F2
330
1D
100
AcDbEntity
  8
pipeWalls
 62
     0
100
AcDbLine
 10
143.614066163
 20
372.34120328
 30
0.0
 11
143.614066163
 21
368.0
 31
0.0
  0
LINE
  5
1F3
330
1D
100
AcDbEntity
  8
pipeWalls
 62
     0
100
AcDbLine
 10
143.614066163
 20
368.0
 30
0.0
 11
141.190509596
 21
368.0
 31
0.0
  0
LINE
  5
1F4
330
1D
100
AcDbEntity
  8
pipeWalls
 62
     0
100
AcDbLine
 10
141.190509596
 20
368.0
 30
0.0
 11
141.190509596
 21
370.1
 31
0.0
  0
LINE
  5
1F5
330
1D
100
AcDbEntity
  8
pipeWalls
 62
     0
100
AcDbLine
 10
141.190509596
 20
370.1
 30
0.0
 11
131.993371046
 21
370.1
 31
0.0
  0
LINE
  5
1F6
330
1D
100
AcDbEntity
  8
pipeWalls
 62
     0
100
AcDbLine
 10
131.993371046
 20
370.1
 30
0.0
 11
131.993371046
 21
373.75
 31
0.0
  0
LINE
  5
1F7
330
1D
100
AcDbEntity
  8
pipeWalls
 62
     0
100
AcDbLine
 10
131.993371046
 20
373.75
 30
0.0
 11
128.755931902
 21
373.75
 31
0.0
  0
LINE
  5
1F8
330
1D
100
AcDbEntity
  8
pipeWalls
 62
     0
100
AcDbLine
 10
128.755931902
 20
373.75
 30
0.0
 11
128.755931902
 21
376.75
 31
0.0
  0
LINE
  5
1F9
330
1D
100
AcDbEntity
  8
pipeWalls
 62
     0
100
AcDbLine
 10
128.755931902
 20
376.75
 30
0.0
 11
128.9583266020001
 21
376.75
 31
0.0
  0
LINE
  5
1FA
330
1D
100
AcDbEntity
  8
pipeWalls
 62
     0
100
AcDbLine
 10
128.9583266020001
 20
376.75
 30
0.0
 11
128.9583266020001
 21
380.0
 31
0.0
  0
LINE
  5
1FB
330
1D
100
AcDbEntity
  8
pipeWalls
 62
     0
100
AcDbLine
 10
-128.755931902
 20
373.75
 30
0.0
 11
-131.993371046
 21
373.75
 31
0.0
  0
LINE
  5
1FC
330
1D
100
AcDbEntity
  8
pipeWalls
 62
     0
100
AcDbLine
 10
-131.993371046
 20
373.75
 30
0.0
 11
-131.993371046
 21
370.1
 31
0.0
  0
LINE
  5
1FD
330
1D
100
AcDbEntity
  8
pipeWalls
 62
     0
100
AcDbLine
 10
-131.993371046
 20
370.1
 30
0.0
 11
-141.190509596
 21
370.1
 31
0.0
  0
LINE
  5
1FE
330
1D
100
AcDbEntity
  8
pipeWalls
 62
     0
100
AcDbLine
 10
-141.190509596
 20
370.1
 30
0.0
 11
-141.190509596
 21
368.0
 31
0.0
  0
LINE
  5
1FF
330
1D
100
AcDbEntity
  8
pipeWalls
 62
     0
100
AcDbLine
 10
-141.190509596
 20
368.0
 30
0.0
 11
-143.614066163
 21
368.0
 31
0.0
  0
LINE
  5
200
330
1D
100
AcDbEntity
  8
pipeWalls
 62
     0
100
AcDbLine
 10
-143.614066163
 20
368.0
 30
0.0
 11
-143.614066163
 21
372.34120328
 31
0.0
  0
LINE
  5
201
330
1D
100
AcDbEntity
  8
pipeWalls
 62
     0
100
AcDbLine
 10
-143.614066163
 20
372.34120328
 30
0.0
 11
-141.008710369
 21
374.999997529
 31
0.0
  0
LINE
  5
202
330
1D
100
AcDbEntity
  8
pipeWalls
 62
     0
100
AcDbLine
 10
-141.008710369
 20
374.999997529
 30
0.0
 11
-143.614066163
 21
377.65879672
 31
0.0
  0
LINE
  5
203
330
1D
100
AcDbEntity
  8
pipeWalls
 62
     0
100
AcDbLine
 10
-143.614066163
 20
377.65879672
 30
0.0
 11
-143.614066163
 21
380.0
 31
0.0
  0
LINE
  5
204
330
1D
100
AcDbEntity
  8
pipeWalls
 62
     0
100
AcDbLine
 10
-143.614066163
 20
380.0
 30
0.0
 11
-128.9583266020001
 21
380.0
 31
0.0
  0
LINE
  5
205
330
1D
100
AcDbEntity
  8
pipeWalls
 62
     0
100
AcDbLine
 10
-128.9583266020001
 20
380.0
 30
0.0
 11
-128.9583266020001
 21
376.75
 31
0.0
  0
LINE
  5
206
330
1D
100
AcDbEntity
  8
pipeWalls
 62
     0
100
AcDbLine
 10
-128.9583266020001
 20
376.75
 30
0.0
 11
-128.755931902
 21
376.75
 31
0.0
  0
LINE
  5
207
330
1D
100
AcDbEntity
  8
pipeWalls
 62
     0
100
AcDbLine
 10
-128.755931902
 20
376.75
 30
0.0
 11
-128.755931902
 21
373.75
 31
0.0
  0
LINE
  5
208
330
1D
100
AcDbEntity
  8
pipeWalls
 62
     0
100
AcDbLine
 10
177.51326962
 20
-359.887884082
 30
0.0
 11
167.150096793
 21
-370.251056909
 31
0.0
  0
LINE
  5
209
330
1D
100
AcDbEntity
  8
pipeWalls
 62
     0
100
AcDbLine
 10
167.150096793
 20
-370.251056909
 30
0.0
 11
165.494616078
 21
-368.595576194
 31
0.0
  0
LINE
  5
20A
330
1D
100
AcDbEntity
  8
pipeWalls
 62
     0
100
AcDbLine
 10
165.494616078
 20
-368.595576194
 30
0.0
 11
165.456825889
 21
-364.873256506
 31
0.0
  0
LINE
  5
20B
330
1D
100
AcDbEntity
  8
pipeWalls
 62
     0
100
AcDbLine
 10
165.456825889
 20
-364.873256506
 30
0.0
 11
161.734509696
 21
-364.835469812
 31
0.0
  0
LINE
  5
20C
330
1D
100
AcDbEntity
  8
pipeWalls
 62
     0
100
AcDbLine
 10
161.734509696
 20
-364.835469812
 30
0.0
 11
158.664815419
 21
-361.765775535
 31
0.0
  0
LINE
  5
20D
330
1D
100
AcDbEntity
  8
pipeWalls
 62
     0
100
AcDbLine
 10
158.664815419
 20
-361.765775535
 30
0.0
 11
160.378528702
 21
-360.052062251
 31
0.0
  0
LINE
  5
20E
330
1D
100
AcDbEntity
  8
pipeWalls
 62
     0
100
AcDbLine
 10
160.378528702
 20
-360.052062251
 30
0.0
 11
161.863452943
 21
-361.536986492
 31
0.0
  0
LINE
  5
20F
330
1D
100
AcDbEntity
  8
pipeWalls
 62
     0
100
AcDbLine
 10
161.863452943
 20
-361.536986492
 30
0.0
 11
168.366811979
 21
-355.033627455
 31
0.0
  0
LINE
  5
210
330
1D
100
AcDbEntity
  8
pipeWalls
 62
     0
100
AcDbLine
 10
168.366811979
 20
-355.033627455
 30
0.0
 11
170.94775173
 21
-357.614567207
 31
0.0
  0
LINE
  5
211
330
1D
100
AcDbEntity
  8
pipeWalls
 62
     0
100
AcDbLine
 10
170.94775173
 20
-357.614567207
 30
0.0
 11
173.2369669019999
 21
-355.325352035
 31
0.0
  0
LINE
  5
212
330
1D
100
AcDbEntity
  8
pipeWalls
 62
     0
100
AcDbLine
 10
173.2369669019999
 20
-355.325352035
 30
0.0
 11
175.358287246
 21
-357.446672378
 31
0.0
  0
LINE
  5
213
330
1D
100
AcDbEntity
  8
pipeWalls
 62
     0
100
AcDbLine
 10
175.358287246
 20
-357.446672378
 30
0.0
 11
175.215172581
 21
-357.589787043
 31
0.0
  0
LINE
  5
214
330
1D
100
AcDbEntity
  8
pipeWalls
 62
     0
100
AcDbLine
 10
175.215172581
 20
-357.589787043
 30
0.0
 11
177.51326962
 21
-359.887884082
 31
0.0
  0
LINE
  5
215
330
1D
100
AcDbEntity
  8
pipeWalls
 62
     0
100
AcDbLine
 10
355.32535203
 20
-173.236966902
 30
0.0
 11
357.61456721
 21
-170.94775173
 31
0.0
  0
LINE
  5
216
330
1D
100
AcDbEntity
  8
pipeWalls
 62
     0
100
AcDbLine
 10
357.61456721
 20
-170.94775173
 30
0.0
 11
355.03362746
 21
-168.366811979
 31
0.0
  0
LINE
  5
217
330
1D
100
AcDbEntity
  8
pipeWalls
 62
     0
100
AcDbLine
 10
355.03362746
 20
-168.366811979
 30
0.0
 11
361.53698649
 21
-161.863452943
 31
0.0
  0
LINE
  5
218
330
1D
100
AcDbEntity
  8
pipeWalls
 62
     0
100
AcDbLine
 10
361.53698649
 20
-161.863452943
 30
0.0
 11
360.0520622499999
 21
-160.378528702
 31
0.0
  0
LINE
  5
219
330
1D
100
AcDbEntity
  8
pipeWalls
 62
     0
100
AcDbLine
 10
360.0520622499999
 20
-160.378528702
 30
0.0
 11
361.76577553
 21
-158.664815419
 31
0.0
  0
LINE
  5
21A
330
1D
100
AcDbEntity
  8
pipeWalls
 62
     0
100
AcDbLine
 10
361.76577553
 20
-158.664815419
 30
0.0
 11
364.8354698099999
 21
-161.734509696
 31
0.0
  0
LINE
  5
21B
330
1D
100
AcDbEntity
  8
pipeWalls
 62
     0
100
AcDbLine
 10
364.8354698099999
 20
-161.734509696
 30
0.0
 11
364.87325651
 21
-165.456825889
 31
0.0
  0
LINE
  5
21C
330
1D
100
AcDbEntity
  8
pipeWalls
 62
     0
100
AcDbLine
 10
364.87325651
 20
-165.456825889
 30
0.0
 11
368.59557619
 21
-165.494616078
 31
0.0
  0
LINE
  5
21D
330
1D
100
AcDbEntity
  8
pipeWalls
 62
     0
100
AcDbLine
 10
368.59557619
 20
-165.494616078
 30
0.0
 11
370.25105691
 21
-167.150096793
 31
0.0
  0
LINE
  5
21E
330
1D
100
AcDbEntity
  8
pipeWalls
 62
     0
100
AcDbLine
 10
370.25105691
 20
-167.150096793
 30
0.0
 11
359.88788408
 21
-177.51326962
 31
0.0
  0
LINE
  5
21F
330
1D
100
AcDbEntity
  8
pipeWalls
 62
     0
100
AcDbLine
 10
359.88788408
 20
-177.51326962
 30
0.0
 11
357.58978704
 21
-175.215172581
 31
0.0
  0
LINE
  5
220
330
1D
100
AcDbEntity
  8
pipeWalls
 62
     0
100
AcDbLine
 10
357.58978704
 20
-175.215172581
 30
0.0
 11
357.44667238
 21
-175.358287246
 31
0.0
  0
LINE
  5
221
330
1D
100
AcDbEntity
  8
pipeWalls
 62
     0
100
AcDbLine
 10
357.44667238
 20
-175.358287246
 30
0.0
 11
355.32535203
 21
-173.236966902
 31
0.0
  0
LINE
  5
236
330
1D
100
AcDbEntity
  8
0
  6
ByBlock
100
AcDbLine
 10
0.0
 20
7500.0
 30
0.0
 11
1200.0
 21
7500.0
 31
0.0
  0
LINE
  5
237
102
{ACAD_REACTORS
330
31A
102
}
330
1D
100
AcDbEntity
  8
concreteWalls
  6
ByBlock
100
AcDbLine
 10
-650.0
 20
750.0
 30
0.0
 11
550.0
 21
750.0
 31
0.0
  0
LINE
  5
238
102
{ACAD_REACTORS
330
31E
102
}
330
1D
100
AcDbEntity
  8
concreteWalls
  6
ByBlock
100
AcDbLine
 10
-650.0
 20
-750.0
 30
0.0
 11
1467.338877781593
 21
-750.0
 31
0.0
  0
LWPOLYLINE
  5
263
102
{ACAD_REACTORS
330
28D
102
}
330
1D
100
AcDbEntity
  8
screens
  6
ByBlock
 62
     6
100
AcDbPolyline
 90
        4
 70
     1
 43
0.0
 10
0.0
 20
169.7056274847714
 10
-169.7056274847715
 20
0.0
 10
-0.0000000000002274
 20
-169.7056274847714
 10
169.7056274847712
 20
0.0000000000000568
  0
LWPOLYLINE
  5
266
102
{ACAD_REACTORS
330
331
102
}
330
1D
100
AcDbEntity
  8
screens
  6
ByBlock
 62
     6
100
AcDbPolyline
 90
        4
 70
     1
 43
0.0
 10
176.7766952957103
 20
-7.071067812016281
 10
7.071067810938757
 20
-176.7766952967876
 10
176.7766952957101
 20
-346.482322781559
 10
346.4823227804815
 20
-176.7766952967876
  0
HATCH
  5
28D
330
1D
100
AcDbEntity
  8
0
  6
ByBlock
 62
     6
100
AcDbHatch
 10
0.0
 20
0.0
 30
0.0
210
0.0
220
0.0
230
1.0
  2
ANSI31
 70
     0
 71
     1
 91
        1
 92
        1
 93
        4
 72
     1
 10
0.0
 20
169.7056274847714
 11
-169.7056274847715
 21
0.0
 72
     1
 10
-169.7056274847715
 20
0.0
 11
-0.0000000000002274
 21
-169.7056274847714
 72
     1
 10
-0.0000000000002274
 20
-169.7056274847714
 11
169.7056274847712
 21
0.0000000000000568
 72
     1
 10
169.7056274847712
 20
0.0000000000000568
 11
0.0
 21
169.7056274847714
 97
        1
330
263
 75
     0
 76
     1
 52
45.0
 41
100.0
 77
     0
 78
     1
 53
90.0
 43
0.0
 44
0.0
 45
-12.5
 46
0.0000000000000008
 79
     0
 98
        1
 10
0.0
 20
0.0
1001
ACAD
1010
0.0
1020
0.0
1030
0.0
  0
LINE
  5
290
330
1D
100
AcDbEntity
  8
0
  6
ByBlock
100
AcDbLine
 10
248.2239477390425
 20
-430.5985622002671
 30
0.0
 11
430.5985621990425
 21
-248.223947738267
 31
0.0
  0
LINE
  5
29A
330
1D
100
AcDbEntity
  8
0
  6
ByBlock
100
AcDbLine
 10
681.2973836750898
 20
-768.2715177570334
 30
0.0
 11
768.2715177605583
 21
-681.2973836706111
 31
0.0
  0
LWPOLYLINE
  5
2CB
102
{ACAD_REACTORS
330
341
102
}
330
1D
100
AcDbEntity
  8
mover
  6
ByBlock
100
AcDbPolyline
 90
        4
 70
     1
 43
0.0
 10
295.9241879263083
 20
-382.8983220124782
 10
382.8983220117765
 20
-295.9241879260562
 10
768.2715177605581
 20
-681.2973836706116
 10
681.2973836750899
 20
-768.2715177570335
  0
LEADER
  5
316
102
{ACAD_REACTORS
330
31A
102
}
102
{ACAD_XDICTIONARY
360
319
102
}
330
1D
100
AcDbEntity
  8
text
  6
ByBlock
100
AcDbLeader
  3
Standard
 73
     0
 40
27.0
 41
294.3482142857142
 76
     3
 10
-50.0
 20
750.0
 30
0.0
 10
-879.4772764247566
 20
-50.0017753242272
 30
0.0
 10
-1020.379561697073
 20
-48.97826612212691
 30
0.0
340
317
213
0.0
223
-13.5
233
0.0
1001
ACAD
1000
DSTYLE
1002
{
1070
    77
1070
     0
1070
   271
1070
     0
1070
     3
1000
 [mm]
1070
    40
1040
150.0
1070
   279
1070
     2
1002
}
  0
MTEXT
  5
317
102
{ACAD_REACTORS
330
316
102
}
330
1D
100
AcDbEntity
  8
text
  6
ByBlock
100
AcDbMText
 10
-1033.879561697073
 20
-35.47826612212691
 30
0.0
 40
27.0
 41
376.7035199294771
 46
0.0
 71
     3
 72
     1
  1
Concrete Walls
 73
     1
 44
1.0
  0
LEADER
  5
31B
102
{ACAD_REACTORS
330
31E
102
}
102
{ACAD_XDICTIONARY
360
31D
102
}
330
1D
100
AcDbEntity
  8
text
  6
ByBlock
100
AcDbLeader
  3
Standard
 76
     3
 10
408.6694388907965
 20
-750.0
 30
0.0
 10
-879.4772764247566
 20
-50.0017753242272
 30
0.0
 10
-1020.379561697073
 20
-48.97826612212691
 30
0.0
1001
ACAD
1000
DSTYLE
1002
{
1070
   271
1070
     0
1070
     3
1000
 [mm]
1070
    40
1040
150.0
1070
   279
1070
     2
1002
}
  0
DIMENSION
  5
31F
102
{ACAD_REACTORS
330
321
102
}
102
{ACAD_XDICTIONARY
360
320
102
}
330
1D
100
AcDbEntity
  8
text
  6
ByBlock
100
AcDbDimension
280
     0
  2
*D15
 10
550.0
 20
446.7745548446233
 30
0.0
 11
-50.0
 21
446.7745548446233
 31
0.0
 70
    32
 71
     5
 42
1200.0
 73
     0
 74
     0
 75
     0
  3
Standard
100
AcDbAlignedDimension
 13
-650.0
 23
143.614066163
 33
0.0
 14
550.0
 24
143.614066163
 34
0.0
100
AcDbRotatedDimension
1001
ACAD
1000
DSTYLE
1002
{
1070
   144
1040
1.0
1070
   271
1070
     0
1070
     3
1000
 [mm]
1070
    40
1040
150.0
1070
   279
1070
     2
1002
}
  0
DIMENSION
  5
32F
102
{ACAD_REACTORS
330
331
102
}
102
{ACAD_XDICTIONARY
360
330
102
}
330
1D
100
AcDbEntity
  8
text
  6
ByBlock
100
AcDbDimension
280
     0
  2
*D16
 10
445.7537887058687
 20
-77.50522937140052
 30
0.0
 11
360.9009749634831
 21
7.347584370985146
 31
0.0
 70
    33
 71
     5
 42
239.9999999999998
 73
     0
 74
     0
 75
     0
  3
Standard
100
AcDbAlignedDimension
 13
176.7766952957103
 23
-7.071067812016281
 33
0.0
 14
346.4823227804815
 24
-176.7766952967876
 34
0.0
1001
ACAD
1000
DSTYLE
1002
{
1070
   144
1040
1.0
1070
   271
1070
     0
1070
     3
1000
 [mm]
1070
    40
1040
150.0
1070
   279
1070
     2
1002
}
  0
DIMENSION
  5
33F
102
{ACAD_REACTORS
330
341
102
}
102
{ACAD_XDICTIONARY
360
340
102
}
330
1D
100
AcDbEntity
  8
text
  6
ByBlock
100
AcDbDimension
280
     0
  2
*D17
 10
857.7170261787902
 20
-591.8518752513985
 30
0.0
 11
665.0304283043994
 21
-399.1652773791208
 31
0.0
 70
    33
 71
     5
 42
545.0000000000001
 73
     0
 74
     0
 75
     0
  3
Standard
100
AcDbAlignedDimension
 13
382.8983220117765
 23
-295.9241879260562
 33
0.0
 14
768.2715177605581
 24
-681.2973836706116
 34
0.0
1001
ACAD
1000
DSTYLE
1002
{
1070
   144
1040
1.0
1070
   271
1070
     0
1070
     3
1000
 [mm]
1070
    40
1040
150.0
1070
   279
1070
     2
1002
}
  0
LEADER
  5
34F
102
{ACAD_XDICTIONARY
360
352
102
}
330
1D
100
AcDbEntity
  8
text
  6
ByBlock
100
AcDbLeader
  3
Standard
 73
     0
 74
     0
 40
36.0
 41
199.2053571428571
 76
     3
 10
-584.0982861628806
 20
131.9933710460001
 30
0.0
 10
-458.1636383551767
 20
233.1363803165399
 30
0.0
 10
-352.4808628979538
 20
233.1363803165399
 30
0.0
340
350
213
0.0
223
13.5
233
0.0
1001
ACAD
1000
DSTYLE
1002
{
1070
    77
1070
     0
1070
   271
1070
     0
1070
     3
1000
 [mm]
1070
    40
1040
150.0
1070
   279
1070
     2
1002
}
  0
MTEXT
  5
350
102
{ACAD_REACTORS
330
34F
102
}
330
1D
100
AcDbEntity
  8
text
  6
ByBlock
100
AcDbMText
 10
-338.9808628979538
 20
219.6363803165399
 30
0.0
 40
27.0
 41
376.7858364994196
 46
0.0
 71
     7
 72
     1
  1
Pipe Walls
 73
     1
 44
1.0
  0
LEADER
  5
354
330
1D
100
AcDbEntity
  8
text
  6
ByBlock
100
AcDbLeader
  3
Standard
 73
     0
 40
27.0
 41
180.1205357142857
 76
     3
 10
164.9706079882877
 20
-282.0415381003633
 30
0.0
 10
94.32825922927168
 20
-361.9789327487234
 30
0.0
 10
61.2630297825506
 20
-361.9789327487234
 30
0.0
340
355
213
0.0
223
-13.5
233
0.0
1001
ACAD
1000
DSTYLE
1002
{
1070
    77
1070
     0
1070
   271
1070
     0
1070
     3
1000
 [mm]
1070
    40
1040
150.0
1070
   279
1070
     2
1002
}
  0
MTEXT
  5
355
102
{ACAD_REACTORS
330
354
102
}
330
1D
100
AcDbEntity
  8
text
  6
ByBlock
100
AcDbMText
 10
47.7630297825506
 20
-348.4789327487234
 30
0.0
 40
27.0
 41
301.1594868147525
 46
0.0
 71
     3
 72
     1
  1
Screen C
 73
     1
 44
1.0
  0
MTEXT
  5
382
102
{ACAD_REACTORS
330
383
102
}
330
1D
100
AcDbEntity
  8
text
  6
ByBlock
100
AcDbMText
 10
-95.49403145234234
 20
-160.2320700290523
 30
0.0
 40
27.0
 41
301.1594868147525
 46
27.0
 71
     3
 72
     1
  1
{No Screen}
 73
     1
 44
1.0
1001
ACAD
1000
ACAD_MTEXT_DEFINED_HEIGHT_BEGIN
1070
    46
1040
27.0
1000
ACAD_MTEXT_DEFINED_HEIGHT_END
  0
LEADER
  5
383
330
1D
100
AcDbEntity
  8
text
  6
ByBlock
100
AcDbLeader
  3
Standard
 73
     0
 40
27.0
 41
203.0625
 76
     3
 10
21.71354675339478
 20
-93.7946753806921
 30
0.0
 10
-48.92880200562126
 20
-173.7320700290523
 30
0.0
 10
-81.99403145234234
 20
-173.7320700290523
 30
0.0
340
382
213
0.0
223
-13.5
233
0.0
1001
ACAD
1000
DSTYLE
1002
{
1070
    77
1070
     0
1070
   271
1070
     0
1070
     3
1000
 [mm]
1070
    40
1040
150.0
1070
   279
1070
     2
1002
}
  0
MTEXT
  5
3B1
330
1D
100
AcDbEntity
  8
text
  6
ByBlock
100
AcDbMText
 10
648.2771934354391
 20
-626.2510745678339
 30
0.0
 40
27.0
 41
528.6847565646938
 46
72.0
 71
     3
 72
     1
  1
{Horizontal Mover}
 11
0.7071067811865474
 21
-0.7071067811865477
 31
0.0
 73
     1
 44
1.0
1001
ACAD
1000
ACAD_MTEXT_DEFINED_HEIGHT_BEGIN
1070
    46
1040
72.0
1000
ACAD_MTEXT_DEFINED_HEIGHT_END
  0
MTEXT
  5
40A
330
1D
100
AcDbEntity
  8
text
  6
ByBlock
100
AcDbMText
 10
850.4298926093114
 20
48.19244215259675
 30
0.0
 40
27.0
 41
301.1594868147525
 46
36.0
 71
     3
 72
     1
  1
{To Dump}
 73
     1
 44
1.0
1001
ACAD
1000
ACAD_MTEXT_DEFINED_HEIGHT_BEGIN
1070
    46
1040
36.0
1000
ACAD_MTEXT_DEFINED_HEIGHT_END
  0
LEADER
  5
40B
330
1D
100
AcDbEntity
  8
text
  6
ByBlock
100
AcDbLeader
  3
Standard
 73
     0
 76
     2
 10
917.2090133307311
 20
-10.75927809202403
 30
0.0
 10
644.1670403312448
 20
-10.759278092024
 30
0.0
340
40C
213
0.0
223
-13.5
233
0.0
1001
ACAD
1000
DSTYLE
1002
{
1070
    77
1070
     0
1070
   271
1070
     0
1070
     3
1000
 [mm]
1070
    40
1040
150.0
1070
   279
1070
     2
1002
}
  0
MTEXT
  5
40C
102
{ACAD_REACTORS
330
40B
102
}
330
1D
100
AcDbEntity
  8
text
  6
ByBlock
100
AcDbMText
 10
644.0770403312448
 20
2.740721907976001
 30
0.0
 40
27.0
 41
301.1594868147525
 46
0.0
 71
     3
 72
     1
  1

 73
     1
 44
1.0
  0
ENDSEC
  0
SECTION
  2
OBJECTS
  0
DICTIONARY
  5
C
330
0
100
AcDbDictionary
281
     1
  3
ACAD_DETAILVIEWSTYLE
350
248
  3
ACAD_GROUP
350
D
  3
ACAD_LAYOUT
350
1A
  3
ACAD_MATERIAL
350
22
  3
ACAD_MLEADERSTYLE
350
154
  3
ACAD_MLINESTYLE
350
17
  3
ACAD_PLOTSETTINGS
350
19
  3
ACAD_PLOTSTYLENAME
350
E
  3
ACAD_SCALELIST
350
113
  3
ACAD_SECTIONVIEWSTYLE
350
249
  3
ACAD_TABLESTYLE
350
152
  3
ACAD_VISUALSTYLE
350
139
  3
AcadDim
350
40D
  3
ACDB_RECOMPOSE_DATA
350
410
  3
AcDbVariableDictionary
350
243
  3
APPDATA
350
156
  0
SUN
  5
285
330
28
100
AcDbSun
 90
        1
290
     0
 63
     7
421
 16777215
 40
1.0
291
     1
 91
  2455826
 92
 54000000
292
     0
 70
     2
 71
   256
280
     1
  0
DICTIONARY
  5
267
330
2
100
AcDbDictionary
280
     1
281
     1
  3
ACAD_LAYERSTATES
360
268
  3
ACLYDICTIONARY
360
312
  0
DICTIONARY
  5
28A
330
1D
100
AcDbDictionary
280
     1
281
     1
  3
ACAD_SORTENTS
360
28B
  0
DICTIONARY
  5
319
330
316
100
AcDbDictionary
280
     1
281
     1
  3
ACAD_DIMASSOC
360
31A
  0
DICTIONARY
  5
31D
330
31B
100
AcDbDictionary
280
     1
281
     1
  3
ACAD_DIMASSOC
360
31E
  0
DICTIONARY
  5
320
330
31F
100
AcDbDictionary
280
     1
281
     1
  3
ACAD_DIMASSOC
360
321
  0
DICTIONARY
  5
330
330
32F
100
AcDbDictionary
280
     1
281
     1
  3
ACAD_DIMASSOC
360
331
  0
DICTIONARY
  5
340
330
33F
100
AcDbDictionary
280
     1
281
     1
  3
ACAD_DIMASSOC
360
341
  0
DICTIONARY
  5
352
330
34F
100
AcDbDictionary
280
     1
281
     1
  0
DICTIONARY
  5
248
102
{ACAD_REACTORS
330
C
102
}
330
C
100
AcDbDictionary
281
     1
  0
DICTIONARY
  5
D
102
{ACAD_REACTORS
330
C
102
}
330
C
100
AcDbDictionary
281
     1
  0
DICTIONARY
  5
1A
102
{ACAD_REACTORS
330
C
102
}
330
C
100
AcDbDictionary
281
     1
  3
Model
350
1E
  3
Sheet 1
350
1C
  0
DICTIONARY
  5
22
102
{ACAD_REACTORS
330
C
102
}
330
C
100
AcDbDictionary
281
     1
  3
ByBlock
350
24
  3
ByLayer
350
23
  3
Global
350
25
  0
DICTIONARY
  5
154
102
{ACAD_REACTORS
330
C
102
}
330
C
100
AcDbDictionary
281
     1
  3
Standard
350
155
  0
DICTIONARY
  5
17
102
{ACAD_REACTORS
330
C
102
}
330
C
100
AcDbDictionary
281
     1
  3
Standard
350
18
  0
DICTIONARY
  5
19
102
{ACAD_REACTORS
330
C
102
}
330
C
100
AcDbDictionary
281
     1
  0
ACDBDICTIONARYWDFLT
  5
E
102
{ACAD_REACTORS
330
C
102
}
330
C
100
AcDbDictionary
281
     1
  3
Normal
350
F
100
AcDbDictionaryWithDefault
340
F
  0
DICTIONARY
  5
113
102
{ACAD_REACTORS
330
C
102
}
330
C
100
AcDbDictionary
281
     1
  3
A0
350
114
  3
A1
350
115
  3
A2
350
116
  3
A3
350
117
  3
A4
350
118
  3
A5
350
119
  3
A6
350
11A
  3
A7
350
11B
  3
A8
350
11C
  3
A9
350
11D
  3
B0
350
11E
  3
B1
350
11F
  3
B2
350
120
  3
B3
350
121
  3
B4
350
122
  3
B5
350
123
  3
B6
350
124
  3
B7
350
125
  3
B8
350
126
  3
B9
350
127
  3
C0
350
128
  3
C1
350
129
  3
C2
350
12A
  3
C3
350
12B
  3
C4
350
12C
  3
C5
350
12D
  3
C6
350
12E
  3
C7
350
12F
  3
C8
350
130
  3
C9
350
131
  3
D0
350
132
  3
D1
350
133
  3
D2
350
134
  0
DICTIONARY
  5
249
102
{ACAD_REACTORS
330
C
102
}
330
C
100
AcDbDictionary
281
     1
  0
DICTIONARY
  5
152
102
{ACAD_REACTORS
330
C
102
}
330
C
100
AcDbDictionary
281
     1
  3
Standard
350
153
  0
DICTIONARY
  5
139
102
{ACAD_REACTORS
330
C
102
}
330
C
100
AcDbDictionary
281
     1
  3
2dWireframe
350
13E
  3
Basic
350
141
  3
Brighten
350
145
  3
ColorChange
350
149
  3
Conceptual
350
143
  3
Dim
350
144
  3
EdgeColorOff
350
14C
  3
Facepattern
350
148
  3
Flat
350
13A
  3
FlatWithEdges
350
13B
  3
Gouraud
350
13C
  3
GouraudWithEdges
350
13D
  3
Hidden
350
140
  3
JitterOff
350
14A
  3
Linepattern
350
147
  3
OverhangOff
350
14B
  3
Realistic
350
142
  3
Shaded
350
151
  3
Shaded with edges
350
150
  3
Shades of Gray
350
14D
  3
Sketchy
350
14E
  3
Thicken
350
146
  3
Wireframe
350
13F
  3
X-Ray
350
14F
  0
XRECORD
  5
40D
102
{ACAD_REACTORS
330
C
102
}
330
C
100
AcDbXrecord
280
     1
340
40C
 72
     0
 71
     0
 70
     0
 69
     0
 68
     1
 67
     3
 66
     0
 65
     0
 64
     0
 63
     3
 62
     1
 61
     0
 60
     0
 40
301.1594868147525
  0
XRECORD
  5
410
102
{ACAD_REACTORS
330
C
102
}
330
C
100
AcDbXrecord
280
     1
 90
        1
330
153
  0
DICTIONARY
  5
243
102
{ACAD_REACTORS
330
C
102
}
330
C
100
AcDbDictionary
281
     1
  3
CANNOSCALE
350
244
  3
CMLEADERSTYLE
350
246
  3
CTABLESTYLE
350
245
  3
MSLTSCALE
350
247
  0
DICTIONARY
  5
156
102
{ACAD_REACTORS
330
C
102
}
330
C
100
AcDbDictionary
281
     1
  0
DICTIONARY
  5
268
102
{ACAD_REACTORS
330
267
102
}
330
267
100
AcDbDictionary
281
     1
  0
DICTIONARY
  5
312
102
{ACAD_REACTORS
330
267
102
}
330
267
100
AcDbDictionary
281
     1
1001
ACAD
1000
<All
  0
SORTENTSTABLE
  5
28B
102
{ACAD_REACTORS
330
28A
102
}
330
28A
100
AcDbSortentsTable
330
1D
331
0
  5
266
331
178
  5
17B
331
17B
  5
17C
331
17C
  5
17D
331
17D
  5
17E
331
17E
  5
17F
331
17F
  5
180
331
180
  5
183
331
183
  5
184
331
184
  5
185
331
185
  5
187
331
187
  5
188
331
188
  5
189
331
189
  5
18A
331
18A
  5
18B
331
18B
  5
18C
331
18C
  5
18D
331
18D
  5
18E
331
18E
  5
18F
331
18F
  5
190
331
190
  5
191
331
191
  5
194
331
194
  5
195
331
195
  5
196
331
196
  5
197
331
197
  5
199
331
199
  5
19A
331
19A
  5
19B
331
19B
  5
19C
331
19C
  5
19D
331
19D
  5
19E
331
19E
  5
1A0
331
1A0
  5
1A1
331
1A1
  5
1A2
331
1A2
  5
1A3
331
1A3
  5
1A4
331
1A4
  5
1A5
331
1A5
  5
1A6
331
1A6
  5
1A7
331
1A7
  5
1A8
331
1A8
  5
1A9
331
1A9
  5
1AA
331
1AA
  5
1AB
331
1AB
  5
1AC
331
1AC
  5
1AD
331
1AD
  5
1AE
331
1AE
  5
1AF
331
1AF
  5
1B0
331
1B0
  5
1B1
331
1B1
  5
1B2
331
1B2
  5
1B3
331
1B3
  5
1B4
331
1B4
  5
1B5
331
1B5
  5
1B6
331
1B6
  5
1B7
331
1B7
  5
1B8
331
1B8
  5
1B9
331
1B9
  5
1BA
331
1BA
  5
1BB
331
1BB
  5
1BC
331
1BC
  5
1BD
331
1BD
  5
1BE
331
1BE
  5
1BF
331
1BF
  5
1C0
331
1C0
  5
1C1
331
1C1
  5
1C2
331
1C2
  5
1C3
331
1C3
  5
1C4
331
1C4
  5
1C5
331
1C5
  5
1C6
331
1C6
  5
1C7
331
1C7
  5
1C8
331
1C8
  5
1C9
331
1C9
  5
1CA
331
1CA
  5
1CB
331
1CB
  5
1CC
331
1CC
  5
1CD
331
1CD
  5
1CE
331
1CE
  5
1CF
331
1CF
  5
1D0
331
1D0
  5
1D1
331
1D1
  5
1D2
331
1D2
  5
1D3
331
1D3
  5
1D4
331
1D4
  5
1D5
331
1D5
  5
1D6
331
1D6
  5
1D7
331
1D7
  5
1D8
331
1D8
  5
1D9
331
1D9
  5
1DA
331
1DA
  5
1DB
331
1DB
  5
1DC
331
1DC
  5
1DD
331
1DD
  5
1DE
331
1DE
  5
1DF
331
1DF
  5
1E0
331
1E0
  5
1E1
331
1E1
  5
1E2
331
1E2
  5
1E3
331
1E3
  5
1E4
331
1E4
  5
1E5
331
1E5
  5
1E6
331
1E6
  5
1E7
331
1E7
  5
1E8
331
1E8
  5
1E9
331
1E9
  5
1EA
331
1EA
  5
1EB
331
1EB
  5
1EC
331
1EC
  5
1ED
331
1ED
  5
1EE
331
1EE
  5
1EF
331
1EF
  5
1F0
331
1F0
  5
1F1
331
1F1
  5
1F2
331
1F2
  5
1F3
331
1F3
  5
1F4
331
1F4
  5
1F5
331
1F5
  5
1F6
331
1F6
  5
1F7
331
1F7
  5
1F8
331
1F8
  5
1F9
331
1F9
  5
1FA
331
1FA
  5
1FB
331
1FB
  5
1FC
331
1FC
  5
1FD
331
1FD
  5
1FE
331
1FE
  5
1FF
331
1FF
  5
200
331
200
  5
201
331
201
  5
202
331
202
  5
203
331
203
  5
204
331
204
  5
205
331
205
  5
206
331
206
  5
207
331
207
  5
208
331
208
  5
209
331
209
  5
20A
331
20A
  5
20B
331
20B
  5
20C
331
20C
  5
20D
331
20D
  5
20E
331
20E
  5
20F
331
20F
  5
210
331
210
  5
211
331
211
  5
212
331
212
  5
213
331
213
  5
214
331
214
  5
215
331
215
  5
216
331
216
  5
217
331
217
  5
218
331
218
  5
219
331
219
  5
21A
331
21A
  5
21B
331
21B
  5
21C
331
21C
  5
21D
331
21D
  5
21E
331
21E
  5
21F
331
21F
  5
220
331
220
  5
221
331
221
  5
236
331
236
  5
237
331
237
  5
238
331
238
  5
23C
331
0
  5
23E
331
0
  5
24C
331
0
  5
263
331
263
  5
28C
331
266
  5
28D
331
0
  5
28E
331
28D
  5
289
331
290
  5
291
331
29A
  5
29B
331
2CB
  5
178
  0
DIMASSOC
  5
31A
102
{ACAD_REACTORS
330
319
102
}
330
319
100
AcDbDimAssoc
330
316
 90
        1
 70
     0
 71
     1
  1
AcDbOsnapPointRef
 72
     2
331
237
 73
     0
 91
        0
 40
0.5
 10
0.0
 20
0.0
 30
0.0
 75
     0
  0
DIMASSOC
  5
31E
102
{ACAD_REACTORS
330
31D
102
}
330
31D
100
AcDbDimAssoc
330
31B
 90
        1
 70
     0
 71
     1
  1
AcDbOsnapPointRef
 72
     2
331
238
 73
     0
 91
        0
 40
0.5
 10
0.0
 20
0.0
 30
0.0
 75
     0
  0
DIMASSOC
  5
321
102
{ACAD_REACTORS
330
320
102
}
330
320
100
AcDbDimAssoc
330
31F
 90
        3
 70
     0
 71
     1
  1
AcDbOsnapPointRef
 72
     1
331
1A0
 73
     0
 91
        0
 40
0.0
 10
0.0
 20
0.0
 30
0.0
 75
     0
  1
AcDbOsnapPointRef
 72
     1
331
1CF
 73
     0
 91
        0
 40
0.0
 10
0.0
 20
0.0
 30
0.0
 75
     0
  0
DIMASSOC
  5
331
102
{ACAD_REACTORS
330
330
102
}
330
330
100
AcDbDimAssoc
330
32F
 90
        3
 70
     0
 71
     1
  1
AcDbOsnapPointRef
 72
    13
331
266
 73
     2
 91
        1
 40
0.0
 10
0.0
 20
0.0
 30
0.0
 75
     0
  1
AcDbOsnapPointRef
 72
     1
331
266
 73
     2
 91
        3
 40
1.0
 10
0.0
 20
0.0
 30
0.0
 75
     0
  0
DIMASSOC
  5
341
102
{ACAD_REACTORS
330
340
102
}
330
340
100
AcDbDimAssoc
330
33F
 90
        3
 70
     0
 71
     1
  1
AcDbOsnapPointRef
 72
     1
331
2CB
 73
     2
 91
        1
 40
1.0
 10
0.0
 20
0.0
 30
0.0
 75
     0
  1
AcDbOsnapPointRef
 72
     1
331
2CB
 73
     2
 91
        2
 40
1.0
 10
0.0
 20
0.0
 30
0.0
 75
     0
  0
LAYOUT
  5
1E
102
{ACAD_REACTORS
330
1A
102
}
330
1A
100
AcDbPlotSettings
  1

  2
none_device
  4
Letter_(8.50_x_11.00_Inches)
  6

 40
6.35
 41
6.35
 42
6.35
 43
6.35
 44
215.9
 45
279.4
 46
0.0
 47
0.0
 48
0.0
 49
0.0
140
0.0
141
0.0
142
1.0
143
1.0
 70
  1712
 72
     0
 73
     0
 74
     0
  7

 75
     0
 76
     0
 77
     2
 78
   300
147
1.0
148
0.0
149
0.0
100
AcDbLayout
  1
Model
 70
     1
 71
     0
 10
0.0
 20
0.0
 11
12.0
 21
9.0
 12
0.0
 22
0.0
 32
0.0
 14
-1328.227775982787
 24
-768.2715177570335
 34
0.0
 15
1467.338877781593
 25
7500.0
 35
0.0
146
0.0
 13
0.0
 23
0.0
 33
0.0
 16
1.0
 26
0.0
 36
0.0
 17
0.0
 27
1.0
 37
0.0
 76
     0
330
1D
331
28
  0
LAYOUT
  5
1C
102
{ACAD_REACTORS
330
1A
102
}
330
1A
100
AcDbPlotSettings
  1

  2
none_device
  4

  6

 40
0.0
 41
0.0
 42
0.0
 43
0.0
 44
0.0
 45
0.0
 46
0.0
 47
0.0
 48
0.0
 49
0.0
140
0.0
141
0.0
142
1.0
143
1.0
 70
   688
 72
     0
 73
     0
 74
     5
  7

 75
    16
 76
     0
 77
     2
 78
   300
147
1.0
148
0.0
149
0.0
100
AcDbLayout
  1
Sheet 1
 70
     1
 71
     1
 10
0.0
 20
0.0
 11
0.0
 21
0.0
 12
0.0
 22
0.0
 32
0.0
 14
1.000000000000000E+20
 24
1.000000000000000E+20
 34
1.000000000000000E+20
 15
-1.000000000000000E+20
 25
-1.000000000000000E+20
 35
-1.000000000000000E+20
146
0.0
 13
0.0
 23
0.0
 33
0.0
 16
1.0
 26
0.0
 36
0.0
 17
0.0
 27
1.0
 37
0.0
 76
     0
330
1B
  0
MATERIAL
  5
24
102
{ACAD_REACTORS
330
22
102
}
330
22
100
AcDbMaterial
  1
ByBlock
 72
     1
 94
      127
  0
MATERIAL
  5
23
102
{ACAD_REACTORS
330
22
102
}
330
22
100
AcDbMaterial
  1
ByLayer
 72
     1
 94
      127
  0
MATERIAL
  5
25
102
{ACAD_REACTORS
330
22
102
}
330
22
100
AcDbMaterial
  1
Global
 72
     1
 94
      127
  0
MLEADERSTYLE
  5
155
102
{ACAD_REACTORS
330
154
102
}
330
154
100
AcDbMLeaderStyle
179
     2
170
     2
171
     1
172
     0
 90
        2
 40
0.0
 41
0.0
173
     1
 91
-1056964608
340
14
 92
       -2
290
     1
 42
0.09
291
     1
 43
0.36
  3
Standard
341
0
 44
0.18
300

342
11
174
     1
178
     1
175
     1
176
     0
 93
-1056964608
 45
0.18
292
     0
297
     0
 46
0.18
343
0
 94
-1056964608
 47
1.0
 49
1.0
140
1.0
293
     1
141
0.0
294
     1
177
     0
142
1.0
295
     0
296
     0
143
0.125
271
     0
272
     9
273
     9
298
     0
  0
MLINESTYLE
  5
18
102
{ACAD_REACTORS
330
17
102
}
330
17
100
AcDbMlineStyle
  2
Standard
 70
     0
  3

 62
   256
 51
90.0
 52
90.0
 71
     2
 49
0.5
 62
   256
  6
BYLAYER
 49
-0.5
 62
   256
  6
BYLAYER
  0
ACDBPLACEHOLDER
  5
F
102
{ACAD_REACTORS
330
E
102
}
330
E
  0
SCALE
  5
114
102
{ACAD_REACTORS
330
113
102
}
330
113
100
AcDbScale
 70
     0
300
1:1
140
1.0
141
1.0
290
     1
  0
SCALE
  5
115
102
{ACAD_REACTORS
330
113
102
}
330
113
100
AcDbScale
 70
     0
300
1:2
140
1.0
141
2.0
290
     0
  0
SCALE
  5
116
102
{ACAD_REACTORS
330
113
102
}
330
113
100
AcDbScale
 70
     0
300
1:4
140
1.0
141
4.0
290
     0
  0
SCALE
  5
117
102
{ACAD_REACTORS
330
113
102
}
330
113
100
AcDbScale
 70
     0
300
1:5
140
1.0
141
5.0
290
     0
  0
SCALE
  5
118
102
{ACAD_REACTORS
330
113
102
}
330
113
100
AcDbScale
 70
     0
300
1:8
140
1.0
141
8.0
290
     0
  0
SCALE
  5
119
102
{ACAD_REACTORS
330
113
102
}
330
113
100
AcDbScale
 70
     0
300
1:10
140
1.0
141
10.0
290
     0
  0
SCALE
  5
11A
102
{ACAD_REACTORS
330
113
102
}
330
113
100
AcDbScale
 70
     0
300
1:16
140
1.0
141
16.0
290
     0
  0
SCALE
  5
11B
102
{ACAD_REACTORS
330
113
102
}
330
113
100
AcDbScale
 70
     0
300
1:20
140
1.0
141
20.0
290
     0
  0
SCALE
  5
11C
102
{ACAD_REACTORS
330
113
102
}
330
113
100
AcDbScale
 70
     0
300
1:30
140
1.0
141
30.0
290
     0
  0
SCALE
  5
11D
102
{ACAD_REACTORS
330
113
102
}
330
113
100
AcDbScale
 70
     0
300
1:40
140
1.0
141
40.0
290
     0
  0
SCALE
  5
11E
102
{ACAD_REACTORS
330
113
102
}
330
113
100
AcDbScale
 70
     0
300
1:50
140
1.0
141
50.0
290
     0
  0
SCALE
  5
11F
102
{ACAD_REACTORS
330
113
102
}
330
113
100
AcDbScale
 70
     0
300
1:100
140
1.0
141
100.0
290
     0
  0
SCALE
  5
120
102
{ACAD_REACTORS
330
113
102
}
330
113
100
AcDbScale
 70
     0
300
2:1
140
2.0
141
1.0
290
     0
  0
SCALE
  5
121
102
{ACAD_REACTORS
330
113
102
}
330
113
100
AcDbScale
 70
     0
300
4:1
140
4.0
141
1.0
290
     0
  0
SCALE
  5
122
102
{ACAD_REACTORS
330
113
102
}
330
113
100
AcDbScale
 70
     0
300
8:1
140
8.0
141
1.0
290
     0
  0
SCALE
  5
123
102
{ACAD_REACTORS
330
113
102
}
330
113
100
AcDbScale
 70
     0
300
10:1
140
10.0
141
1.0
290
     0
  0
SCALE
  5
124
102
{ACAD_REACTORS
330
113
102
}
330
113
100
AcDbScale
 70
     0
300
100:1
140
100.0
141
1.0
290
     0
  0
SCALE
  5
125
102
{ACAD_REACTORS
330
113
102
}
330
113
100
AcDbScale
 70
     0
300
1/128" = 1'-0"
140
0.0078125
141
12.0
290
     0
  0
SCALE
  5
126
102
{ACAD_REACTORS
330
113
102
}
330
113
100
AcDbScale
 70
     0
300
1/64" = 1'-0"
140
0.015625
141
12.0
290
     0
  0
SCALE
  5
127
102
{ACAD_REACTORS
330
113
102
}
330
113
100
AcDbScale
 70
     0
300
1/32" = 1'-0"
140
0.03125
141
12.0
290
     0
  0
SCALE
  5
128
102
{ACAD_REACTORS
330
113
102
}
330
113
100
AcDbScale
 70
     0
300
1/16" = 1'-0"
140
0.0625
141
12.0
290
     0
  0
SCALE
  5
129
102
{ACAD_REACTORS
330
113
102
}
330
113
100
AcDbScale
 70
     0
300
3/32" = 1'-0"
140
0.09375
141
12.0
290
     0
  0
SCALE
  5
12A
102
{ACAD_REACTORS
330
113
102
}
330
113
100
AcDbScale
 70
     0
300
1/8" = 1'-0"
140
0.125
141
12.0
290
     0
  0
SCALE
  5
12B
102
{ACAD_REACTORS
330
113
102
}
330
113
100
AcDbScale
 70
     0
300
3/16" = 1'-0"
140
0.1875
141
12.0
290
     0
  0
SCALE
  5
12C
102
{ACAD_REACTORS
330
113
102
}
330
113
100
AcDbScale
 70
     0
300
1/4" = 1'-0"
140
0.25
141
12.0
290
     0
  0
SCALE
  5
12D
102
{ACAD_REACTORS
330
113
102
}
330
113
100
AcDbScale
 70
     0
300
3/8" = 1'-0"
140
0.375
141
12.0
290
     0
  0
SCALE
  5
12E
102
{ACAD_REACTORS
330
113
102
}
330
113
100
AcDbScale
 70
     0
300
1/2" = 1'-0"
140
0.5
141
12.0
290
     0
  0
SCALE
  5
12F
102
{ACAD_REACTORS
330
113
102
}
330
113
100
AcDbScale
 70
     0
300
3/4" = 1'-0"
140
0.75
141
12.0
290
     0
  0
SCALE
  5
130
102
{ACAD_REACTORS
330
113
102
}
330
113
100
AcDbScale
 70
     0
300
1" = 1'-0"
140
1.0
141
12.0
290
     0
  0
SCALE
  5
131
102
{ACAD_REACTORS
330
113
102
}
330
113
100
AcDbScale
 70
     0
300
1-1/2" = 1'-0"
140
1.5
141
12.0
290
     0
  0
SCALE
  5
132
102
{ACAD_REACTORS
330
113
102
}
330
113
100
AcDbScale
 70
     0
300
3" = 1'-0"
140
3.0
141
12.0
290
     0
  0
SCALE
  5
133
102
{ACAD_REACTORS
330
113
102
}
330
113
100
AcDbScale
 70
     0
300
6" = 1'-0"
140
6.0
141
12.0
290
     0
  0
SCALE
  5
134
102
{ACAD_REACTORS
330
113
102
}
330
113
100
AcDbScale
 70
     0
300
1'-0" = 1'-0"
140
12.0
141
12.0
290
     0
  0
TABLESTYLE
  5
153
102
{ACAD_REACTORS
330
152
102
}
102
{ACAD_XDICTIONARY
360
40E
102
}
330
152
100
AcDbTableStyle
  3
Standard
 70
     0
 71
     0
 40
0.06
 41
0.06
280
     0
281
     0
  7
STANDARD
140
0.18
170
     2
 62
     0
 63
   257
283
     0
 90
        4
 91
        0
  1

274
    -2
284
     1
 64
     0
275
    -2
285
     1
 65
     0
276
    -2
286
     1
 66
     0
277
    -2
287
     1
 67
     0
278
    -2
288
     1
 68
     0
279
    -2
289
     1
 69
     0
  7
STANDARD
140
0.25
170
     5
 62
     0
 63
   257
283
     0
 90
        4
 91
        0
  1

274
    -2
284
     1
 64
     0
275
    -2
285
     1
 65
     0
276
    -2
286
     1
 66
     0
277
    -2
287
     1
 67
     0
278
    -2
288
     1
 68
     0
279
    -2
289
     1
 69
     0
  7
STANDARD
140
0.18
170
     5
 62
     0
 63
   257
283
     0
 90
        4
 91
        0
  1

274
    -2
284
     1
 64
     0
275
    -2
285
     1
 65
     0
276
    -2
286
     1
 66
     0
277
    -2
287
     1
 67
     0
278
    -2
288
     1
 68
     0
279
    -2
289
     1
 69
     0
  0
VISUALSTYLE
  5
13E
102
{ACAD_REACTORS
330
139
102
}
330
139
100
AcDbVisualStyle
  2
2dWireframe
 70
     4
177
     3
291
     0
 70
    58
 90
        0
176
     1
 90
        2
176
     1
 90
        0
176
     1
 90
        0
176
     1
 40
0.6
176
     1
 40
30.0
176
     1
 62
     7
420
 16777215
176
     1
 90
        1
176
     1
 90
        4
176
     1
 62
     7
176
     1
 62
   257
176
     1
 90
        1
176
     1
 90
        1
176
     1
 40
1.0
176
     1
 90
        0
176
     1
 62
   257
176
     1
 40
1.0
176
     1
 90
        1
176
     1
 90
        6
176
     1
 90
        2
176
     1
 62
     7
176
     1
 90
        5
176
     1
 90
        0
176
     1
 90
        0
176
     1
290
     0
176
     1
 90
        1
176
     1
 40
0.0
176
     1
 90
        0
176
     1
290
     1
176
     1
290
     1
176
     1
290
     0
176
     1
290
     0
176
     1
290
     0
176
     1
290
     0
176
     1
290
     0
176
     1
290
     0
176
     1
290
     0
176
     1
 90
       50
176
     1
 40
0.0
176
     1
 40
1.0
176
     1
 90
        0
176
     1
 62
   178
420
        0
176
     1
 90
       50
176
     1
 90
        3
176
     1
 62
     5
420
      255
176
     1
290
     0
176
     1
 90
       50
176
     1
 90
       50
176
     1
 90
       50
176
     1
290
     0
176
     1
 90
       50
176
     1
 62
   256
176
     0
 40
1.0
176
     0
 90
        2
176
     1
  1
strokes_ogs.tif
176
     1
290
     0
176
     1
 40
1.0
176
     1
 40
1.0
176
     1
  0
VISUALSTYLE
  5
141
102
{ACAD_REACTORS
330
139
102
}
330
139
100
AcDbVisualStyle
  2
Basic
 70
     7
177
     3
291
     1
 70
    58
 90
        1
176
     1
 90
        0
176
     1
 90
        1
176
     1
 90
        0
176
     1
 40
0.6
176
     1
 40
30.0
176
     1
 62
     7
420
 16777215
176
     1
 90
        0
176
     1
 90
        4
176
     1
 62
     7
176
     1
 62
   257
176
     1
 90
        1
176
     1
 90
        1
176
     1
 40
1.0
176
     1
 90
        8
176
     1
 62
     7
176
     1
 40
1.0
176
     1
 90
        1
176
     1
 90
        6
176
     1
 90
        2
176
     1
 62
     7
176
     1
 90
        5
176
     1
 90
        0
176
     1
 90
        0
176
     1
290
     0
176
     1
 90
        1
176
     1
 40
0.0
176
     1
 90
        0
176
     1
290
     0
176
     1
290
     1
176
     1
290
     1
176
     1
290
     0
176
     1
290
     0
176
     1
290
     0
176
     1
290
     0
176
     1
290
     0
176
     1
290
     0
176
     1
 90
       50
176
     1
 40
0.0
176
     1
 40
1.0
176
     1
 90
        0
176
     1
 62
   178
420
        0
176
     1
 90
       50
176
     1
 90
        3
176
     1
 62
     5
420
      255
176
     1
290
     0
176
     1
 90
       50
176
     1
 90
       50
176
     1
 90
       50
176
     1
290
     0
176
     1
 90
       50
176
     1
 62
   256
176
     0
 40
1.0
176
     0
 90
        2
176
     1
  1
strokes_ogs.tif
176
     1
290
     0
176
     1
 40
1.0
176
     1
 40
1.0
176
     1
  0
VISUALSTYLE
  5
145
102
{ACAD_REACTORS
330
139
102
}
330
139
100
AcDbVisualStyle
  2
Brighten
 70
    12
177
     3
291
     1
 70
    58
 90
        2
176
     1
 90
        2
176
     1
 90
        0
176
     1
 90
        0
176
     1
 40
0.6
176
     1
 40
30.0
176
     1
 62
     7
420
 16777215
176
     1
 90
        1
176
     1
 90
        4
176
     1
 62
     7
176
     1
 62
   257
176
     1
 90
        1
176
     1
 90
        1
176
     1
 40
1.0
176
     1
 90
        8
176
     1
 62
     7
176
     1
 40
1.0
176
     1
 90
        1
176
     1
 90
        6
176
     1
 90
        2
176
     1
 62
     7
176
     1
 90
        5
176
     1
 90
        0
176
     1
 90
        0
176
     1
290
     0
176
     1
 90
        1
176
     1
 40
50.0
176
     1
 90
        0
176
     1
290
     0
176
     1
290
     1
176
     1
290
     1
176
     1
290
     0
176
     1
290
     0
176
     1
290
     0
176
     1
290
     0
176
     1
290
     0
176
     1
290
     0
176
     1
 90
       50
176
     1
 40
0.0
176
     1
 40
1.0
176
     1
 90
        0
176
     1
 62
   178
420
        0
176
     1
 90
       50
176
     1
 90
        3
176
     1
 62
     5
420
      255
176
     1
290
     0
176
     1
 90
       50
176
     1
 90
       50
176
     1
 90
       50
176
     1
290
     0
176
     1
 90
       50
176
     1
 62
   256
176
     0
 40
1.0
176
     0
 90
        2
176
     1
  1
strokes_ogs.tif
176
     1
290
     0
176
     1
 40
1.0
176
     1
 40
1.0
176
     1
  0
VISUALSTYLE
  5
149
102
{ACAD_REACTORS
330
139
102
}
330
139
100
AcDbVisualStyle
  2
ColorChange
 70
    16
177
     3
291
     1
 70
    58
 90
        2
176
     1
 90
        2
176
     1
 90
        3
176
     1
 90
        0
176
     1
 40
0.6
176
     1
 40
30.0
176
     1
 62
     8
420
  8421504
176
     1
 90
        1
176
     1
 90
        4
176
     1
 62
     7
176
     1
 62
   257
176
     1
 90
        1
176
     1
 90
        1
176
     1
 40
1.0
176
     1
 90
        8
176
     1
 62
     8
420
  8421504
176
     1
 40
1.0
176
     1
 90
        1
176
     1
 90
        6
176
     1
 90
        2
176
     1
 62
     7
176
     1
 90
        5
176
     1
 90
        0
176
     1
 90
        0
176
     1
290
     0
176
     1
 90
        1
176
     1
 40
0.0
176
     1
 90
        0
176
     1
290
     0
176
     1
290
     1
176
     1
290
     1
176
     1
290
     0
176
     1
290
     0
176
     1
290
     0
176
     1
290
     0
176
     1
290
     0
176
     1
290
     0
176
     1
 90
       50
176
     1
 40
0.0
176
     1
 40
1.0
176
     1
 90
        0
176
     1
 62
   178
420
        0
176
     1
 90
       50
176
     1
 90
        3
176
     1
 62
     5
420
      255
176
     1
290
     0
176
     1
 90
       50
176
     1
 90
       50
176
     1
 90
       50
176
     1
290
     0
176
     1
 90
       50
176
     1
 62
   256
176
     0
 40
1.0
176
     0
 90
        2
176
     1
  1
strokes_ogs.tif
176
     1
290
     0
176
     1
 40
1.0
176
     1
 40
1.0
176
     1
  0
VISUALSTYLE
  5
143
102
{ACAD_REACTORS
330
139
102
}
330
139
100
AcDbVisualStyle
  2
Conceptual
 70
     9
177
     3
291
     0
 70
    58
 90
        3
176
     1
 90
        2
176
     1
 90
        0
176
     1
 90
        0
176
     1
 40
0.6
176
     1
 40
30.0
176
     1
 62
     7
420
 16777215
176
     1
 90
        2
176
     1
 90
        2
176
     1
 62
     7
176
     1
 62
   257
176
     1
 90
        1
176
     1
 90
        1
176
     1
 40
179.0
176
     1
 90
        8
176
     1
 62
     7
176
     1
 40
1.0
176
     1
 90
        1
176
     1
 90
        6
176
     1
 90
        2
176
     1
 62
     7
176
     1
 90
        3
176
     1
 90
        0
176
     1
 90
        0
176
     1
290
     0
176
     1
 90
        1
176
     1
 40
0.0
176
     1
 90
        0
176
     1
290
     0
176
     1
290
     1
176
     1
290
     1
176
     1
290
     0
176
     1
290
     0
176
     1
290
     0
176
     1
290
     0
176
     1
290
     0
176
     1
290
     0
176
     1
 90
       50
176
     1
 40
0.0
176
     1
 40
1.0
176
     1
 90
        0
176
     1
 62
   178
420
        0
176
     1
 90
       50
176
     1
 90
        3
176
     1
 62
     5
420
      255
176
     1
290
     0
176
     1
 90
       50
176
     1
 90
       50
176
     1
 90
       50
176
     1
290
     0
176
     1
 90
       50
176
     1
 62
   256
176
     0
 40
1.0
176
     0
 90
        2
176
     1
  1
strokes_ogs.tif
176
     1
290
     0
176
     1
 40
1.0
176
     1
 40
1.0
176
     1
  0
VISUALSTYLE
  5
144
102
{ACAD_REACTORS
330
139
102
}
330
139
100
AcDbVisualStyle
  2
Dim
 70
    11
177
     3
291
     1
 70
    58
 90
        2
176
     1
 90
        2
176
     1
 90
        0
176
     1
 90
        0
176
     1
 40
0.6
176
     1
 40
30.0
176
     1
 62
     7
420
 16777215
176
     1
 90
        1
176
     1
 90
        4
176
     1
 62
     7
176
     1
 62
   257
176
     1
 90
        1
176
     1
 90
        1
176
     1
 40
1.0
176
     1
 90
        8
176
     1
 62
     7
176
     1
 40
1.0
176
     1
 90
        1
176
     1
 90
        6
176
     1
 90
        2
176
     1
 62
     7
176
     1
 90
        5
176
     1
 90
        0
176
     1
 90
        0
176
     1
290
     0
176
     1
 90
        1
176
     1
 40
-50.0
176
     1
 90
        0
176
     1
290
     0
176
     1
290
     1
176
     1
290
     1
176
     1
290
     0
176
     1
290
     0
176
     1
290
     0
176
     1
290
     0
176
     1
290
     0
176
     1
290
     0
176
     1
 90
       50
176
     1
 40
0.0
176
     1
 40
1.0
176
     1
 90
        0
176
     1
 62
   178
420
        0
176
     1
 90
       50
176
     1
 90
        3
176
     1
 62
     5
420
      255
176
     1
290
     0
176
     1
 90
       50
176
     1
 90
       50
176
     1
 90
       50
176
     1
290
     0
176
     1
 90
       50
176
     1
 62
   256
176
     0
 40
1.0
176
     0
 90
        2
176
     1
  1
strokes_ogs.tif
176
     1
290
     0
176
     1
 40
1.0
176
     1
 40
1.0
176
     1
  0
VISUALSTYLE
  5
14C
102
{ACAD_REACTORS
330
139
102
}
330
139
100
AcDbVisualStyle
  2
EdgeColorOff
 70
    22
177
     3
291
     1
 70
    58
 90
        2
176
     0
 90
        2
176
     0
 90
        0
176
     0
 90
        0
176
     0
 40
0.6
176
     0
 40
30.0
176
     0
 62
     7
420
 16777215
176
     0
 90
        1
176
     0
 90
        4
176
     0
 62
     7
176
     0
 62
   257
176
     0
 90
        1
176
     0
 90
        1
176
     0
 40
1.0
176
     0
 90
        8
176
     2
 62
     7
176
     0
 40
1.0
176
     0
 90
        1
176
     0
 90
        6
176
     0
 90
        2
176
     0
 62
     7
176
     0
 90
        5
176
     0
 90
        0
176
     0
 90
        0
176
     0
290
     0
176
     0
 90
        1
176
     0
 40
0.0
176
     0
 90
        0
176
     0
290
     0
176
     0
290
     1
176
     0
290
     1
176
     0
290
     0
176
     0
290
     0
176
     0
290
     0
176
     0
290
     0
176
     0
290
     0
176
     0
290
     0
176
     0
 90
       50
176
     0
 40
0.0
176
     0
 40
1.0
176
     0
 90
        0
176
     0
 62
   178
420
        0
176
     0
 90
       50
176
     0
 90
        3
176
     0
 62
     5
420
      255
176
     0
290
     0
176
     0
 90
       50
176
     0
 90
       50
176
     0
 90
       50
176
     0
290
     0
176
     0
 90
       50
176
     0
 62
   256
176
     0
 40
1.0
176
     0
 90
        2
176
     0
  1
strokes_ogs.tif
176
     0
290
     0
176
     0
 40
1.0
176
     0
 40
1.0
176
     0
  0
VISUALSTYLE
  5
148
102
{ACAD_REACTORS
330
139
102
}
330
139
100
AcDbVisualStyle
  2
Facepattern
 70
    15
177
     3
291
     1
 70
    58
 90
        2
176
     1
 90
        2
176
     1
 90
        0
176
     1
 90
        0
176
     1
 40
0.6
176
     1
 40
30.0
176
     1
 62
     7
420
 16777215
176
     1
 90
        1
176
     1
 90
        4
176
     1
 62
     7
176
     1
 62
   257
176
     1
 90
        1
176
     1
 90
        1
176
     1
 40
1.0
176
     1
 90
        8
176
     1
 62
     7
176
     1
 40
1.0
176
     1
 90
        1
176
     1
 90
        6
176
     1
 90
        2
176
     1
 62
     7
176
     1
 90
        5
176
     1
 90
        0
176
     1
 90
        0
176
     1
290
     0
176
     1
 90
        1
176
     1
 40
0.0
176
     1
 90
        0
176
     1
290
     0
176
     1
290
     1
176
     1
290
     1
176
     1
290
     0
176
     1
290
     0
176
     1
290
     0
176
     1
290
     0
176
     1
290
     0
176
     1
290
     0
176
     1
 90
       50
176
     1
 40
0.0
176
     1
 40
1.0
176
     1
 90
        0
176
     1
 62
   178
420
        0
176
     1
 90
       50
176
     1
 90
        3
176
     1
 62
     5
420
      255
176
     1
290
     0
176
     1
 90
       50
176
     1
 90
       50
176
     1
 90
       50
176
     1
290
     0
176
     1
 90
       50
176
     1
 62
   256
176
     0
 40
1.0
176
     0
 90
        2
176
     1
  1
strokes_ogs.tif
176
     1
290
     0
176
     1
 40
1.0
176
     1
 40
1.0
176
     1
  0
VISUALSTYLE
  5
13A
102
{ACAD_REACTORS
330
139
102
}
330
139
100
AcDbVisualStyle
  2
Flat
 70
     0
177
     3
291
     1
 70
    58
 90
        2
176
     1
 90
        1
176
     1
 90
        1
176
     1
 90
        2
176
     1
 40
0.6
176
     1
 40
30.0
176
     1
 62
     7
420
 16777215
176
     1
 90
        0
176
     1
 90
        0
176
     1
 62
     7
176
     1
 62
   257
176
     1
 90
        1
176
     1
 90
        1
176
     1
 40
1.0
176
     1
 90
        8
176
     1
 62
     7
176
     1
 40
1.0
176
     1
 90
        1
176
     1
 90
        6
176
     1
 90
        2
176
     1
 62
     7
176
     1
 90
        5
176
     1
 90
        0
176
     1
 90
        0
176
     1
290
     0
176
     1
 90
       13
176
     1
 40
0.0
176
     1
 90
        0
176
     1
290
     0
176
     1
290
     1
176
     1
290
     1
176
     1
290
     0
176
     1
290
     0
176
     1
290
     0
176
     1
290
     0
176
     1
290
     0
176
     1
290
     0
176
     1
 90
       50
176
     1
 40
0.0
176
     1
 40
1.0
176
     1
 90
        0
176
     1
 62
   178
420
        0
176
     1
 90
       50
176
     1
 90
        3
176
     1
 62
     5
420
      255
176
     1
290
     0
176
     1
 90
       50
176
     1
 90
       50
176
     1
 90
       50
176
     1
290
     0
176
     1
 90
       50
176
     1
 62
   256
176
     0
 40
1.0
176
     0
 90
        2
176
     1
  1
strokes_ogs.tif
176
     1
290
     0
176
     1
 40
1.0
176
     1
 40
1.0
176
     1
  0
VISUALSTYLE
  5
13B
102
{ACAD_REACTORS
330
139
102
}
330
139
100
AcDbVisualStyle
  2
FlatWithEdges
 70
     1
177
     3
291
     1
 70
    58
 90
        2
176
     1
 90
        1
176
     1
 90
        1
176
     1
 90
        2
176
     1
 40
0.6
176
     1
 40
30.0
176
     1
 62
     7
420
 16777215
176
     1
 90
        1
176
     1
 90
        0
176
     1
 62
     7
176
     1
 62
   257
176
     1
 90
        1
176
     1
 90
        1
176
     1
 40
1.0
176
     1
 90
        0
176
     1
 62
   257
176
     1
 40
1.0
176
     1
 90
        1
176
     1
 90
        6
176
     1
 90
        2
176
     1
 62
     7
176
     1
 90
        5
176
     1
 90
        0
176
     1
 90
        0
176
     1
290
     0
176
     1
 90
       13
176
     1
 40
0.0
176
     1
 90
        0
176
     1
290
     0
176
     1
290
     1
176
     1
290
     1
176
     1
290
     0
176
     1
290
     0
176
     1
290
     0
176
     1
290
     0
176
     1
290
     0
176
     1
290
     0
176
     1
 90
       50
176
     1
 40
0.0
176
     1
 40
1.0
176
     1
 90
        0
176
     1
 62
   178
420
        0
176
     1
 90
       50
176
     1
 90
        3
176
     1
 62
     5
420
      255
176
     1
290
     0
176
     1
 90
       50
176
     1
 90
       50
176
     1
 90
       50
176
     1
290
     0
176
     1
 90
       50
176
     1
 62
   256
176
     0
 40
1.0
176
     0
 90
        2
176
     1
  1
strokes_ogs.tif
176
     1
290
     0
176
     1
 40
1.0
176
     1
 40
1.0
176
     1
  0
VISUALSTYLE
  5
13C
102
{ACAD_REACTORS
330
139
102
}
330
139
100
AcDbVisualStyle
  2
Gouraud
 70
     2
177
     3
291
     1
 70
    58
 90
        2
176
     1
 90
        2
176
     1
 90
        1
176
     1
 90
        2
176
     1
 40
0.6
176
     1
 40
30.0
176
     1
 62
     7
420
 16777215
176
     1
 90
        0
176
     1
 90
        0
176
     1
 62
     7
176
     1
 62
   257
176
     1
 90
        1
176
     1
 90
        1
176
     1
 40
1.0
176
     1
 90
        0
176
     1
 62
     7
176
     1
 40
1.0
176
     1
 90
        1
176
     1
 90
        6
176
     1
 90
        2
176
     1
 62
     7
176
     1
 90
        5
176
     1
 90
        0
176
     1
 90
        0
176
     1
290
     0
176
     1
 90
       13
176
     1
 40
0.0
176
     1
 90
        0
176
     1
290
     0
176
     1
290
     1
176
     1
290
     1
176
     1
290
     0
176
     1
290
     0
176
     1
290
     0
176
     1
290
     0
176
     1
290
     0
176
     1
290
     0
176
     1
 90
       50
176
     1
 40
0.0
176
     1
 40
1.0
176
     1
 90
        0
176
     1
 62
   178
420
        0
176
     1
 90
       50
176
     1
 90
        3
176
     1
 62
     5
420
      255
176
     1
290
     0
176
     1
 90
       50
176
     1
 90
       50
176
     1
 90
       50
176
     1
290
     0
176
     1
 90
       50
176
     1
 62
   256
176
     0
 40
1.0
176
     0
 90
        2
176
     1
  1
strokes_ogs.tif
176
     1
290
     0
176
     1
 40
1.0
176
     1
 40
1.0
176
     1
  0
VISUALSTYLE
  5
13D
102
{ACAD_REACTORS
330
139
102
}
330
139
100
AcDbVisualStyle
  2
GouraudWithEdges
 70
     3
177
     3
291
     1
 70
    58
 90
        2
176
     1
 90
        2
176
     1
 90
        1
176
     1
 90
        2
176
     1
 40
0.6
176
     1
 40
30.0
176
     1
 62
     7
420
 16777215
176
     1
 90
        1
176
     1
 90
        0
176
     1
 62
     7
176
     1
 62
   257
176
     1
 90
        1
176
     1
 90
        1
176
     1
 40
1.0
176
     1
 90
        0
176
     1
 62
   257
176
     1
 40
1.0
176
     1
 90
        1
176
     1
 90
        6
176
     1
 90
        2
176
     1
 62
     7
176
     1
 90
        5
176
     1
 90
        0
176
     1
 90
        0
176
     1
290
     0
176
     1
 90
       13
176
     1
 40
0.0
176
     1
 90
        0
176
     1
290
     0
176
     1
290
     1
176
     1
290
     1
176
     1
290
     0
176
     1
290
     0
176
     1
290
     0
176
     1
290
     0
176
     1
290
     0
176
     1
290
     0
176
     1
 90
       50
176
     1
 40
0.0
176
     1
 40
1.0
176
     1
 90
        0
176
     1
 62
   178
420
        0
176
     1
 90
       50
176
     1
 90
        3
176
     1
 62
     5
420
      255
176
     1
290
     0
176
     1
 90
       50
176
     1
 90
       50
176
     1
 90
       50
176
     1
290
     0
176
     1
 90
       50
176
     1
 62
   256
176
     0
 40
1.0
176
     0
 90
        2
176
     1
  1
strokes_ogs.tif
176
     1
290
     0
176
     1
 40
1.0
176
     1
 40
1.0
176
     1
  0
VISUALSTYLE
  5
140
102
{ACAD_REACTORS
330
139
102
}
330
139
100
AcDbVisualStyle
  2
Hidden
 70
     6
177
     3
291
     0
 70
    58
 90
        1
176
     1
 90
        2
176
     1
 90
        2
176
     1
 90
        0
176
     1
 40
0.6
176
     1
 40
30.0
176
     1
 62
     7
420
 16777215
176
     1
 90
        2
176
     1
 90
        2
176
     1
 62
     7
176
     1
 62
   257
176
     1
 90
        2
176
     1
 90
        1
176
     1
 40
40.0
176
     1
 90
        0
176
     1
 62
   257
176
     1
 40
1.0
176
     1
 90
        1
176
     1
 90
        6
176
     1
 90
        2
176
     1
 62
     7
176
     1
 90
        3
176
     1
 90
        0
176
     1
 90
        0
176
     1
290
     0
176
     1
 90
        1
176
     1
 40
0.0
176
     1
 90
        0
176
     1
290
     0
176
     1
290
     1
176
     1
290
     1
176
     1
290
     0
176
     1
290
     0
176
     1
290
     0
176
     1
290
     0
176
     1
290
     0
176
     1
290
     0
176
     1
 90
       50
176
     1
 40
0.0
176
     1
 40
1.0
176
     1
 90
        0
176
     1
 62
   178
420
        0
176
     1
 90
       50
176
     1
 90
        3
176
     1
 62
     5
420
      255
176
     1
290
     0
176
     1
 90
       50
176
     1
 90
       50
176
     1
 90
       50
176
     1
290
     0
176
     1
 90
       50
176
     1
 62
   256
176
     0
 40
1.0
176
     0
 90
        2
176
     1
  1
strokes_ogs.tif
176
     1
290
     0
176
     1
 40
1.0
176
     1
 40
1.0
176
     1
  0
VISUALSTYLE
  5
14A
102
{ACAD_REACTORS
330
139
102
}
330
139
100
AcDbVisualStyle
  2
JitterOff
 70
    20
177
     3
291
     1
 70
    58
 90
        2
176
     0
 90
        2
176
     0
 90
        0
176
     0
 90
        0
176
     0
 40
0.6
176
     0
 40
30.0
176
     0
 62
     7
420
 16777215
176
     0
 90
        1
176
     0
 90
        4
176
     0
 62
     7
176
     0
 62
   257
176
     0
 90
        1
176
     0
 90
        1
176
     0
 40
1.0
176
     0
 90
       10
176
     2
 62
     7
176
     0
 40
1.0
176
     0
 90
        1
176
     0
 90
        6
176
     0
 90
        2
176
     0
 62
     7
176
     0
 90
        5
176
     0
 90
        0
176
     0
 90
        0
176
     0
290
     0
176
     0
 90
        1
176
     0
 40
0.0
176
     0
 90
        0
176
     0
290
     0
176
     0
290
     1
176
     0
290
     1
176
     0
290
     0
176
     0
290
     0
176
     0
290
     0
176
     0
290
     0
176
     0
290
     0
176
     0
290
     0
176
     0
 90
       50
176
     0
 40
0.0
176
     0
 40
1.0
176
     0
 90
        0
176
     0
 62
   178
420
        0
176
     0
 90
       50
176
     0
 90
        3
176
     0
 62
     5
420
      255
176
     0
290
     0
176
     0
 90
       50
176
     0
 90
       50
176
     0
 90
       50
176
     0
290
     0
176
     0
 90
       50
176
     0
 62
   256
176
     0
 40
1.0
176
     0
 90
        2
176
     0
  1
strokes_ogs.tif
176
     0
290
     0
176
     0
 40
1.0
176
     0
 40
1.0
176
     0
  0
VISUALSTYLE
  5
147
102
{ACAD_REACTORS
330
139
102
}
330
139
100
AcDbVisualStyle
  2
Linepattern
 70
    14
177
     3
291
     1
 70
    58
 90
        2
176
     1
 90
        2
176
     1
 90
        0
176
     1
 90
        0
176
     1
 40
0.6
176
     1
 40
30.0
176
     1
 62
     7
420
 16777215
176
     1
 90
        1
176
     1
 90
        4
176
     1
 62
     7
176
     1
 62
   257
176
     1
 90
        7
176
     1
 90
        7
176
     1
 40
1.0
176
     1
 90
        8
176
     1
 62
     7
176
     1
 40
1.0
176
     1
 90
        1
176
     1
 90
        6
176
     1
 90
        2
176
     1
 62
     7
176
     1
 90
        5
176
     1
 90
        0
176
     1
 90
        0
176
     1
290
     0
176
     1
 90
        1
176
     1
 40
0.0
176
     1
 90
        0
176
     1
290
     0
176
     1
290
     1
176
     1
290
     1
176
     1
290
     0
176
     1
290
     0
176
     1
290
     0
176
     1
290
     0
176
     1
290
     0
176
     1
290
     0
176
     1
 90
       50
176
     1
 40
0.0
176
     1
 40
1.0
176
     1
 90
        0
176
     1
 62
   178
420
        0
176
     1
 90
       50
176
     1
 90
        3
176
     1
 62
     5
420
      255
176
     1
290
     0
176
     1
 90
       50
176
     1
 90
       50
176
     1
 90
       50
176
     1
290
     0
176
     1
 90
       50
176
     1
 62
   256
176
     0
 40
1.0
176
     0
 90
        2
176
     1
  1
strokes_ogs.tif
176
     1
290
     0
176
     1
 40
1.0
176
     1
 40
1.0
176
     1
  0
VISUALSTYLE
  5
14B
102
{ACAD_REACTORS
330
139
102
}
330
139
100
AcDbVisualStyle
  2
OverhangOff
 70
    21
177
     3
291
     1
 70
    58
 90
        2
176
     0
 90
        2
176
     0
 90
        0
176
     0
 90
        0
176
     0
 40
0.6
176
     0
 40
30.0
176
     0
 62
     7
420
 16777215
176
     0
 90
        1
176
     0
 90
        4
176
     0
 62
     7
176
     0
 62
   257
176
     0
 90
        1
176
     0
 90
        1
176
     0
 40
1.0
176
     0
 90
        9
176
     2
 62
     7
176
     0
 40
1.0
176
     0
 90
        1
176
     0
 90
        6
176
     0
 90
        2
176
     0
 62
     7
176
     0
 90
        5
176
     0
 90
        0
176
     0
 90
        0
176
     0
290
     0
176
     0
 90
        1
176
     0
 40
0.0
176
     0
 90
        0
176
     0
290
     0
176
     0
290
     1
176
     0
290
     1
176
     0
290
     0
176
     0
290
     0
176
     0
290
     0
176
     0
290
     0
176
     0
290
     0
176
     0
290
     0
176
     0
 90
       50
176
     0
 40
0.0
176
     0
 40
1.0
176
     0
 90
        0
176
     0
 62
   178
420
        0
176
     0
 90
       50
176
     0
 90
        3
176
     0
 62
     5
420
      255
176
     0
290
     0
176
     0
 90
       50
176
     0
 90
       50
176
     0
 90
       50
176
     0
290
     0
176
     0
 90
       50
176
     0
 62
   256
176
     0
 40
1.0
176
     0
 90
        2
176
     0
  1
strokes_ogs.tif
176
     0
290
     0
176
     0
 40
1.0
176
     0
 40
1.0
176
     0
  0
VISUALSTYLE
  5
142
102
{ACAD_REACTORS
330
139
102
}
330
139
100
AcDbVisualStyle
  2
Realistic
 70
     8
177
     3
291
     0
 70
    58
 90
        2
176
     1
 90
        3
176
     1
 90
        0
176
     1
 90
        2
176
     1
 40
0.6
176
     1
 40
30.0
176
     1
 62
     7
420
 16777215
176
     1
 90
        0
176
     1
 90
        0
176
     1
 62
     7
176
     1
 62
   257
176
     1
 90
        1
176
     1
 90
        1
176
     1
 40
1.0
176
     1
 90
        8
176
     1
 62
   257
176
     1
 40
1.0
176
     1
 90
        1
176
     1
 90
        6
176
     1
 90
        2
176
     1
 62
     7
176
     1
 90
        3
176
     1
 90
        0
176
     1
 90
        0
176
     1
290
     0
176
     1
 90
       13
176
     1
 40
0.0
176
     1
 90
        0
176
     1
290
     0
176
     1
290
     1
176
     1
290
     1
176
     1
290
     0
176
     1
290
     0
176
     1
290
     0
176
     1
290
     0
176
     1
290
     0
176
     1
290
     0
176
     1
 90
       50
176
     1
 40
0.0
176
     1
 40
1.0
176
     1
 90
        0
176
     1
 62
   178
420
        0
176
     1
 90
       50
176
     1
 90
        3
176
     1
 62
     5
420
      255
176
     1
290
     0
176
     1
 90
       50
176
     1
 90
       50
176
     1
 90
       50
176
     1
290
     0
176
     1
 90
       50
176
     1
 62
   256
176
     0
 40
1.0
176
     0
 90
        2
176
     1
  1
strokes_ogs.tif
176
     1
290
     0
176
     1
 40
1.0
176
     1
 40
1.0
176
     1
  0
VISUALSTYLE
  5
151
102
{ACAD_REACTORS
330
139
102
}
330
139
100
AcDbVisualStyle
  2
Shaded
 70
    27
177
     3
291
     0
 70
    58
 90
        2
176
     1
 90
        2
176
     1
 90
        1
176
     1
 90
        2
176
     1
 40
0.6
176
     1
 40
30.0
176
     1
 62
     7
420
 16777215
176
     1
 90
        0
176
     1
 90
        4
176
     1
 62
     7
176
     1
 62
   257
176
     1
 90
        1
176
     1
 90
        1
176
     1
 40
1.0
176
     1
 90
        8
176
     1
 62
   257
176
     1
 40
1.0
176
     1
 90
        1
176
     1
 90
        6
176
     1
 90
        2
176
     1
 62
     8
420
  7895160
176
     1
 90
        3
176
     1
 90
        0
176
     1
 90
        0
176
     1
290
     0
176
     1
 90
        5
176
     1
 40
0.0
176
     1
 90
        0
176
     1
290
     0
176
     1
290
     1
176
     1
290
     1
176
     1
290
     0
176
     1
290
     0
176
     1
290
     0
176
     1
290
     0
176
     1
290
     0
176
     1
290
     0
176
     1
 90
       50
176
     1
 40
0.0
176
     1
 40
1.0
176
     1
 90
        0
176
     1
 62
   178
420
        0
176
     1
 90
       50
176
     1
 90
        3
176
     1
 62
     5
420
      255
176
     1
290
     0
176
     1
 90
       50
176
     1
 90
       50
176
     1
 90
       50
176
     1
290
     0
176
     1
 90
       50
176
     1
 62
   256
176
     0
 40
1.0
176
     0
 90
        2
176
     1
  1
strokes_ogs.tif
176
     1
290
     0
176
     1
 40
1.0
176
     1
 40
1.0
176
     1
  0
VISUALSTYLE
  5
150
102
{ACAD_REACTORS
330
139
102
}
330
139
100
AcDbVisualStyle
  2
Shaded with edges
 70
    26
177
     3
291
     0
 70
    58
 90
        2
176
     1
 90
        2
176
     1
 90
        1
176
     1
 90
        2
176
     1
 40
0.6
176
     1
 40
30.0
176
     1
 62
     7
420
 16777215
176
     1
 90
        1
176
     1
 90
       10
176
     1
 62
     7
176
     1
 62
   257
176
     1
 90
        2
176
     1
 90
        1
176
     1
 40
1.0
176
     1
 90
        8
176
     1
 62
   257
176
     1
 40
1.0
176
     1
 90
        1
176
     1
 90
        6
176
     1
 90
        2
176
     1
 62
     7
176
     1
 90
        3
176
     1
 90
        0
176
     1
 90
        0
176
     1
290
     0
176
     1
 90
        5
176
     1
 40
0.0
176
     1
 90
        0
176
     1
290
     0
176
     1
290
     1
176
     1
290
     1
176
     1
290
     0
176
     1
290
     0
176
     1
290
     0
176
     1
290
     0
176
     1
290
     0
176
     1
290
     0
176
     1
 90
       50
176
     1
 40
0.0
176
     1
 40
1.0
176
     1
 90
        0
176
     1
 62
   178
420
        0
176
     1
 90
       50
176
     1
 90
        3
176
     1
 62
     5
420
      255
176
     1
290
     0
176
     1
 90
       50
176
     1
 90
       50
176
     1
 90
       50
176
     1
290
     0
176
     1
 90
       50
176
     1
 62
   256
176
     0
 40
1.0
176
     0
 90
        2
176
     1
  1
strokes_ogs.tif
176
     1
290
     0
176
     1
 40
1.0
176
     1
 40
1.0
176
     1
  0
VISUALSTYLE
  5
14D
102
{ACAD_REACTORS
330
139
102
}
330
139
100
AcDbVisualStyle
  2
Shades of Gray
 70
    23
177
     3
291
     0
 70
    58
 90
        2
176
     1
 90
        2
176
     1
 90
        3
176
     1
 90
        0
176
     1
 40
0.6
176
     1
 40
30.0
176
     1
 62
     7
420
 16777215
176
     1
 90
        2
176
     1
 90
        2
176
     1
 62
     7
176
     1
 62
     7
176
     1
 90
        1
176
     1
 90
        1
176
     1
 40
40.0
176
     1
 90
        8
176
     1
 62
     7
176
     1
 40
1.0
176
     1
 90
        1
176
     1
 90
        6
176
     1
 90
        2
176
     1
 62
     7
176
     1
 90
        3
176
     1
 90
        0
176
     1
 90
        0
176
     1
290
     0
176
     1
 90
        1
176
     1
 40
0.0
176
     1
 90
        0
176
     1
290
     0
176
     1
290
     1
176
     1
290
     1
176
     1
290
     0
176
     1
290
     0
176
     1
290
     0
176
     1
290
     0
176
     1
290
     0
176
     1
290
     0
176
     1
 90
       50
176
     1
 40
0.0
176
     1
 40
1.0
176
     1
 90
        0
176
     1
 62
   178
420
        0
176
     1
 90
       50
176
     1
 90
        3
176
     1
 62
     5
420
      255
176
     1
290
     0
176
     1
 90
       50
176
     1
 90
       50
176
     1
 90
       50
176
     1
290
     0
176
     1
 90
       50
176
     1
 62
   256
176
     0
 40
1.0
176
     0
 90
        2
176
     1
  1
strokes_ogs.tif
176
     1
290
     0
176
     1
 40
1.0
176
     1
 40
1.0
176
     1
  0
VISUALSTYLE
  5
14E
102
{ACAD_REACTORS
330
139
102
}
330
139
100
AcDbVisualStyle
  2
Sketchy
 70
    24
177
     3
291
     0
 70
    58
 90
        1
176
     1
 90
        2
176
     1
 90
        2
176
     1
 90
        0
176
     1
 40
0.6
176
     1
 40
30.0
176
     1
 62
     7
420
 16777215
176
     1
 90
        2
176
     1
 90
        2
176
     1
 62
     7
176
     1
 62
     7
176
     1
 90
        1
176
     1
 90
        1
176
     1
 40
40.0
176
     1
 90
       11
176
     1
 62
     7
176
     1
 40
1.0
176
     1
 90
        1
176
     1
 90
        6
176
     1
 90
        2
176
     1
 62
     7
176
     1
 90
        6
176
     1
 90
        0
176
     1
 90
        0
176
     1
290
     0
176
     1
 90
        1
176
     1
 40
0.0
176
     1
 90
        0
176
     1
290
     0
176
     1
290
     1
176
     1
290
     1
176
     1
290
     0
176
     1
290
     0
176
     1
290
     0
176
     1
290
     0
176
     1
290
     0
176
     1
290
     0
176
     1
 90
       50
176
     1
 40
0.0
176
     1
 40
1.0
176
     1
 90
        0
176
     1
 62
   178
420
        0
176
     1
 90
       50
176
     1
 90
        3
176
     1
 62
     5
420
      255
176
     1
290
     0
176
     1
 90
       50
176
     1
 90
       50
176
     1
 90
       50
176
     1
290
     0
176
     1
 90
       50
176
     1
 62
   256
176
     0
 40
1.0
176
     0
 90
        2
176
     1
  1
strokes_ogs.tif
176
     1
290
     0
176
     1
 40
1.0
176
     1
 40
1.0
176
     1
  0
VISUALSTYLE
  5
146
102
{ACAD_REACTORS
330
139
102
}
330
139
100
AcDbVisualStyle
  2
Thicken
 70
    13
177
     3
291
     1
 70
    58
 90
        2
176
     1
 90
        2
176
     1
 90
        0
176
     1
 90
        0
176
     1
 40
0.6
176
     1
 40
30.0
176
     1
 62
     7
420
 16777215
176
     1
 90
        1
176
     1
 90
        4
176
     1
 62
     7
176
     1
 62
   257
176
     1
 90
        1
176
     1
 90
        1
176
     1
 40
1.0
176
     1
 90
       12
176
     1
 62
     7
176
     1
 40
1.0
176
     1
 90
        1
176
     1
 90
        6
176
     1
 90
        2
176
     1
 62
     7
176
     1
 90
        5
176
     1
 90
        0
176
     1
 90
        0
176
     1
290
     0
176
     1
 90
        1
176
     1
 40
0.0
176
     1
 90
        0
176
     1
290
     0
176
     1
290
     1
176
     1
290
     1
176
     1
290
     0
176
     1
290
     0
176
     1
290
     0
176
     1
290
     0
176
     1
290
     0
176
     1
290
     0
176
     1
 90
       50
176
     1
 40
0.0
176
     1
 40
1.0
176
     1
 90
        0
176
     1
 62
   178
420
        0
176
     1
 90
       50
176
     1
 90
        3
176
     1
 62
     5
420
      255
176
     1
290
     0
176
     1
 90
       50
176
     1
 90
       50
176
     1
 90
       50
176
     1
290
     0
176
     1
 90
       50
176
     1
 62
   256
176
     0
 40
1.0
176
     0
 90
        2
176
     1
  1
strokes_ogs.tif
176
     1
290
     0
176
     1
 40
1.0
176
     1
 40
1.0
176
     1
  0
VISUALSTYLE
  5
13F
102
{ACAD_REACTORS
330
139
102
}
330
139
100
AcDbVisualStyle
  2
Wireframe
 70
     5
177
     3
291
     0
 70
    58
 90
        0
176
     1
 90
        2
176
     1
 90
        0
176
     1
 90
        0
176
     1
 40
0.6
176
     1
 40
30.0
176
     1
 62
     7
420
 16777215
176
     1
 90
        1
176
     1
 90
        4
176
     1
 62
     7
176
     1
 62
   257
176
     1
 90
        1
176
     1
 90
        1
176
     1
 40
1.0
176
     1
 90
        0
176
     1
 62
   257
176
     1
 40
1.0
176
     1
 90
        1
176
     1
 90
        6
176
     1
 90
        2
176
     1
 62
     7
176
     1
 90
        3
176
     1
 90
        0
176
     1
 90
        0
176
     1
290
     0
176
     1
 90
        1
176
     1
 40
0.0
176
     1
 90
        0
176
     1
290
     0
176
     1
290
     1
176
     1
290
     1
176
     1
290
     0
176
     1
290
     0
176
     1
290
     0
176
     1
290
     0
176
     1
290
     0
176
     1
290
     0
176
     1
 90
       50
176
     1
 40
0.0
176
     1
 40
1.0
176
     1
 90
        0
176
     1
 62
   178
420
        0
176
     1
 90
       50
176
     1
 90
        3
176
     1
 62
     5
420
      255
176
     1
290
     0
176
     1
 90
       50
176
     1
 90
       50
176
     1
 90
       50
176
     1
290
     0
176
     1
 90
       50
176
     1
 62
   256
176
     0
 40
1.0
176
     0
 90
        2
176
     1
  1
strokes_ogs.tif
176
     1
290
     0
176
     1
 40
1.0
176
     1
 40
1.0
176
     1
  0
VISUALSTYLE
  5
14F
102
{ACAD_REACTORS
330
139
102
}
330
139
100
AcDbVisualStyle
  2
X-Ray
 70
    25
177
     3
291
     0
 70
    58
 90
        2
176
     1
 90
        2
176
     1
 90
        1
176
     1
 90
        1
176
     1
 40
0.5
176
     1
 40
30.0
176
     1
 62
     7
420
 16777215
176
     1
 90
        1
176
     1
 90
        0
176
     1
 62
     7
176
     1
 62
   257
176
     1
 90
        1
176
     1
 90
        1
176
     1
 40
1.0
176
     1
 90
        8
176
     1
 62
     7
176
     1
 40
1.0
176
     1
 90
        1
176
     1
 90
        6
176
     1
 90
        2
176
     1
 62
     7
176
     1
 90
        3
176
     1
 90
        0
176
     1
 90
        0
176
     1
290
     0
176
     1
 90
       13
176
     1
 40
0.0
176
     1
 90
        0
176
     1
290
     0
176
     1
290
     1
176
     1
290
     1
176
     1
290
     0
176
     1
290
     0
176
     1
290
     0
176
     1
290
     0
176
     1
290
     0
176
     1
290
     0
176
     1
 90
       50
176
     1
 40
0.0
176
     1
 40
1.0
176
     1
 90
        0
176
     1
 62
   178
420
        0
176
     1
 90
       50
176
     1
 90
        3
176
     1
 62
     5
420
      255
176
     1
290
     0
176
     1
 90
       50
176
     1
 90
       50
176
     1
 90
       50
176
     1
290
     0
176
     1
 90
       50
176
     1
 62
   256
176
     0
 40
1.0
176
     0
 90
        2
176
     1
  1
strokes_ogs.tif
176
     1
290
     0
176
     1
 40
1.0
176
     1
 40
1.0
176
     1
  0
DICTIONARYVAR
  5
244
102
{ACAD_REACTORS
330
243
102
}
330
243
100
DictionaryVariables
280
     0
  1
1:1
  0
DICTIONARYVAR
  5
246
102
{ACAD_REACTORS
330
243
102
}
330
243
100
DictionaryVariables
280
     0
  1
Standard
  0
DICTIONARYVAR
  5
245
102
{ACAD_REACTORS
330
243
102
}
330
243
100
DictionaryVariables
280
     0
  1
Standard
  0
DICTIONARYVAR
  5
247
102
{ACAD_REACTORS
330
243
102
}
330
243
100
DictionaryVariables
280
     0
  1
0
  0
DICTIONARY
  5
40E
330
153
100
AcDbDictionary
280
     1
281
     1
  3
ACAD_ROUNDTRIP_2008_TABLESTYLE_CELLSTYLEMAP
360
40F
  0
CELLSTYLEMAP
  5
40F
102
{ACAD_REACTORS
330
40E
102
}
330
40E
100
AcDbCellStyleMap
 90
        3
300
CELLSTYLE
  1
TABLEFORMAT_BEGIN
 90
        5
170
     1
 91
        0
 92
    32768
 62
   257
 93
        1
300
CONTENTFORMAT
  1
CONTENTFORMAT_BEGIN
 90
        0
 91
        0
 92
        4
 93
        0
300

 40
0.0
140
1.0
 94
        5
 62
     0
340
11
144
0.25
309
CONTENTFORMAT_END
171
     1
301
MARGIN
  1
CELLMARGIN_BEGIN
 40
0.06
 40
0.06
 40
0.06
 40
0.06
 40
0.06
 40
0.06
309
CELLMARGIN_END
 94
        6
 95
        1
302
GRIDFORMAT
  1
GRIDFORMAT_BEGIN
 90
        0
 91
        1
 62
     0
 92
       -2
340
14
 93
        0
 40
0.045
309
GRIDFORMAT_END
 95
        2
302
GRIDFORMAT
  1
GRIDFORMAT_BEGIN
 90
        0
 91
        1
 62
     0
 92
       -2
340
14
 93
        0
 40
0.045
309
GRIDFORMAT_END
 95
        4
302
GRIDFORMAT
  1
GRIDFORMAT_BEGIN
 90
        0
 91
        1
 62
     0
 92
       -2
340
14
 93
        0
 40
0.045
309
GRIDFORMAT_END
 95
        8
302
GRIDFORMAT
  1
GRIDFORMAT_BEGIN
 90
        0
 91
        1
 62
     0
 92
       -2
340
14
 93
        0
 40
0.045
309
GRIDFORMAT_END
 95
       16
302
GRIDFORMAT
  1
GRIDFORMAT_BEGIN
 90
        0
 91
        1
 62
     0
 92
       -2
340
14
 93
        0
 40
0.045
309
GRIDFORMAT_END
 95
       32
302
GRIDFORMAT
  1
GRIDFORMAT_BEGIN
 90
        0
 91
        1
 62
     0
 92
       -2
340
14
 93
        0
 40
0.045
309
GRIDFORMAT_END
309
TABLEFORMAT_END
  1
CELLSTYLE_BEGIN
 90
        1
 91
        1
300
_TITLE
309
CELLSTYLE_END
300
CELLSTYLE
  1
TABLEFORMAT_BEGIN
 90
        5
170
     1
 91
        0
 92
        0
 62
   257
 93
        1
300
CONTENTFORMAT
  1
CONTENTFORMAT_BEGIN
 90
        0
 91
        0
 92
        4
 93
        0
300

 40
0.0
140
1.0
 94
        5
 62
     0
340
11
144
0.18
309
CONTENTFORMAT_END
171
     1
301
MARGIN
  1
CELLMARGIN_BEGIN
 40
0.06
 40
0.06
 40
0.06
 40
0.06
 40
0.06
 40
0.06
309
CELLMARGIN_END
 94
        6
 95
        1
302
GRIDFORMAT
  1
GRIDFORMAT_BEGIN
 90
        0
 91
        1
 62
     0
 92
       -2
340
14
 93
        0
 40
0.045
309
GRIDFORMAT_END
 95
        2
302
GRIDFORMAT
  1
GRIDFORMAT_BEGIN
 90
        0
 91
        1
 62
     0
 92
       -2
340
14
 93
        0
 40
0.045
309
GRIDFORMAT_END
 95
        4
302
GRIDFORMAT
  1
GRIDFORMAT_BEGIN
 90
        0
 91
        1
 62
     0
 92
       -2
340
14
 93
        0
 40
0.045
309
GRIDFORMAT_END
 95
        8
302
GRIDFORMAT
  1
GRIDFORMAT_BEGIN
 90
        0
 91
        1
 62
     0
 92
       -2
340
14
 93
        0
 40
0.045
309
GRIDFORMAT_END
 95
       16
302
GRIDFORMAT
  1
GRIDFORMAT_BEGIN
 90
        0
 91
        1
 62
     0
 92
       -2
340
14
 93
        0
 40
0.045
309
GRIDFORMAT_END
 95
       32
302
GRIDFORMAT
  1
GRIDFORMAT_BEGIN
 90
        0
 91
        1
 62
     0
 92
       -2
340
14
 93
        0
 40
0.045
309
GRIDFORMAT_END
309
TABLEFORMAT_END
  1
CELLSTYLE_BEGIN
 90
        2
 91
        1
300
_HEADER
309
CELLSTYLE_END
300
CELLSTYLE
  1
TABLEFORMAT_BEGIN
 90
        5
170
     1
 91
        0
 92
        0
 62
   257
 93
        1
300
CONTENTFORMAT
  1
CONTENTFORMAT_BEGIN
 90
        0
 91
        0
 92
        4
 93
        0
300

 40
0.0
140
1.0
 94
        2
 62
     0
340
11
144
0.18
309
CONTENTFORMAT_END
171
     1
301
MARGIN
  1
CELLMARGIN_BEGIN
 40
0.06
 40
0.06
 40
0.06
 40
0.06
 40
0.06
 40
0.06
309
CELLMARGIN_END
 94
        6
 95
        1
302
GRIDFORMAT
  1
GRIDFORMAT_BEGIN
 90
        0
 91
        1
 62
     0
 92
       -2
340
14
 93
        0
 40
0.045
309
GRIDFORMAT_END
 95
        2
302
GRIDFORMAT
  1
GRIDFORMAT_BEGIN
 90
        0
 91
        1
 62
     0
 92
       -2
340
14
 93
        0
 40
0.045
309
GRIDFORMAT_END
 95
        4
302
GRIDFORMAT
  1
GRIDFORMAT_BEGIN
 90
        0
 91
        1
 62
     0
 92
       -2
340
14
 93
        0
 40
0.045
309
GRIDFORMAT_END
 95
        8
302
GRIDFORMAT
  1
GRIDFORMAT_BEGIN
 90
        0
 91
        1
 62
     0
 92
       -2
340
14
 93
        0
 40
0.045
309
GRIDFORMAT_END
 95
       16
302
GRIDFORMAT
  1
GRIDFORMAT_BEGIN
 90
        0
 91
        1
 62
     0
 92
       -2
340
14
 93
        0
 40
0.045
309
GRIDFORMAT_END
 95
       32
302
GRIDFORMAT
  1
GRIDFORMAT_BEGIN
 90
        0
 91
        1
 62
     0
 92
       -2
340
14
 93
        0
 40
0.045
309
GRIDFORMAT_END
309
TABLEFORMAT_END
  1
CELLSTYLE_BEGIN
 90
        3
 91
        2
300
_DATA
309
CELLSTYLE_END
  0
ENDSEC
  0
EOF
